<svg xmlns="http://www.w3.org/2000/svg" width="19.054" height="17.406" viewBox="0 0 19.054 17.406">
  <path id="Icon_awesome-linkedin-in" data-name="Icon awesome-linkedin-in" d="M4.265,17.407H.315V5.786h3.95ZM2.288,4.2A2.212,2.212,0,0,1,0,2.091,2.2,2.2,0,0,1,2.288,0a2.2,2.2,0,0,1,2.288,2.09A2.212,2.212,0,0,1,2.288,4.2ZM19.05,17.407H15.108V11.75c0-1.348-.03-3.077-2.054-3.077-2.054,0-2.369,1.465-2.369,2.98v5.754H6.74V5.786h3.789V7.371h.055a4.235,4.235,0,0,1,3.738-1.877c4,0,4.733,2.405,4.733,5.529v6.384Z" transform="translate(0 0)"/>
</svg>
