<svg xmlns="http://www.w3.org/2000/svg" width="19.405" height="19.405" viewBox="0 0 19.405 19.405">
  <g id="Icon_feather-instagram" data-name="Icon feather-instagram" transform="translate(1 1)">
    <path id="Path_36488" data-name="Path 36488" d="M7.351,3h8.7A4.351,4.351,0,0,1,20.4,7.351v8.7A4.351,4.351,0,0,1,16.054,20.4h-8.7A4.351,4.351,0,0,1,3,16.054v-8.7A4.351,4.351,0,0,1,7.351,3Z" transform="translate(-3 -3)" fill="none" stroke="#000" stroke-linecap="round" stroke-linejoin="round" stroke-width="2"/>
    <path id="Path_36489" data-name="Path 36489" d="M19.3,15.041a3.639,3.639,0,1,1-3.066-3.066A3.639,3.639,0,0,1,19.3,15.041Z" transform="translate(-6.965 -6.909)" fill="none" stroke="#000" stroke-linecap="round" stroke-linejoin="round" stroke-width="2"/>
    <path id="Path_36490" data-name="Path 36490" d="M26.25,9.75h0" transform="translate(-12.761 -5.834)" fill="none" stroke="#000" stroke-linecap="round" stroke-linejoin="round" stroke-width="2"/>
  </g>
</svg>
