<svg xmlns="http://www.w3.org/2000/svg" width="26.204" height="16.377" viewBox="0 0 26.204 16.377">
  <path id="Icon_awesome-google-plus-g" data-name="Icon awesome-google-plus-g" d="M16.82,11.516a6.946,6.946,0,0,1,.134,1.363c0,4.681-3.139,8-7.865,8a8.189,8.189,0,1,1,0-16.377,7.822,7.822,0,0,1,5.485,2.145L12.351,8.779A4.6,4.6,0,0,0,9.089,7.516a5.173,5.173,0,0,0,0,10.345,4.435,4.435,0,0,0,4.647-3.53H9.089V11.516H16.82Zm7.908.275V9.413H22.339V11.79H19.962v2.388h2.377v2.377h2.388V14.179H27.1V11.79H24.727Z" transform="translate(-0.9 -4.5)"/>
</svg>
