<svg xmlns="http://www.w3.org/2000/svg" width="236" height="236" viewBox="0 0 236 236">
  <g id="Group_43579" data-name="Group 43579" transform="translate(-933.962 -2008.962)">
    <g id="Group_42846" data-name="Group 42846" transform="translate(934 2029)">
      <g id="Group_42842" data-name="Group 42842">
        <rect id="Rectangle_6261" data-name="Rectangle 6261" width="236" height="236" rx="20" transform="translate(-0.039 -20.038)" fill="#3eb6ae"/>
      </g>
    </g>
    <g id="svgexport-6_82_" data-name="svgexport-6 (82)" transform="translate(978.634 2044.07)">
      <g id="Group_42847" data-name="Group 42847" transform="translate(0)">
        <path id="Path_168007" data-name="Path 168007" d="M178.763,10.179H109.807V0H99.956V10.179H31V157.942H99.956v10.179h9.851V157.942h68.956Zm-9.851,137.912H109.807V138.24H99.956v9.851H40.851V20.03H99.956v9.851h9.851V20.03h59.105Z" transform="translate(-31)" fill="#fff"/>
        <path id="Path_168008" data-name="Path 168008" d="M241,121h9.851v19.7H241Z" transform="translate(-172.044 -81.268)" fill="#fff"/>
        <path id="Path_168009" data-name="Path 168009" d="M241,331h9.851v19.7H241Z" transform="translate(-172.044 -222.312)" fill="#fff"/>
        <path id="Path_168010" data-name="Path 168010" d="M241,211h9.851v29.553H241Z" transform="translate(-172.044 -141.716)" fill="#fff"/>
        <path id="Path_168011" data-name="Path 168011" d="M108.727,111.612l-6.368-6.368-6.966,6.966,13.334,13.334,23.184-23.185-6.966-6.966Z" transform="translate(-74.249 -64.07)" fill="#fff"/>
        <path id="Path_168012" data-name="Path 168012" d="M129.471,213.573l-6.966,6.966-6.966-6.966-6.965,6.966,6.966,6.966-6.966,6.966,6.965,6.966,6.966-6.966,6.966,6.966,6.966-6.966-6.966-6.966,6.966-6.966Z" transform="translate(-83.102 -143.444)" fill="#fff"/>
        <path id="Path_168013" data-name="Path 168013" d="M129.471,333.573l-6.966,6.966-6.966-6.966-6.965,6.966,6.966,6.966-6.966,6.966,6.965,6.965,6.966-6.965,6.966,6.965,6.966-6.965-6.966-6.966,6.966-6.966Z" transform="translate(-83.102 -224.04)" fill="#fff"/>
        <path id="Path_168014" data-name="Path 168014" d="M318.727,231.612l-6.368-6.368-6.966,6.966,13.334,13.334,23.184-23.185-6.966-6.966Z" transform="translate(-215.293 -144.666)" fill="#fff"/>
        <path id="Path_168015" data-name="Path 168015" d="M341.911,102.359l-6.966-6.966-16.219,16.219-6.368-6.368-6.966,6.966,13.334,13.334Z" transform="translate(-215.293 -64.07)" fill="#fff"/>
        <path id="Path_168016" data-name="Path 168016" d="M339.471,333.573l-6.966,6.966-6.966-6.966-6.965,6.966,6.966,6.966-6.966,6.966,6.965,6.965,6.966-6.965,6.966,6.965,6.965-6.965-6.965-6.966,6.965-6.966Z" transform="translate(-224.146 -224.04)" fill="#fff"/>
      </g>
    </g>
  </g>
</svg>
