<svg xmlns="http://www.w3.org/2000/svg" width="234.651" height="247.704" viewBox="0 0 234.651 247.704">
  <g id="Group_42918" data-name="Group 42918" transform="translate(0 0)">
    <path id="Path_168050" data-name="Path 168050" d="M551.8,195.017h39.108L551.8,233.547Z" transform="translate(-551.799 -195.018)" fill="#f0eb5b"/>
    <path id="Path_168051" data-name="Path 168051" d="M551.8,214.858h39.108L551.8,253.388Z" transform="translate(-551.799 -173.024)" fill="#f0eb5b"/>
    <path id="Path_168052" data-name="Path 168052" d="M551.8,234.7h39.108L551.8,273.229Z" transform="translate(-551.799 -151.03)" fill="#f0eb5b"/>
    <path id="Path_168053" data-name="Path 168053" d="M551.8,254.54h39.108L551.8,293.07Z" transform="translate(-551.799 -129.036)" fill="#f0eb5b"/>
    <path id="Path_168054" data-name="Path 168054" d="M551.8,274.381h39.108L551.8,312.911Z" transform="translate(-551.799 -107.042)" fill="#f0eb5b"/>
    <path id="Path_168055" data-name="Path 168055" d="M551.8,294.222h39.108L551.8,332.752Z" transform="translate(-551.799 -85.048)" fill="#f0eb5b"/>
    <path id="Path_168056" data-name="Path 168056" d="M570.347,195.017h39.109l-39.109,38.53Z" transform="translate(-531.239 -195.018)" fill="#f0eb5b"/>
    <path id="Path_168057" data-name="Path 168057" d="M570.347,214.858h39.109l-39.109,38.53Z" transform="translate(-531.239 -173.024)" fill="#f0eb5b"/>
    <path id="Path_168058" data-name="Path 168058" d="M570.347,234.7h39.109l-39.109,38.53Z" transform="translate(-531.239 -151.03)" fill="#f0eb5b"/>
    <path id="Path_168059" data-name="Path 168059" d="M570.347,254.54h39.109l-39.109,38.53Z" transform="translate(-531.239 -129.036)" fill="#f0eb5b"/>
    <path id="Path_168060" data-name="Path 168060" d="M570.347,274.381h39.109l-39.109,38.53Z" transform="translate(-531.239 -107.042)" fill="#f0eb5b"/>
    <path id="Path_168061" data-name="Path 168061" d="M570.347,294.222h39.109l-39.109,38.53Z" transform="translate(-531.239 -85.048)" fill="#f0eb5b"/>
    <path id="Path_168062" data-name="Path 168062" d="M588.9,195.017H628L588.9,233.547Z" transform="translate(-510.678 -195.018)" fill="#f0eb5b"/>
    <path id="Path_168063" data-name="Path 168063" d="M588.9,214.858H628L588.9,253.388Z" transform="translate(-510.678 -173.024)" fill="#f0eb5b"/>
    <path id="Path_168064" data-name="Path 168064" d="M588.9,234.7H628L588.9,273.229Z" transform="translate(-510.678 -151.03)" fill="#f0eb5b"/>
    <path id="Path_168065" data-name="Path 168065" d="M588.9,254.54H628L588.9,293.07Z" transform="translate(-510.678 -129.036)" fill="#f0eb5b"/>
    <path id="Path_168066" data-name="Path 168066" d="M588.9,274.381H628L588.9,312.911Z" transform="translate(-510.678 -107.042)" fill="#f0eb5b"/>
    <path id="Path_168067" data-name="Path 168067" d="M588.9,294.222H628L588.9,332.752Z" transform="translate(-510.678 -85.048)" fill="#f0eb5b"/>
    <path id="Path_168068" data-name="Path 168068" d="M607.443,195.017h39.109l-39.109,38.53Z" transform="translate(-490.118 -195.018)" fill="#f0eb5b"/>
    <path id="Path_168069" data-name="Path 168069" d="M607.443,214.858h39.109l-39.109,38.53Z" transform="translate(-490.118 -173.024)" fill="#f0eb5b"/>
    <path id="Path_168070" data-name="Path 168070" d="M607.443,234.7h39.109l-39.109,38.53Z" transform="translate(-490.118 -151.03)" fill="#f0eb5b"/>
    <path id="Path_168071" data-name="Path 168071" d="M607.443,254.54h39.109l-39.109,38.53Z" transform="translate(-490.118 -129.036)" fill="#f0eb5b"/>
    <path id="Path_168072" data-name="Path 168072" d="M607.443,274.381h39.109l-39.109,38.53Z" transform="translate(-490.118 -107.042)" fill="#f0eb5b"/>
    <path id="Path_168073" data-name="Path 168073" d="M607.443,294.222h39.109l-39.109,38.53Z" transform="translate(-490.118 -85.048)" fill="#f0eb5b"/>
    <path id="Path_168074" data-name="Path 168074" d="M625.991,195.017H665.1l-39.109,38.53Z" transform="translate(-469.557 -195.018)" fill="#f0eb5b"/>
    <path id="Path_168075" data-name="Path 168075" d="M625.991,214.858H665.1l-39.109,38.53Z" transform="translate(-469.557 -173.024)" fill="#f0eb5b"/>
    <path id="Path_168076" data-name="Path 168076" d="M625.991,234.7H665.1l-39.109,38.53Z" transform="translate(-469.557 -151.03)" fill="#f0eb5b"/>
    <path id="Path_168077" data-name="Path 168077" d="M625.991,254.54H665.1l-39.109,38.53Z" transform="translate(-469.557 -129.036)" fill="#f0eb5b"/>
    <path id="Path_168078" data-name="Path 168078" d="M625.991,274.381H665.1l-39.109,38.53Z" transform="translate(-469.557 -107.042)" fill="#f0eb5b"/>
    <path id="Path_168079" data-name="Path 168079" d="M625.991,294.222H665.1l-39.109,38.53Z" transform="translate(-469.557 -85.048)" fill="#f0eb5b"/>
    <path id="Path_168080" data-name="Path 168080" d="M644.539,195.017h39.109l-39.109,38.53Z" transform="translate(-448.997 -195.018)" fill="#f0eb5b"/>
    <path id="Path_168081" data-name="Path 168081" d="M644.539,214.858h39.109l-39.109,38.53Z" transform="translate(-448.997 -173.024)" fill="#f0eb5b"/>
    <path id="Path_168082" data-name="Path 168082" d="M644.539,234.7h39.109l-39.109,38.53Z" transform="translate(-448.997 -151.03)" fill="#f0eb5b"/>
    <path id="Path_168083" data-name="Path 168083" d="M644.539,254.54h39.109l-39.109,38.53Z" transform="translate(-448.997 -129.036)" fill="#f0eb5b"/>
    <path id="Path_168084" data-name="Path 168084" d="M644.539,274.381h39.109l-39.109,38.53Z" transform="translate(-448.997 -107.042)" fill="#f0eb5b"/>
    <path id="Path_168085" data-name="Path 168085" d="M644.539,294.222h39.109l-39.109,38.53Z" transform="translate(-448.997 -85.048)" fill="#f0eb5b"/>
  </g>
</svg>
