<svg id="svgexport-7_6_" data-name="svgexport-7 (6)" xmlns="http://www.w3.org/2000/svg" width="92.73" height="130.913" viewBox="0 0 92.73 130.913">
  <g id="Group_42820" data-name="Group 42820" transform="translate(0)">
    <g id="Group_42819" data-name="Group 42819">
      <path id="Path_167987" data-name="Path 167987" d="M153.759,0H104.667a2.747,2.747,0,0,0-1.931.8L75.462,28.07a2.747,2.747,0,0,0-.8,1.931v87.275A13.656,13.656,0,0,0,88.3,130.913h65.457A13.656,13.656,0,0,0,167.4,117.276V13.637A13.656,13.656,0,0,0,153.759,0Zm8.182,117.276a8.192,8.192,0,0,1-8.182,8.182H88.3a8.192,8.192,0,0,1-8.182-8.182V31.13L105.8,5.455h47.963a8.192,8.192,0,0,1,8.182,8.182Z" transform="translate(-74.666)"/>
    </g>
  </g>
  <g id="Group_42822" data-name="Group 42822" transform="translate(16.364 43.638)">
    <g id="Group_42821" data-name="Group 42821" transform="translate(0)">
      <path id="Path_167988" data-name="Path 167988" d="M190.487,170.667H146.849a8.192,8.192,0,0,0-8.182,8.182V233.4a8.192,8.192,0,0,0,8.182,8.182h43.638a8.192,8.192,0,0,0,8.182-8.182V178.849A8.192,8.192,0,0,0,190.487,170.667Zm2.728,62.729a2.728,2.728,0,0,1-2.728,2.727H146.849a2.728,2.728,0,0,1-2.727-2.727V178.849a2.729,2.729,0,0,1,2.727-2.727h43.638a2.729,2.729,0,0,1,2.727,2.727V233.4Z" transform="translate(-138.667 -170.667)"/>
    </g>
  </g>
  <g id="Group_42824" data-name="Group 42824" transform="translate(16.364 76.366)">
    <g id="Group_42823" data-name="Group 42823" transform="translate(0)">
      <path id="Path_167989" data-name="Path 167989" d="M195.941,298.667H141.393a2.727,2.727,0,1,0,0,5.455H195.94a2.727,2.727,0,1,0,0-5.455Z" transform="translate(-138.666 -298.667)"/>
    </g>
  </g>
  <g id="Group_42826" data-name="Group 42826" transform="translate(32.728 43.638)">
    <g id="Group_42825" data-name="Group 42825" transform="translate(0)">
      <path id="Path_167990" data-name="Path 167990" d="M205.393,170.667a2.728,2.728,0,0,0-2.727,2.727v16.364a2.727,2.727,0,1,0,5.455,0V173.394A2.728,2.728,0,0,0,205.393,170.667Z" transform="translate(-202.666 -170.667)"/>
    </g>
  </g>
  <g id="Group_42828" data-name="Group 42828" transform="translate(43.638 60.002)">
    <g id="Group_42827" data-name="Group 42827">
      <path id="Path_167991" data-name="Path 167991" d="M248.06,234.667a2.729,2.729,0,0,0-2.727,2.727v16.364a2.727,2.727,0,1,0,5.455,0V237.394A2.728,2.728,0,0,0,248.06,234.667Z" transform="translate(-245.333 -234.667)"/>
    </g>
  </g>
  <g id="Group_42830" data-name="Group 42830" transform="translate(54.547 43.638)">
    <g id="Group_42829" data-name="Group 42829">
      <path id="Path_167992" data-name="Path 167992" d="M290.727,170.667A2.728,2.728,0,0,0,288,173.394v16.364a2.727,2.727,0,1,0,5.455,0V173.394A2.728,2.728,0,0,0,290.727,170.667Z" transform="translate(-288 -170.667)"/>
    </g>
  </g>
  <g id="Group_42832" data-name="Group 42832" transform="translate(43.638 92.73)">
    <g id="Group_42831" data-name="Group 42831">
      <path id="Path_167993" data-name="Path 167993" d="M248.06,362.667a2.729,2.729,0,0,0-2.727,2.728v16.364a2.727,2.727,0,0,0,5.455,0V365.395A2.728,2.728,0,0,0,248.06,362.667Z" transform="translate(-245.333 -362.667)"/>
    </g>
  </g>
  <g id="Group_42834" data-name="Group 42834" transform="translate(32.728 76.366)">
    <g id="Group_42833" data-name="Group 42833" transform="translate(0)">
      <path id="Path_167994" data-name="Path 167994" d="M205.393,298.667a2.729,2.729,0,0,0-2.727,2.727v16.364a2.727,2.727,0,1,0,5.455,0V301.394A2.728,2.728,0,0,0,205.393,298.667Z" transform="translate(-202.666 -298.667)"/>
    </g>
  </g>
  <g id="Group_42836" data-name="Group 42836" transform="translate(54.547 76.366)">
    <g id="Group_42835" data-name="Group 42835">
      <path id="Path_167995" data-name="Path 167995" d="M290.727,298.667A2.729,2.729,0,0,0,288,301.394v16.364a2.727,2.727,0,0,0,5.455,0V301.394A2.729,2.729,0,0,0,290.727,298.667Z" transform="translate(-288 -298.667)"/>
    </g>
  </g>
</svg>
