<svg id="Group_43585" data-name="Group 43585" xmlns="http://www.w3.org/2000/svg" width="148.686" height="250.625" viewBox="0 0 148.686 250.625">
  <g id="Group_42928" data-name="Group 42928" transform="translate(0 0)">
    <path id="Path_168224" data-name="Path 168224" d="M406.462,661.43v-3.467h14.511v-5.829h3.48v15.112h-3.48V661.43Z" transform="translate(-275.767 -416.621)" fill="#fcfcfd"/>
    <path id="Path_168225" data-name="Path 168225" d="M381.008,661.43v-3.467h14.51v-5.829H399v15.112h-3.48V661.43Z" transform="translate(-296.563 -416.621)" fill="#fcfcfd"/>
    <path id="Path_168226" data-name="Path 168226" d="M355.554,661.43v-3.467h14.511v-5.829h3.48v15.112h-3.48V661.43Z" transform="translate(-317.359 -416.621)" fill="#fcfcfd"/>
    <path id="Path_168227" data-name="Path 168227" d="M373.544,632.027v3.467H359.035v5.829h-3.481V626.211h3.481v5.816Z" transform="translate(-317.359 -437.8)" fill="#fcfcfd"/>
    <path id="Path_168228" data-name="Path 168228" d="M399,632.027v3.467H384.489v5.829h-3.481V626.211h3.481v5.816Z" transform="translate(-296.563 -437.8)" fill="#fcfcfd"/>
    <path id="Path_168229" data-name="Path 168229" d="M424.452,632.027v3.467H409.943v5.829h-3.481V626.211h3.481v5.816Z" transform="translate(-275.767 -437.8)" fill="#fcfcfd"/>
    <path id="Path_168230" data-name="Path 168230" d="M406.462,557.737v-3.469h14.511v-5.827h3.48v15.112h-3.48v-5.816Z" transform="translate(-275.767 -501.339)" fill="#fcfcfd"/>
    <path id="Path_168231" data-name="Path 168231" d="M381.008,557.737v-3.469h14.51v-5.827H399v15.112h-3.48v-5.816Z" transform="translate(-296.563 -501.339)" fill="#fcfcfd"/>
    <path id="Path_168232" data-name="Path 168232" d="M355.554,557.737v-3.469h14.511v-5.827h3.48v15.112h-3.48v-5.816Z" transform="translate(-317.359 -501.339)" fill="#fcfcfd"/>
    <path id="Path_168233" data-name="Path 168233" d="M373.544,528.332V531.8H359.035v5.827h-3.481v-15.11h3.481v5.814Z" transform="translate(-317.359 -522.518)" fill="#fcfcfd"/>
    <path id="Path_168234" data-name="Path 168234" d="M399,528.332V531.8H384.489v5.827h-3.481v-15.11h3.481v5.814Z" transform="translate(-296.563 -522.518)" fill="#fcfcfd"/>
    <path id="Path_168235" data-name="Path 168235" d="M424.452,528.332V531.8H409.943v5.827h-3.481v-15.11h3.481v5.814Z" transform="translate(-275.767 -522.518)" fill="#fcfcfd"/>
    <path id="Path_168236" data-name="Path 168236" d="M406.462,609.584v-3.469h14.511v-5.827h3.48V615.4h-3.48v-5.814Z" transform="translate(-275.767 -458.979)" fill="#fcfcfd"/>
    <path id="Path_168237" data-name="Path 168237" d="M381.008,609.584v-3.469h14.51v-5.827H399V615.4h-3.48v-5.814Z" transform="translate(-296.563 -458.979)" fill="#fcfcfd"/>
    <path id="Path_168238" data-name="Path 168238" d="M355.554,609.584v-3.469h14.511v-5.827h3.48V615.4h-3.48v-5.814Z" transform="translate(-317.359 -458.979)" fill="#fcfcfd"/>
    <path id="Path_168239" data-name="Path 168239" d="M373.544,580.18v3.469H359.035v5.827h-3.481V574.364h3.481v5.816Z" transform="translate(-317.359 -480.16)" fill="#fcfcfd"/>
    <path id="Path_168240" data-name="Path 168240" d="M334.533,661.43v-3.467h14.509v-5.829h3.481v15.112h-3.481V661.43Z" transform="translate(-334.533 -416.621)" fill="#fcfcfd"/>
    <path id="Path_168241" data-name="Path 168241" d="M352.523,632.027v3.467H338.013v5.829h-3.48V626.211h3.48v5.816Z" transform="translate(-334.533 -437.8)" fill="#fcfcfd"/>
    <path id="Path_168242" data-name="Path 168242" d="M334.533,557.737v-3.469h14.509v-5.827h3.481v15.112h-3.481v-5.816Z" transform="translate(-334.533 -501.339)" fill="#fcfcfd"/>
    <path id="Path_168243" data-name="Path 168243" d="M352.523,528.332V531.8H338.013v5.827h-3.48v-15.11h3.48v5.814Z" transform="translate(-334.533 -522.518)" fill="#fcfcfd"/>
    <path id="Path_168244" data-name="Path 168244" d="M334.533,609.584v-3.469h14.509v-5.827h3.481V615.4h-3.481v-5.814Z" transform="translate(-334.533 -458.979)" fill="#fcfcfd"/>
    <path id="Path_168245" data-name="Path 168245" d="M352.523,580.18v3.469H338.013v5.827h-3.48V574.364h3.48v5.816Z" transform="translate(-334.533 -480.16)" fill="#fcfcfd"/>
    <path id="Path_168246" data-name="Path 168246" d="M399,580.18v3.469H384.489v5.827h-3.481V574.364h3.481v5.816Z" transform="translate(-296.563 -480.16)" fill="#fcfcfd"/>
    <path id="Path_168247" data-name="Path 168247" d="M424.452,580.18v3.469H409.943v5.827h-3.481V574.364h3.481v5.816Z" transform="translate(-275.767 -480.16)" fill="#fcfcfd"/>
  </g>
</svg>
