<svg xmlns="http://www.w3.org/2000/svg" width="176.98" height="182.799" viewBox="0 0 176.98 182.799">
  <g id="Group_42920" data-name="Group 42920" transform="translate(-252.603 -619.864)">
    <path id="Path_168110" data-name="Path 168110" d="M245.775,577.8a10.235,10.235,0,0,0-.692-3.85,9.117,9.117,0,0,0-1.885-2.966,8.14,8.14,0,0,0-2.787-1.9,9.086,9.086,0,0,0-6.8,0,7.958,7.958,0,0,0-2.772,1.9,9.041,9.041,0,0,0-1.853,2.966,10.408,10.408,0,0,0-.677,3.85,9.932,9.932,0,0,0,.677,3.706,9.261,9.261,0,0,0,1.853,2.964,8.612,8.612,0,0,0,2.772,1.982,8.111,8.111,0,0,0,3.4.725,8.622,8.622,0,0,0,3.4-.675,8.429,8.429,0,0,0,2.787-1.9,8.9,8.9,0,0,0,1.885-2.964A10.284,10.284,0,0,0,245.775,577.8Z" transform="translate(64.171 51.438)" fill="#fff"/>
    <path id="Path_168111" data-name="Path 168111" d="M264.265,577.8a10.234,10.234,0,0,0-.695-3.85,9.116,9.116,0,0,0-1.885-2.966,8.139,8.139,0,0,0-2.787-1.9,9.085,9.085,0,0,0-6.8,0,7.959,7.959,0,0,0-2.772,1.9,9.041,9.041,0,0,0-1.853,2.966,10.451,10.451,0,0,0-.677,3.85,9.974,9.974,0,0,0,.677,3.706,9.26,9.26,0,0,0,1.853,2.964,8.613,8.613,0,0,0,2.772,1.982,8.111,8.111,0,0,0,3.4.725,8.622,8.622,0,0,0,3.4-.675,8.428,8.428,0,0,0,2.787-1.9,8.9,8.9,0,0,0,1.885-2.964A10.283,10.283,0,0,0,264.265,577.8Z" transform="translate(85.562 51.438)" fill="#fff"/>
    <path id="Path_168112" data-name="Path 168112" d="M282.753,577.8a10.277,10.277,0,0,0-.692-3.85,9.155,9.155,0,0,0-1.887-2.966,8.138,8.138,0,0,0-2.787-1.9,9.086,9.086,0,0,0-6.8,0,7.978,7.978,0,0,0-2.772,1.9,9.041,9.041,0,0,0-1.853,2.966,10.452,10.452,0,0,0-.677,3.85,9.974,9.974,0,0,0,.677,3.706,9.261,9.261,0,0,0,1.853,2.964,8.635,8.635,0,0,0,2.772,1.982,8.118,8.118,0,0,0,3.4.725,8.622,8.622,0,0,0,3.4-.675,8.427,8.427,0,0,0,2.787-1.9,8.941,8.941,0,0,0,1.887-2.964A10.326,10.326,0,0,0,282.753,577.8Z" transform="translate(106.952 51.438)" fill="#fff"/>
    <path id="Path_168113" data-name="Path 168113" d="M301.241,577.8a10.277,10.277,0,0,0-.692-3.85,9.156,9.156,0,0,0-1.887-2.966,8.139,8.139,0,0,0-2.787-1.9,9.086,9.086,0,0,0-6.8,0,8,8,0,0,0-2.772,1.9,9.077,9.077,0,0,0-1.853,2.966,10.451,10.451,0,0,0-.677,3.85,9.974,9.974,0,0,0,.677,3.706,9.3,9.3,0,0,0,1.853,2.964,8.659,8.659,0,0,0,2.772,1.982,8.119,8.119,0,0,0,3.4.725,8.622,8.622,0,0,0,3.4-.675,8.428,8.428,0,0,0,2.787-1.9,8.942,8.942,0,0,0,1.887-2.964A10.327,10.327,0,0,0,301.241,577.8Z" transform="translate(128.342 51.438)" fill="#fff"/>
    <path id="Path_168114" data-name="Path 168114" d="M245.775,593.6a10.251,10.251,0,0,0-.692-3.85,9.163,9.163,0,0,0-1.885-2.966,8.141,8.141,0,0,0-2.787-1.9,9.086,9.086,0,0,0-6.8,0,7.959,7.959,0,0,0-2.772,1.9,9.087,9.087,0,0,0-1.853,2.966,10.425,10.425,0,0,0-.677,3.85,9.943,9.943,0,0,0,.677,3.708,9.261,9.261,0,0,0,1.853,2.964,8.613,8.613,0,0,0,2.772,1.982,8.111,8.111,0,0,0,3.4.725,8.623,8.623,0,0,0,3.4-.677,8.423,8.423,0,0,0,2.787-1.9,8.916,8.916,0,0,0,1.885-2.966A10.284,10.284,0,0,0,245.775,593.6Z" transform="translate(64.171 69.715)" fill="#fff"/>
    <path id="Path_168115" data-name="Path 168115" d="M264.265,593.6a10.251,10.251,0,0,0-.695-3.85,9.162,9.162,0,0,0-1.885-2.966,8.14,8.14,0,0,0-2.787-1.9,9.085,9.085,0,0,0-6.8,0,7.96,7.96,0,0,0-2.772,1.9,9.087,9.087,0,0,0-1.853,2.966,10.468,10.468,0,0,0-.677,3.85,9.985,9.985,0,0,0,.677,3.708,9.261,9.261,0,0,0,1.853,2.964,8.615,8.615,0,0,0,2.772,1.982,8.111,8.111,0,0,0,3.4.725,8.623,8.623,0,0,0,3.4-.677,8.422,8.422,0,0,0,2.787-1.9,8.916,8.916,0,0,0,1.885-2.966A10.283,10.283,0,0,0,264.265,593.6Z" transform="translate(85.562 69.715)" fill="#fff"/>
    <path id="Path_168116" data-name="Path 168116" d="M282.753,593.6a10.293,10.293,0,0,0-.692-3.85,9.2,9.2,0,0,0-1.887-2.966,8.139,8.139,0,0,0-2.787-1.9,9.086,9.086,0,0,0-6.8,0,7.979,7.979,0,0,0-2.772,1.9,9.087,9.087,0,0,0-1.853,2.966,10.469,10.469,0,0,0-.677,3.85,9.986,9.986,0,0,0,.677,3.708,9.261,9.261,0,0,0,1.853,2.964,8.637,8.637,0,0,0,2.772,1.982,8.118,8.118,0,0,0,3.4.725,8.623,8.623,0,0,0,3.4-.677,8.421,8.421,0,0,0,2.787-1.9,8.953,8.953,0,0,0,1.887-2.966A10.326,10.326,0,0,0,282.753,593.6Z" transform="translate(106.952 69.715)" fill="#fff"/>
    <path id="Path_168117" data-name="Path 168117" d="M301.241,593.6a10.294,10.294,0,0,0-.692-3.85,9.2,9.2,0,0,0-1.887-2.966,8.14,8.14,0,0,0-2.787-1.9,9.086,9.086,0,0,0-6.8,0,8,8,0,0,0-2.772,1.9,9.123,9.123,0,0,0-1.853,2.966,10.468,10.468,0,0,0-.677,3.85,9.985,9.985,0,0,0,.677,3.708,9.3,9.3,0,0,0,1.853,2.964,8.661,8.661,0,0,0,2.772,1.982,8.119,8.119,0,0,0,3.4.725,8.624,8.624,0,0,0,3.4-.677,8.422,8.422,0,0,0,2.787-1.9,8.953,8.953,0,0,0,1.887-2.966A10.327,10.327,0,0,0,301.241,593.6Z" transform="translate(128.342 69.715)" fill="#fff"/>
    <path id="Path_168132" data-name="Path 168132" d="M227.287,577.8a10.236,10.236,0,0,0-.692-3.85,9.152,9.152,0,0,0-1.885-2.966,8.181,8.181,0,0,0-2.787-1.9,9.091,9.091,0,0,0-6.8,0,7.97,7.97,0,0,0-2.77,1.9,9.046,9.046,0,0,0-1.855,2.966,10.452,10.452,0,0,0-.675,3.85,9.973,9.973,0,0,0,.675,3.706,9.266,9.266,0,0,0,1.855,2.964,8.627,8.627,0,0,0,2.77,1.982,8.128,8.128,0,0,0,3.4.725,8.63,8.63,0,0,0,3.4-.675,8.473,8.473,0,0,0,2.787-1.9,8.938,8.938,0,0,0,1.885-2.964A10.284,10.284,0,0,0,227.287,577.8Z" transform="translate(42.781 51.438)" fill="#fff"/>
    <path id="Path_168133" data-name="Path 168133" d="M245.775,577.8a10.235,10.235,0,0,0-.692-3.85,9.117,9.117,0,0,0-1.885-2.966,8.14,8.14,0,0,0-2.787-1.9,9.086,9.086,0,0,0-6.8,0,7.958,7.958,0,0,0-2.772,1.9,9.041,9.041,0,0,0-1.853,2.966,10.408,10.408,0,0,0-.677,3.85,9.932,9.932,0,0,0,.677,3.706,9.261,9.261,0,0,0,1.853,2.964,8.612,8.612,0,0,0,2.772,1.982,8.111,8.111,0,0,0,3.4.725,8.622,8.622,0,0,0,3.4-.675,8.429,8.429,0,0,0,2.787-1.9,8.9,8.9,0,0,0,1.885-2.964A10.284,10.284,0,0,0,245.775,577.8Z" transform="translate(64.171 51.438)" fill="#fff"/>
    <path id="Path_168136" data-name="Path 168136" d="M227.287,593.6a10.252,10.252,0,0,0-.692-3.85,9.2,9.2,0,0,0-1.885-2.966,8.182,8.182,0,0,0-2.787-1.9,9.091,9.091,0,0,0-6.8,0,7.971,7.971,0,0,0-2.77,1.9,9.092,9.092,0,0,0-1.855,2.966,10.468,10.468,0,0,0-.675,3.85,9.984,9.984,0,0,0,.675,3.708,9.266,9.266,0,0,0,1.855,2.964,8.628,8.628,0,0,0,2.77,1.982,8.128,8.128,0,0,0,3.4.725,8.631,8.631,0,0,0,3.4-.677,8.467,8.467,0,0,0,2.787-1.9,8.95,8.95,0,0,0,1.885-2.966A10.284,10.284,0,0,0,227.287,593.6Z" transform="translate(42.781 69.715)" fill="#fff"/>
    <path id="Path_168137" data-name="Path 168137" d="M245.775,593.6a10.251,10.251,0,0,0-.692-3.85,9.163,9.163,0,0,0-1.885-2.966,8.141,8.141,0,0,0-2.787-1.9,9.086,9.086,0,0,0-6.8,0,7.959,7.959,0,0,0-2.772,1.9,9.087,9.087,0,0,0-1.853,2.966,10.425,10.425,0,0,0-.677,3.85,9.943,9.943,0,0,0,.677,3.708,9.261,9.261,0,0,0,1.853,2.964,8.613,8.613,0,0,0,2.772,1.982,8.111,8.111,0,0,0,3.4.725,8.623,8.623,0,0,0,3.4-.677,8.423,8.423,0,0,0,2.787-1.9,8.916,8.916,0,0,0,1.885-2.966A10.284,10.284,0,0,0,245.775,593.6Z" transform="translate(64.171 69.715)" fill="#fff"/>
    <path id="Path_168138" data-name="Path 168138" d="M245.775,593.6a10.251,10.251,0,0,0-.692-3.85,9.163,9.163,0,0,0-1.885-2.966,8.141,8.141,0,0,0-2.787-1.9,9.086,9.086,0,0,0-6.8,0,7.959,7.959,0,0,0-2.772,1.9,9.087,9.087,0,0,0-1.853,2.966,10.425,10.425,0,0,0-.677,3.85,9.943,9.943,0,0,0,.677,3.708,9.261,9.261,0,0,0,1.853,2.964,8.613,8.613,0,0,0,2.772,1.982,8.111,8.111,0,0,0,3.4.725,8.623,8.623,0,0,0,3.4-.677,8.423,8.423,0,0,0,2.787-1.9,8.916,8.916,0,0,0,1.885-2.966A10.284,10.284,0,0,0,245.775,593.6Z" transform="translate(64.171 69.715)" fill="#fff"/>
    <path id="Path_168139" data-name="Path 168139" d="M264.265,593.6a10.251,10.251,0,0,0-.695-3.85,9.162,9.162,0,0,0-1.885-2.966,8.14,8.14,0,0,0-2.787-1.9,9.085,9.085,0,0,0-6.8,0,7.96,7.96,0,0,0-2.772,1.9,9.087,9.087,0,0,0-1.853,2.966,10.468,10.468,0,0,0-.677,3.85,9.985,9.985,0,0,0,.677,3.708,9.261,9.261,0,0,0,1.853,2.964,8.615,8.615,0,0,0,2.772,1.982,8.111,8.111,0,0,0,3.4.725,8.623,8.623,0,0,0,3.4-.677,8.422,8.422,0,0,0,2.787-1.9,8.916,8.916,0,0,0,1.885-2.966A10.283,10.283,0,0,0,264.265,593.6Z" transform="translate(85.562 69.715)" fill="#fff"/>
    <path id="Path_168140" data-name="Path 168140" d="M282.753,593.6a10.293,10.293,0,0,0-.692-3.85,9.2,9.2,0,0,0-1.887-2.966,8.139,8.139,0,0,0-2.787-1.9,9.086,9.086,0,0,0-6.8,0,7.979,7.979,0,0,0-2.772,1.9,9.087,9.087,0,0,0-1.853,2.966,10.469,10.469,0,0,0-.677,3.85,9.986,9.986,0,0,0,.677,3.708,9.261,9.261,0,0,0,1.853,2.964,8.637,8.637,0,0,0,2.772,1.982,8.118,8.118,0,0,0,3.4.725,8.623,8.623,0,0,0,3.4-.677,8.421,8.421,0,0,0,2.787-1.9,8.953,8.953,0,0,0,1.887-2.966A10.326,10.326,0,0,0,282.753,593.6Z" transform="translate(106.952 69.715)" fill="#fff"/>
    <path id="Path_168141" data-name="Path 168141" d="M301.241,593.6a10.294,10.294,0,0,0-.692-3.85,9.2,9.2,0,0,0-1.887-2.966,8.14,8.14,0,0,0-2.787-1.9,9.086,9.086,0,0,0-6.8,0,8,8,0,0,0-2.772,1.9,9.123,9.123,0,0,0-1.853,2.966,10.468,10.468,0,0,0-.677,3.85,9.985,9.985,0,0,0,.677,3.708,9.3,9.3,0,0,0,1.853,2.964,8.661,8.661,0,0,0,2.772,1.982,8.119,8.119,0,0,0,3.4.725,8.624,8.624,0,0,0,3.4-.677,8.422,8.422,0,0,0,2.787-1.9,8.953,8.953,0,0,0,1.887-2.966A10.327,10.327,0,0,0,301.241,593.6Z" transform="translate(128.342 69.715)" fill="#fff"/>
    <path id="Path_168142" data-name="Path 168142" d="M245.775,608.791a10.254,10.254,0,0,0-.692-3.852,9.127,9.127,0,0,0-1.885-2.964,8.117,8.117,0,0,0-2.787-1.9,9.084,9.084,0,0,0-6.8,0,7.936,7.936,0,0,0-2.772,1.9,9.052,9.052,0,0,0-1.853,2.964,10.428,10.428,0,0,0-.677,3.852,9.94,9.94,0,0,0,.677,3.706,9.263,9.263,0,0,0,1.853,2.964,8.612,8.612,0,0,0,2.772,1.982,8.114,8.114,0,0,0,3.4.725,8.624,8.624,0,0,0,3.4-.677,8.424,8.424,0,0,0,2.787-1.9,8.913,8.913,0,0,0,1.885-2.966A10.279,10.279,0,0,0,245.775,608.791Z" transform="translate(64.171 87.288)" fill="#fff"/>
    <path id="Path_168143" data-name="Path 168143" d="M264.265,608.791a10.254,10.254,0,0,0-.695-3.852,9.127,9.127,0,0,0-1.885-2.964,8.116,8.116,0,0,0-2.787-1.9,9.084,9.084,0,0,0-6.8,0,7.937,7.937,0,0,0-2.772,1.9,9.052,9.052,0,0,0-1.853,2.964,10.471,10.471,0,0,0-.677,3.852,9.982,9.982,0,0,0,.677,3.706,9.262,9.262,0,0,0,1.853,2.964,8.613,8.613,0,0,0,2.772,1.982,8.114,8.114,0,0,0,3.4.725,8.624,8.624,0,0,0,3.4-.677,8.424,8.424,0,0,0,2.787-1.9,8.913,8.913,0,0,0,1.885-2.966A10.279,10.279,0,0,0,264.265,608.791Z" transform="translate(85.562 87.288)" fill="#fff"/>
    <path id="Path_168144" data-name="Path 168144" d="M282.753,608.791a10.3,10.3,0,0,0-.692-3.852,9.166,9.166,0,0,0-1.887-2.964,8.115,8.115,0,0,0-2.787-1.9,9.084,9.084,0,0,0-6.8,0,7.956,7.956,0,0,0-2.772,1.9,9.052,9.052,0,0,0-1.853,2.964,10.472,10.472,0,0,0-.677,3.852,9.982,9.982,0,0,0,.677,3.706,9.263,9.263,0,0,0,1.853,2.964,8.635,8.635,0,0,0,2.772,1.982,8.121,8.121,0,0,0,3.4.725,8.624,8.624,0,0,0,3.4-.677,8.423,8.423,0,0,0,2.787-1.9,8.95,8.95,0,0,0,1.887-2.966A10.321,10.321,0,0,0,282.753,608.791Z" transform="translate(106.952 87.288)" fill="#fff"/>
    <path id="Path_168145" data-name="Path 168145" d="M301.241,608.791a10.3,10.3,0,0,0-.692-3.852,9.167,9.167,0,0,0-1.887-2.964,8.116,8.116,0,0,0-2.787-1.9,9.084,9.084,0,0,0-6.8,0,7.976,7.976,0,0,0-2.772,1.9,9.088,9.088,0,0,0-1.853,2.964,10.471,10.471,0,0,0-.677,3.852,9.982,9.982,0,0,0,.677,3.706,9.3,9.3,0,0,0,1.853,2.964,8.659,8.659,0,0,0,2.772,1.982,8.121,8.121,0,0,0,3.4.725,8.625,8.625,0,0,0,3.4-.677,8.424,8.424,0,0,0,2.787-1.9,8.95,8.95,0,0,0,1.887-2.966A10.322,10.322,0,0,0,301.241,608.791Z" transform="translate(128.342 87.288)" fill="#fff"/>
    <path id="Path_168146" data-name="Path 168146" d="M245.775,623.979a10.254,10.254,0,0,0-.692-3.852,9.127,9.127,0,0,0-1.885-2.964,8.152,8.152,0,0,0-2.787-1.9,9.086,9.086,0,0,0-6.8,0,7.97,7.97,0,0,0-2.772,1.9,9.052,9.052,0,0,0-1.853,2.964,10.427,10.427,0,0,0-.677,3.852,9.94,9.94,0,0,0,.677,3.706,9.261,9.261,0,0,0,1.853,2.964,8.613,8.613,0,0,0,2.772,1.982,8.111,8.111,0,0,0,3.4.725,8.623,8.623,0,0,0,3.4-.677,8.423,8.423,0,0,0,2.787-1.9,8.918,8.918,0,0,0,1.885-2.966A10.279,10.279,0,0,0,245.775,623.979Z" transform="translate(64.171 104.861)" fill="#fff"/>
    <path id="Path_168147" data-name="Path 168147" d="M264.265,623.979a10.253,10.253,0,0,0-.695-3.852,9.127,9.127,0,0,0-1.885-2.964,8.151,8.151,0,0,0-2.787-1.9,9.085,9.085,0,0,0-6.8,0,7.971,7.971,0,0,0-2.772,1.9,9.052,9.052,0,0,0-1.853,2.964,10.471,10.471,0,0,0-.677,3.852,9.982,9.982,0,0,0,.677,3.706,9.261,9.261,0,0,0,1.853,2.964,8.614,8.614,0,0,0,2.772,1.982,8.111,8.111,0,0,0,3.4.725,8.623,8.623,0,0,0,3.4-.677,8.422,8.422,0,0,0,2.787-1.9,8.917,8.917,0,0,0,1.885-2.966A10.279,10.279,0,0,0,264.265,623.979Z" transform="translate(85.562 104.861)" fill="#fff"/>
    <path id="Path_168148" data-name="Path 168148" d="M282.753,623.979a10.3,10.3,0,0,0-.692-3.852,9.166,9.166,0,0,0-1.887-2.964,8.15,8.15,0,0,0-2.787-1.9,9.086,9.086,0,0,0-6.8,0,7.99,7.99,0,0,0-2.772,1.9,9.052,9.052,0,0,0-1.853,2.964,10.471,10.471,0,0,0-.677,3.852,9.982,9.982,0,0,0,.677,3.706,9.261,9.261,0,0,0,1.853,2.964,8.636,8.636,0,0,0,2.772,1.982,8.118,8.118,0,0,0,3.4.725,8.623,8.623,0,0,0,3.4-.677,8.421,8.421,0,0,0,2.787-1.9,8.955,8.955,0,0,0,1.887-2.966A10.322,10.322,0,0,0,282.753,623.979Z" transform="translate(106.952 104.861)" fill="#fff"/>
    <path id="Path_168149" data-name="Path 168149" d="M301.241,623.979a10.3,10.3,0,0,0-.692-3.852,9.167,9.167,0,0,0-1.887-2.964,8.151,8.151,0,0,0-2.787-1.9,9.086,9.086,0,0,0-6.8,0,8.01,8.01,0,0,0-2.772,1.9,9.088,9.088,0,0,0-1.853,2.964,10.471,10.471,0,0,0-.677,3.852,9.982,9.982,0,0,0,.677,3.706,9.3,9.3,0,0,0,1.853,2.964,8.66,8.66,0,0,0,2.772,1.982,8.119,8.119,0,0,0,3.4.725,8.624,8.624,0,0,0,3.4-.677,8.422,8.422,0,0,0,2.787-1.9,8.955,8.955,0,0,0,1.887-2.966A10.322,10.322,0,0,0,301.241,623.979Z" transform="translate(128.342 104.861)" fill="#fff"/>
    <path id="Path_168150" data-name="Path 168150" d="M245.775,638.06a10.234,10.234,0,0,0-.692-3.85,9.116,9.116,0,0,0-1.885-2.966,8.148,8.148,0,0,0-2.787-1.9,9.086,9.086,0,0,0-6.8,0,7.967,7.967,0,0,0-2.772,1.9,9.041,9.041,0,0,0-1.853,2.966,10.407,10.407,0,0,0-.677,3.85,9.932,9.932,0,0,0,.677,3.706,9.261,9.261,0,0,0,1.853,2.964,8.612,8.612,0,0,0,2.772,1.982,8.114,8.114,0,0,0,3.4.725,8.625,8.625,0,0,0,3.4-.675,8.428,8.428,0,0,0,2.787-1.9,8.915,8.915,0,0,0,1.885-2.966A10.264,10.264,0,0,0,245.775,638.06Z" transform="translate(64.171 121.151)" fill="#fff"/>
    <path id="Path_168151" data-name="Path 168151" d="M264.265,638.06a10.233,10.233,0,0,0-.695-3.85,9.115,9.115,0,0,0-1.885-2.966,8.148,8.148,0,0,0-2.787-1.9,9.085,9.085,0,0,0-6.8,0,7.968,7.968,0,0,0-2.772,1.9,9.041,9.041,0,0,0-1.853,2.966,10.45,10.45,0,0,0-.677,3.85,9.974,9.974,0,0,0,.677,3.706,9.26,9.26,0,0,0,1.853,2.964,8.613,8.613,0,0,0,2.772,1.982,8.114,8.114,0,0,0,3.4.725,8.625,8.625,0,0,0,3.4-.675,8.428,8.428,0,0,0,2.787-1.9,8.915,8.915,0,0,0,1.885-2.966A10.264,10.264,0,0,0,264.265,638.06Z" transform="translate(85.562 121.151)" fill="#fff"/>
    <path id="Path_168152" data-name="Path 168152" d="M282.753,638.06a10.276,10.276,0,0,0-.692-3.85,9.154,9.154,0,0,0-1.887-2.966,8.147,8.147,0,0,0-2.787-1.9,9.086,9.086,0,0,0-6.8,0,7.987,7.987,0,0,0-2.772,1.9,9.041,9.041,0,0,0-1.853,2.966,10.451,10.451,0,0,0-.677,3.85,9.974,9.974,0,0,0,.677,3.706,9.261,9.261,0,0,0,1.853,2.964,8.635,8.635,0,0,0,2.772,1.982,8.121,8.121,0,0,0,3.4.725,8.625,8.625,0,0,0,3.4-.675,8.427,8.427,0,0,0,2.787-1.9,8.952,8.952,0,0,0,1.887-2.966A10.306,10.306,0,0,0,282.753,638.06Z" transform="translate(106.952 121.151)" fill="#fff"/>
    <path id="Path_168153" data-name="Path 168153" d="M301.241,638.06a10.276,10.276,0,0,0-.692-3.85,9.155,9.155,0,0,0-1.887-2.966,8.147,8.147,0,0,0-2.787-1.9,9.086,9.086,0,0,0-6.8,0,8.007,8.007,0,0,0-2.772,1.9,9.076,9.076,0,0,0-1.853,2.966,10.45,10.45,0,0,0-.677,3.85,9.974,9.974,0,0,0,.677,3.706,9.3,9.3,0,0,0,1.853,2.964,8.659,8.659,0,0,0,2.772,1.982,8.121,8.121,0,0,0,3.4.725,8.625,8.625,0,0,0,3.4-.675,8.427,8.427,0,0,0,2.787-1.9,8.953,8.953,0,0,0,1.887-2.966A10.307,10.307,0,0,0,301.241,638.06Z" transform="translate(128.342 121.151)" fill="#fff"/>
    <path id="Path_168154" data-name="Path 168154" d="M245.775,653.855a10.252,10.252,0,0,0-.692-3.85,9.138,9.138,0,0,0-1.885-2.966,8.145,8.145,0,0,0-2.787-1.9,9.083,9.083,0,0,0-6.8,0,7.963,7.963,0,0,0-2.772,1.9,9.062,9.062,0,0,0-1.853,2.966,10.425,10.425,0,0,0-.677,3.85,9.941,9.941,0,0,0,.677,3.708,9.26,9.26,0,0,0,1.853,2.964,8.648,8.648,0,0,0,2.772,1.982,8.111,8.111,0,0,0,3.4.725,8.627,8.627,0,0,0,3.4-.677,8.455,8.455,0,0,0,2.787-1.9,8.914,8.914,0,0,0,1.885-2.966A10.284,10.284,0,0,0,245.775,653.855Z" transform="translate(64.171 139.429)" fill="#fff"/>
    <path id="Path_168155" data-name="Path 168155" d="M264.265,653.855a10.251,10.251,0,0,0-.695-3.85,9.138,9.138,0,0,0-1.885-2.966,8.144,8.144,0,0,0-2.787-1.9,9.083,9.083,0,0,0-6.8,0,7.964,7.964,0,0,0-2.772,1.9,9.062,9.062,0,0,0-1.853,2.966,10.469,10.469,0,0,0-.677,3.85,9.983,9.983,0,0,0,.677,3.708,9.259,9.259,0,0,0,1.853,2.964,8.649,8.649,0,0,0,2.772,1.982,8.111,8.111,0,0,0,3.4.725,8.626,8.626,0,0,0,3.4-.677,8.455,8.455,0,0,0,2.787-1.9,8.914,8.914,0,0,0,1.885-2.966A10.283,10.283,0,0,0,264.265,653.855Z" transform="translate(85.562 139.429)" fill="#fff"/>
    <path id="Path_168156" data-name="Path 168156" d="M282.753,653.855a10.293,10.293,0,0,0-.692-3.85,9.177,9.177,0,0,0-1.887-2.966,8.143,8.143,0,0,0-2.787-1.9,9.083,9.083,0,0,0-6.8,0,7.983,7.983,0,0,0-2.772,1.9,9.062,9.062,0,0,0-1.853,2.966,10.469,10.469,0,0,0-.677,3.85,9.984,9.984,0,0,0,.677,3.708,9.26,9.26,0,0,0,1.853,2.964,8.671,8.671,0,0,0,2.772,1.982,8.118,8.118,0,0,0,3.4.725,8.627,8.627,0,0,0,3.4-.677,8.454,8.454,0,0,0,2.787-1.9,8.951,8.951,0,0,0,1.887-2.966A10.326,10.326,0,0,0,282.753,653.855Z" transform="translate(106.952 139.429)" fill="#fff"/>
    <path id="Path_168157" data-name="Path 168157" d="M301.241,653.855a10.294,10.294,0,0,0-.692-3.85,9.177,9.177,0,0,0-1.887-2.966,8.144,8.144,0,0,0-2.787-1.9,9.083,9.083,0,0,0-6.8,0,8,8,0,0,0-2.772,1.9,9.1,9.1,0,0,0-1.853,2.966,10.469,10.469,0,0,0-.677,3.85,9.983,9.983,0,0,0,.677,3.708,9.3,9.3,0,0,0,1.853,2.964,8.7,8.7,0,0,0,2.772,1.982,8.119,8.119,0,0,0,3.4.725,8.627,8.627,0,0,0,3.4-.677,8.454,8.454,0,0,0,2.787-1.9,8.951,8.951,0,0,0,1.887-2.966A10.327,10.327,0,0,0,301.241,653.855Z" transform="translate(128.342 139.429)" fill="#fff"/>
    <path id="Path_168160" data-name="Path 168160" d="M227.287,593.6a10.252,10.252,0,0,0-.692-3.85,9.2,9.2,0,0,0-1.885-2.966,8.182,8.182,0,0,0-2.787-1.9,9.091,9.091,0,0,0-6.8,0,7.971,7.971,0,0,0-2.77,1.9,9.092,9.092,0,0,0-1.855,2.966,10.468,10.468,0,0,0-.675,3.85,9.984,9.984,0,0,0,.675,3.708,9.266,9.266,0,0,0,1.855,2.964,8.628,8.628,0,0,0,2.77,1.982,8.128,8.128,0,0,0,3.4.725,8.631,8.631,0,0,0,3.4-.677,8.467,8.467,0,0,0,2.787-1.9,8.95,8.95,0,0,0,1.885-2.966A10.284,10.284,0,0,0,227.287,593.6Z" transform="translate(42.781 69.715)" fill="#fff"/>
    <path id="Path_168161" data-name="Path 168161" d="M245.775,593.6a10.251,10.251,0,0,0-.692-3.85,9.163,9.163,0,0,0-1.885-2.966,8.141,8.141,0,0,0-2.787-1.9,9.086,9.086,0,0,0-6.8,0,7.959,7.959,0,0,0-2.772,1.9,9.087,9.087,0,0,0-1.853,2.966,10.425,10.425,0,0,0-.677,3.85,9.943,9.943,0,0,0,.677,3.708,9.261,9.261,0,0,0,1.853,2.964,8.613,8.613,0,0,0,2.772,1.982,8.111,8.111,0,0,0,3.4.725,8.623,8.623,0,0,0,3.4-.677,8.423,8.423,0,0,0,2.787-1.9,8.916,8.916,0,0,0,1.885-2.966A10.284,10.284,0,0,0,245.775,593.6Z" transform="translate(64.171 69.715)" fill="#fff"/>
    <path id="Path_168164" data-name="Path 168164" d="M227.287,608.791a10.255,10.255,0,0,0-.692-3.852,9.163,9.163,0,0,0-1.885-2.964,8.158,8.158,0,0,0-2.787-1.9,9.09,9.09,0,0,0-6.8,0,7.948,7.948,0,0,0-2.77,1.9,9.057,9.057,0,0,0-1.855,2.964,10.471,10.471,0,0,0-.675,3.852,9.981,9.981,0,0,0,.675,3.706,9.268,9.268,0,0,0,1.855,2.964,8.627,8.627,0,0,0,2.77,1.982,8.131,8.131,0,0,0,3.4.725,8.632,8.632,0,0,0,3.4-.677,8.469,8.469,0,0,0,2.787-1.9,8.947,8.947,0,0,0,1.885-2.966A10.28,10.28,0,0,0,227.287,608.791Z" transform="translate(42.781 87.288)" fill="#fff"/>
    <path id="Path_168165" data-name="Path 168165" d="M245.775,608.791a10.254,10.254,0,0,0-.692-3.852,9.127,9.127,0,0,0-1.885-2.964,8.117,8.117,0,0,0-2.787-1.9,9.084,9.084,0,0,0-6.8,0,7.936,7.936,0,0,0-2.772,1.9,9.052,9.052,0,0,0-1.853,2.964,10.428,10.428,0,0,0-.677,3.852,9.94,9.94,0,0,0,.677,3.706,9.263,9.263,0,0,0,1.853,2.964,8.612,8.612,0,0,0,2.772,1.982,8.114,8.114,0,0,0,3.4.725,8.624,8.624,0,0,0,3.4-.677,8.424,8.424,0,0,0,2.787-1.9,8.913,8.913,0,0,0,1.885-2.966A10.279,10.279,0,0,0,245.775,608.791Z" transform="translate(64.171 87.288)" fill="#fff"/>
    <path id="Path_168168" data-name="Path 168168" d="M227.287,623.979a10.254,10.254,0,0,0-.692-3.852,9.163,9.163,0,0,0-1.885-2.964,8.193,8.193,0,0,0-2.787-1.9,9.091,9.091,0,0,0-6.8,0,7.982,7.982,0,0,0-2.77,1.9,9.057,9.057,0,0,0-1.855,2.964,10.471,10.471,0,0,0-.675,3.852,9.981,9.981,0,0,0,.675,3.706,9.266,9.266,0,0,0,1.855,2.964,8.628,8.628,0,0,0,2.77,1.982,8.128,8.128,0,0,0,3.4.725,8.631,8.631,0,0,0,3.4-.677,8.467,8.467,0,0,0,2.787-1.9,8.952,8.952,0,0,0,1.885-2.966A10.28,10.28,0,0,0,227.287,623.979Z" transform="translate(42.781 104.861)" fill="#fff"/>
    <path id="Path_168169" data-name="Path 168169" d="M245.775,623.979a10.254,10.254,0,0,0-.692-3.852,9.127,9.127,0,0,0-1.885-2.964,8.152,8.152,0,0,0-2.787-1.9,9.086,9.086,0,0,0-6.8,0,7.97,7.97,0,0,0-2.772,1.9,9.052,9.052,0,0,0-1.853,2.964,10.427,10.427,0,0,0-.677,3.852,9.94,9.94,0,0,0,.677,3.706,9.261,9.261,0,0,0,1.853,2.964,8.613,8.613,0,0,0,2.772,1.982,8.111,8.111,0,0,0,3.4.725,8.623,8.623,0,0,0,3.4-.677,8.423,8.423,0,0,0,2.787-1.9,8.918,8.918,0,0,0,1.885-2.966A10.279,10.279,0,0,0,245.775,623.979Z" transform="translate(64.171 104.861)" fill="#fff"/>
    <path id="Path_168172" data-name="Path 168172" d="M227.287,638.06a10.235,10.235,0,0,0-.692-3.85,9.151,9.151,0,0,0-1.885-2.966,8.189,8.189,0,0,0-2.787-1.9,9.091,9.091,0,0,0-6.8,0,7.979,7.979,0,0,0-2.77,1.9,9.046,9.046,0,0,0-1.855,2.966,10.451,10.451,0,0,0-.675,3.85,9.973,9.973,0,0,0,.675,3.706,9.266,9.266,0,0,0,1.855,2.964,8.627,8.627,0,0,0,2.77,1.982,8.131,8.131,0,0,0,3.4.725,8.633,8.633,0,0,0,3.4-.675,8.472,8.472,0,0,0,2.787-1.9,8.949,8.949,0,0,0,1.885-2.966A10.264,10.264,0,0,0,227.287,638.06Z" transform="translate(42.781 121.151)" fill="#fff"/>
    <path id="Path_168173" data-name="Path 168173" d="M245.775,638.06a10.234,10.234,0,0,0-.692-3.85,9.116,9.116,0,0,0-1.885-2.966,8.148,8.148,0,0,0-2.787-1.9,9.086,9.086,0,0,0-6.8,0,7.967,7.967,0,0,0-2.772,1.9,9.041,9.041,0,0,0-1.853,2.966,10.407,10.407,0,0,0-.677,3.85,9.932,9.932,0,0,0,.677,3.706,9.261,9.261,0,0,0,1.853,2.964,8.612,8.612,0,0,0,2.772,1.982,8.114,8.114,0,0,0,3.4.725,8.625,8.625,0,0,0,3.4-.675,8.428,8.428,0,0,0,2.787-1.9,8.915,8.915,0,0,0,1.885-2.966A10.264,10.264,0,0,0,245.775,638.06Z" transform="translate(64.171 121.151)" fill="#fff"/>
    <path id="Path_168176" data-name="Path 168176" d="M227.287,653.855a10.252,10.252,0,0,0-.692-3.85,9.174,9.174,0,0,0-1.885-2.966,8.186,8.186,0,0,0-2.787-1.9,9.089,9.089,0,0,0-6.8,0,7.975,7.975,0,0,0-2.77,1.9,9.067,9.067,0,0,0-1.855,2.966,10.469,10.469,0,0,0-.675,3.85,9.983,9.983,0,0,0,.675,3.708,9.265,9.265,0,0,0,1.855,2.964,8.663,8.663,0,0,0,2.77,1.982,8.128,8.128,0,0,0,3.4.725,8.635,8.635,0,0,0,3.4-.677,8.5,8.5,0,0,0,2.787-1.9,8.948,8.948,0,0,0,1.885-2.966A10.284,10.284,0,0,0,227.287,653.855Z" transform="translate(42.781 139.429)" fill="#fff"/>
    <path id="Path_168177" data-name="Path 168177" d="M245.775,653.855a10.252,10.252,0,0,0-.692-3.85,9.138,9.138,0,0,0-1.885-2.966,8.145,8.145,0,0,0-2.787-1.9,9.083,9.083,0,0,0-6.8,0,7.963,7.963,0,0,0-2.772,1.9,9.062,9.062,0,0,0-1.853,2.966,10.425,10.425,0,0,0-.677,3.85,9.941,9.941,0,0,0,.677,3.708,9.26,9.26,0,0,0,1.853,2.964,8.648,8.648,0,0,0,2.772,1.982,8.111,8.111,0,0,0,3.4.725,8.627,8.627,0,0,0,3.4-.677,8.455,8.455,0,0,0,2.787-1.9,8.914,8.914,0,0,0,1.885-2.966A10.284,10.284,0,0,0,245.775,653.855Z" transform="translate(64.171 139.429)" fill="#fff"/>
  </g>
</svg>
