<svg xmlns="http://www.w3.org/2000/svg" width="39.827" height="28.479" viewBox="0 0 39.827 28.479">
  <g id="Group_43228" data-name="Group 43228" transform="translate(-14.631 -19.976)">
    <path id="Icon_awesome-wifi" data-name="Icon awesome-wifi" d="M37.526,9.513A27.481,27.481,0,0,0,.3,9.513.939.939,0,0,0,.28,10.871L2.3,12.879a.96.96,0,0,0,1.324.022C7.664,9.2,18.169,6.987,18.169,6.987S29.61,8.7,34.2,12.9a.96.96,0,0,0,1.324-.022l2.024-2.008a.94.94,0,0,0-.021-1.358ZM18.913,21.163s-3.783,1.693-3.783,3.783a3.783,3.783,0,0,0,7.565,0C22.7,22.857,18.913,21.163,18.913,21.163Zm11.979-4.941a18.145,18.145,0,0,0-23.957,0A.934.934,0,0,0,6.9,17.591L8.937,19.6a.965.965,0,0,0,1.3.047,13.312,13.312,0,0,1,17.346,0,.964.964,0,0,0,1.3-.047l2.036-2.009A.934.934,0,0,0,30.892,16.223Z" transform="translate(15.631 18.726)" fill="none" stroke="#553d84" stroke-width="2"/>
  </g>
</svg>
