<svg xmlns="http://www.w3.org/2000/svg" width="31.278" height="40.41" viewBox="0 0 31.278 40.41">
  <g id="Group_43227" data-name="Group 43227" transform="translate(-21.184 -14.201)">
    <g id="svgexport-7_6_" data-name="svgexport-7 (6)" transform="translate(21.184 14.201)">
      <g id="Group_43210" data-name="Group 43210" transform="translate(0)">
        <g id="Group_43209" data-name="Group 43209">
          <path id="Path_168385" data-name="Path 168385" d="M101.344,0H84.785a.972.972,0,0,0-.651.246l-9.2,8.419a.813.813,0,0,0-.269.6V36.2a4.424,4.424,0,0,0,4.6,4.209h22.079a4.424,4.424,0,0,0,4.6-4.209V4.209A4.424,4.424,0,0,0,101.344,0Zm2.76,36.2a2.654,2.654,0,0,1-2.76,2.526H79.266a2.654,2.654,0,0,1-2.76-2.526V9.609l8.66-7.925h16.178a2.654,2.654,0,0,1,2.76,2.526Z" transform="translate(-74.666)" fill="#593a89"/>
        </g>
      </g>
      <g id="Group_43212" data-name="Group 43212" transform="translate(7.288 16.117)">
        <g id="Group_43211" data-name="Group 43211" transform="translate(0)">
          <path id="Path_168386" data-name="Path 168386" d="M153.091,170.667H140.944a2.28,2.28,0,0,0-2.277,2.277v15.183a2.28,2.28,0,0,0,2.277,2.277h12.147a2.28,2.28,0,0,0,2.277-2.277V172.945A2.28,2.28,0,0,0,153.091,170.667Zm.759,17.461a.759.759,0,0,1-.759.759H140.944a.759.759,0,0,1-.759-.759V172.945a.76.76,0,0,1,.759-.759h12.147a.759.759,0,0,1,.759.759v15.183Z" transform="translate(-138.667 -170.667)" fill="#593a89"/>
        </g>
      </g>
      <g id="Group_43214" data-name="Group 43214" transform="translate(7.288 23.673)">
        <g id="Group_43213" data-name="Group 43213" transform="translate(0)">
          <path id="Path_168387" data-name="Path 168387" d="M154.608,298.667H139.425a.759.759,0,1,0,0,1.518h15.183a.759.759,0,0,0,0-1.518Z" transform="translate(-138.666 -298.667)" fill="#593a89"/>
        </g>
      </g>
      <g id="Group_43216" data-name="Group 43216" transform="translate(11.16 13.735)">
        <g id="Group_43215" data-name="Group 43215" transform="translate(0)">
          <path id="Path_168388" data-name="Path 168388" d="M203.425,170.667a.759.759,0,0,0-.759.759v4.555a.759.759,0,1,0,1.518,0v-4.555A.759.759,0,0,0,203.425,170.667Z" transform="translate(-202.666 -170.667)" fill="#593a89"/>
        </g>
      </g>
      <g id="Group_43218" data-name="Group 43218" transform="translate(14.88 18.885)">
        <g id="Group_43217" data-name="Group 43217">
          <path id="Path_168389" data-name="Path 168389" d="M246.092,234.667a.759.759,0,0,0-.759.759v4.555a.759.759,0,0,0,1.518,0v-4.555A.76.76,0,0,0,246.092,234.667Z" transform="translate(-245.333 -234.667)" fill="#593a89"/>
        </g>
      </g>
      <g id="Group_43220" data-name="Group 43220" transform="translate(18.6 13.735)">
        <g id="Group_43219" data-name="Group 43219">
          <path id="Path_168390" data-name="Path 168390" d="M288.759,170.667a.759.759,0,0,0-.759.759v4.555a.759.759,0,0,0,1.518,0v-4.555A.76.76,0,0,0,288.759,170.667Z" transform="translate(-288 -170.667)" fill="#593a89"/>
        </g>
      </g>
      <g id="Group_43222" data-name="Group 43222" transform="translate(14.88 29.781)">
        <g id="Group_43221" data-name="Group 43221">
          <path id="Path_168391" data-name="Path 168391" d="M246.092,362.667a.759.759,0,0,0-.759.759v4.555a.759.759,0,0,0,1.518,0v-4.555A.76.76,0,0,0,246.092,362.667Z" transform="translate(-245.333 -362.667)" fill="#593a89"/>
        </g>
      </g>
      <g id="Group_43224" data-name="Group 43224" transform="translate(11.16 24.035)">
        <g id="Group_43223" data-name="Group 43223" transform="translate(0)">
          <path id="Path_168392" data-name="Path 168392" d="M203.425,298.667a.759.759,0,0,0-.759.759v4.555a.759.759,0,0,0,1.518,0v-4.555A.759.759,0,0,0,203.425,298.667Z" transform="translate(-202.666 -298.667)" fill="#593a89"/>
        </g>
      </g>
      <g id="Group_43226" data-name="Group 43226" transform="translate(18.6 24.035)">
        <g id="Group_43225" data-name="Group 43225">
          <path id="Path_168393" data-name="Path 168393" d="M288.759,298.667a.759.759,0,0,0-.759.759v4.555a.759.759,0,0,0,1.518,0v-4.555A.76.76,0,0,0,288.759,298.667Z" transform="translate(-288 -298.667)" fill="#593a89"/>
        </g>
      </g>
    </g>
  </g>
</svg>
