<svg xmlns="http://www.w3.org/2000/svg" width="64" height="64" viewBox="0 0 64 64">
  <g id="Group_42849" data-name="Group 42849" transform="translate(0.072 0.429)">
    <g id="Rectangle_6263" data-name="Rectangle 6263" transform="translate(-0.072 -0.429)" fill="#cc2229" stroke="#eee" stroke-width="1">
      <rect width="64" height="64" rx="16" stroke="none"/>
      <rect x="0.5" y="0.5" width="63" height="63" rx="15.5" fill="none"/>
    </g>
    <g id="virgin-logo-vector" transform="translate(2.836 2.6)">
      <path id="Path_168033" data-name="Path 168033" d="M29.653,0A29.653,29.653,0,1,1,0,29.653,29.71,29.71,0,0,1,29.653,0Z" fill="#cc2229" fill-rule="evenodd"/>
      <path id="Path_168034" data-name="Path 168034" d="M18.168,25.24c-1.421.66-1.606,3.1-1.957,4.5L15.9,30.92a6.413,6.413,0,0,0-.305,1.1c-.127.855-.107,2.5.984,2.5l.3-.033c.318-.25.481-.276.642-.7a4.735,4.735,0,0,0,.156-1.309q.07-.558.139-1.116c.112-.742.255-1.475.388-2.206.107-.6.322-1.172.421-1.777s.47-1.988-.457-2.136Zm4.425-3.289a1.942,1.942,0,0,0-.6.228,2.266,2.266,0,0,0-.514.68c-.212.34-.42.683-.612,1.03a.943.943,0,0,1-.243.309c-.182.126-.411.182-.536.391a3.668,3.668,0,0,0-.385,1.275,21.14,21.14,0,0,0-.313,2.207,7.3,7.3,0,0,0,.188,2.707.764.764,0,0,0,.633.22,1.5,1.5,0,0,1,.462-.033,1.343,1.343,0,0,0,.539-.441,2.536,2.536,0,0,0,.266-.65,20.642,20.642,0,0,0,.339-2.266q.057-.541.114-1.083c.028-.131.084-.358.218-.419.179-.084.465.058.672.058.085-.038.171-.076.256-.115a1.041,1.041,0,0,0,.354-.357c.076-.181.154-.361.23-.542a2.777,2.777,0,0,0-.316-2.634c-.284-.391-.175-.47-.755-.562ZM18.3,19.484a.959.959,0,0,0-.4.313,1.659,1.659,0,0,0-.2.739c-.053.663.042,1.3.71,1.545.423.152.769-.286.932-.579.014-.028.07-.077.013-.077.15-.56.033-1.613-.545-1.877A1.33,1.33,0,0,0,18.3,19.484Zm14.132-.954a1.107,1.107,0,0,0-.442.341,5.452,5.452,0,0,0-.609,1.653c-.17.623-.345,1.26-.483,1.892-.17.771-.294,1.534-.509,2.266-.154.519-.321,1.718.4,1.89a1.175,1.175,0,0,0,1.2-.524,5.309,5.309,0,0,0,.431-1.793c.1-.593.348-1.148.428-1.738.055-.453.111-.905.165-1.359.115-.562.54-1.01.435-1.672a.968.968,0,0,0-1.007-.957Zm7.693-3.783a2.68,2.68,0,0,0-.783.339,10.216,10.216,0,0,0-1.259,1.407l-.517.637a.709.709,0,0,1-.379.215.4.4,0,0,1-.1-.2,1.728,1.728,0,0,0-.153-.543c-.352-.525-1.082.027-1.279.422a10.712,10.712,0,0,0-.372,1.128l-.818,2.684q-.068.519-.137,1.036a9.135,9.135,0,0,0-.309,1.1c-.079.484-.257,1.693.171,2.025a.765.765,0,0,0,.488.144c.682.01,1.024-.538,1.213-1.086.45-1.324.834-2.663,1.4-3.924a4.51,4.51,0,0,1,.935-1.478,1.039,1.039,0,0,1,.419-.325c.287-.077.408.15.4.4a6.872,6.872,0,0,1-.172,1.087c-.086.5-.172,1-.259,1.5a5.506,5.506,0,0,0-.2,1.225,1,1,0,0,0,.208.575c.142.178.461.3.446.574-.027.452-1.631,1.335-2.017,1.48a7.935,7.935,0,0,0-1.963,1.264l-.909.644a12.887,12.887,0,0,1-1.477.875l-1.015.661-.83.492-.8.55c-.249.166-.451.42-.712.565-.036.018-.285.093-.285.02h-.033a9.923,9.923,0,0,1,.114-1.054l.022-1.018c.025-.329.052-.657.078-.986a17,17,0,0,1,.432-2.274c.141-.633.255-1.288.4-1.907.091-.392.51-2.038-.16-2.151a1.328,1.328,0,0,0-1.177.545,7.077,7.077,0,0,0-.781,1.867,20.687,20.687,0,0,1-1.116,2.7c-.118.228-.682,1.42-.951,1.42A1.95,1.95,0,0,1,25.93,26.1c.008-.031.054-.1,0-.1.142-.342.216-.82.337-1.181a9.332,9.332,0,0,1,.639-1.371,2.8,2.8,0,0,1,.463-.65l.386-.309a1.964,1.964,0,0,0,.594-1.036c.127-.572-.027-1.752-.7-1.817a1.032,1.032,0,0,0-.462.108c-.864.349-1.174,1.394-1.528,2.136A20.02,20.02,0,0,0,24,26.594a23.485,23.485,0,0,0-.237,2.457,3.05,3.05,0,0,0,.5,2.482c.648.606,1.867-.514,2.277-1.006.087-.1.549-.812.642-.812v-.033h.033v.066a3.831,3.831,0,0,1,.033,1.217,3.743,3.743,0,0,1-.354,1.625,3.139,3.139,0,0,1-.646.632c-.457.412-.957.754-1.387,1.183a14.662,14.662,0,0,1-1.086,1.219,7.849,7.849,0,0,1-1.114.57,3.66,3.66,0,0,0-.583.5L21.689,37c-.467.4-.6,1.027-1.087,1.41l-.508.353c-.684.53-1.355,1.087-2.038,1.617-.546.421-1.086.836-1.6,1.3q-.643.546-1.284,1.091-.182.163-.366.326l-.961.884a11.559,11.559,0,0,1-1.191,1.148,4.271,4.271,0,0,0-1.012.833,2.31,2.31,0,0,0-.254.4c-.154.349-.33,1.307-.043,1.624.705.78,2.559-1.476,3.072-1.913.807-.689,1.507-1.509,2.283-2.234q2.124-1.994,4.153-4.087a5.263,5.263,0,0,1,.978-.673,4.575,4.575,0,0,0,.88-.866l.378-.378,1.359-1.21c.233-.167.484-.267.709-.453.076-.1.153-.2.228-.3a2.339,2.339,0,0,1,.764-.671.323.323,0,0,1,.233.012.367.367,0,0,1,.122.281c-.023.252-.046.5-.07.756q-.074,1.184-.15,2.369c.02.765-.043,1.6-.054,2.368l0,1.151c-.011.711.022,1.488.056,2.2s.033,1.413.076,2.1q.046.609.09,1.218l-.027,1.086c0,.685.082,2.158.547,2.54a.771.771,0,0,0,.576.16,1.218,1.218,0,0,0,.572-.166c1.063-.655.4-2.808.322-3.851l-.288-2.271-.235-2.63c-.056-.58-.056-1.182-.056-1.774a29.548,29.548,0,0,1,.325-4.538,9.466,9.466,0,0,1,.538-2.257,4.356,4.356,0,0,1,1.316-1.537l.706-.454a8.064,8.064,0,0,0,1.3-1.068,9.173,9.173,0,0,1,.726-.756,10.058,10.058,0,0,1,1.161-.7c.244-.149.438-.41.672-.571.627-.435,1.344-.765,2-1.137l.856-.58q2.048-1.236,4.181-2.324a20.7,20.7,0,0,1,2.925-1.307q.627-.262,1.253-.526a3.393,3.393,0,0,1,.712-.322,2.779,2.779,0,0,1,1.244.186,2.625,2.625,0,0,0,.569.025l.416-.154a1.434,1.434,0,0,0,.507-.4,2.2,2.2,0,0,0,.309-.59c.289-.752.673-1.66-.165-2.286a1.123,1.123,0,0,0-.606-.247,3.7,3.7,0,0,0-1.792.6c-.2.07-.4.14-.6.208-.266.117-.493.347-.755.475s-.569.2-.83.343l-.975.5a4.385,4.385,0,0,1-1.517.576,1.409,1.409,0,0,1-.806-.258A2.1,2.1,0,0,1,40.77,20.6,5.369,5.369,0,0,1,40.9,18.69l.094-1.048c.032-.408.114-.84.128-1.283a2.3,2.3,0,0,0-.166-1.184.9.9,0,0,0-.829-.428ZM34.71,12.281c-.143.132-.305.213-.4.394a1.865,1.865,0,0,0-.1.79c-.006.142-.01.284-.017.425a.741.741,0,0,0,.973.709c.394-.074.442-.546.509-.868a2.147,2.147,0,0,0,.1-.821.761.761,0,0,0-.247-.43,1.237,1.237,0,0,0-.825-.2ZM23.748,1.557a1.547,1.547,0,0,0-.618.37,9.115,9.115,0,0,0-.988,1.624,25.138,25.138,0,0,0-1.572,3c-.109.242-.217.483-.326.725l-.271.7c-.149.348-.223.73-.37,1.068s-.407.589-.572.9l-.647,1.289-.37.835c-.179.338-.391.663-.551,1.01-.319.688-.544,1.432-.8,2.151l-.579,1.4-.641,1.523c-.6,1.265-1.046,2.63-1.554,3.947l-.374,1.03-.95,2.731c-.666,1.917-1.068,3.938-1.71,5.859-.149.442-.29.89-.4,1.346a2.83,2.83,0,0,1-.4,1.186c-.055.063-.163.122-.241.059a19.872,19.872,0,0,1-.271-3.122C9.394,29.38,9.45,27.417,9.48,25.6c.024-1.527-.005-3.107-.029-4.638l-.033-1.151c0-.765.025-2.941-.8-3.077-.883-.147-1.505,1.91-1.733,2.471a15.426,15.426,0,0,0-.49,1.978,12.859,12.859,0,0,1-.529,1.544c-.638,1.585-1.658,2.977-2.256,4.584a5.913,5.913,0,0,0-.325,1.054c-.079.46-.048,1.444.353,1.7a.845.845,0,0,0,.98-.1,4.724,4.724,0,0,0,.525-1.128c.138-.29.276-.579.414-.869.179-.382.424-.741.6-1.134.213-.485.288-1.042.494-1.53.089-.158.178-.317.266-.476l.374-.794c.019-.032.063-.083.11-.083v.033a2.443,2.443,0,0,1,.171.755c.053.406.108.814.129,1.25.067,1.444.1,2.919.1,4.408a30.072,30.072,0,0,0,.243,3.945l.211,1.383c.124,1.113.124,2.263.232,3.388q.131,1.266.263,2.533c.056.513.007,1.384.3,1.742.213.258.523.232.859.232.211-.147.361-.138.536-.379a2.938,2.938,0,0,0,.258-1.627c.021-.684.039-1.4.1-2.072a30.445,30.445,0,0,1,.564-3.715c.1-.473.291-.919.4-1.389.048-.284.1-.567.147-.851a6.9,6.9,0,0,1,.05-.918,8.338,8.338,0,0,1,.574-1.585,2.5,2.5,0,0,0,.088-.583c.044-.209.09-.416.134-.625q.323-1.154.646-2.308c.011-.05.143-.395.1-.395a7.274,7.274,0,0,0,.246-.816l.591-1.976,1.486-4.7q.369-1.065.736-2.131c.618-1.377,1.331-2.747,1.938-4.133a16.731,16.731,0,0,0,.661-1.84,6.949,6.949,0,0,1,.322-1.109A6.136,6.136,0,0,1,20.2,9.6a11.9,11.9,0,0,0,.993-1.476c.473-.92.712-2.081,1.733-2.588a1.2,1.2,0,0,1,.337-.166c.378-.064.529.71.708.934a.69.69,0,0,0,.272.187,1.489,1.489,0,0,0,.564,0,1.088,1.088,0,0,0,.416-.466,6.259,6.259,0,0,0-.5-3.962,1.179,1.179,0,0,0-.972-.5Z" transform="translate(4.787 2.291)" fill="#fff" fill-rule="evenodd"/>
    </g>
  </g>
</svg>
