<svg xmlns="http://www.w3.org/2000/svg" width="22.642" height="31.759" viewBox="0 0 22.642 31.759">
  <g id="Group_43234" data-name="Group 43234" transform="translate(0.25 0.25)">
    <g id="Group_43233" data-name="Group 43233">
      <path id="Path_168396" data-name="Path 168396" d="M93.552,0H81.83a.656.656,0,0,0-.461.19L74.856,6.7a.656.656,0,0,0-.19.461V28a3.261,3.261,0,0,0,3.256,3.256h15.63A3.261,3.261,0,0,0,96.808,28V3.256A3.261,3.261,0,0,0,93.552,0Zm1.954,28a1.956,1.956,0,0,1-1.954,1.954H77.922A1.956,1.956,0,0,1,75.969,28V7.433L82.1,1.3H93.552a1.956,1.956,0,0,1,1.954,1.954Z" transform="translate(-74.666)" fill="#a093b9" stroke="#553d84" stroke-width="0.5"/>
    </g>
  </g>
</svg>
