<svg xmlns="http://www.w3.org/2000/svg" width="21.431" height="21.468" viewBox="0 0 21.431 21.468">
  <path id="Icon_feather-phone-call" data-name="Icon feather-phone-call" d="M15.138,5.2a4.626,4.626,0,0,1,3.654,3.654M15.138,1.5a8.326,8.326,0,0,1,7.355,7.346m-.925,7.383V19a1.85,1.85,0,0,1-2.017,1.85,18.309,18.309,0,0,1-7.984-2.84,18.04,18.04,0,0,1-5.551-5.551,18.309,18.309,0,0,1-2.84-8.021A1.85,1.85,0,0,1,5.016,2.425H7.792a1.85,1.85,0,0,1,1.85,1.591,11.879,11.879,0,0,0,.648,2.6,1.85,1.85,0,0,1-.416,1.952L8.7,9.743a14.8,14.8,0,0,0,5.551,5.551l1.175-1.175a1.85,1.85,0,0,1,1.952-.416,11.879,11.879,0,0,0,2.6.648A1.85,1.85,0,0,1,21.567,16.228Z" transform="translate(-2.167 -0.396)" fill="none" stroke="#553d84" stroke-linecap="round" stroke-linejoin="round" stroke-width="2"/>
</svg>
