<svg id="virgin-logo-vector" xmlns="http://www.w3.org/2000/svg" width="58.379" height="58.379" viewBox="0 0 58.379 58.379">
  <path id="Path_168033" data-name="Path 168033" d="M29.19,0A29.19,29.19,0,1,1,0,29.19,29.246,29.246,0,0,1,29.19,0Z" fill="#cc2229" fill-rule="evenodd"/>
  <path id="Path_168034" data-name="Path 168034" d="M17.935,24.87c-1.4.649-1.581,3.054-1.927,4.432l-.3,1.158a6.313,6.313,0,0,0-.3,1.08c-.125.842-.105,2.459.969,2.459l.293-.032c.313-.246.474-.271.632-.687a4.661,4.661,0,0,0,.153-1.288q.069-.549.136-1.1c.111-.731.251-1.452.382-2.171.105-.589.317-1.153.414-1.749s.462-1.957-.45-2.1Zm4.356-3.238a1.912,1.912,0,0,0-.586.224,2.231,2.231,0,0,0-.506.669c-.209.335-.413.672-.6,1.014a.928.928,0,0,1-.24.3c-.179.124-.4.179-.527.385a3.611,3.611,0,0,0-.379,1.255,20.81,20.81,0,0,0-.308,2.172,7.183,7.183,0,0,0,.185,2.665.752.752,0,0,0,.623.216,1.477,1.477,0,0,1,.455-.032,1.322,1.322,0,0,0,.53-.434,2.5,2.5,0,0,0,.262-.64,20.319,20.319,0,0,0,.333-2.23q.056-.533.112-1.066c.027-.129.083-.352.214-.413.177-.083.458.057.661.057.084-.037.168-.075.252-.114a1.025,1.025,0,0,0,.349-.351c.075-.178.151-.355.226-.533a2.733,2.733,0,0,0-.311-2.593c-.279-.385-.173-.463-.743-.553ZM18.065,19.2a.944.944,0,0,0-.4.308,1.633,1.633,0,0,0-.193.727c-.052.653.042,1.284.7,1.521.417.15.757-.281.917-.57.014-.027.069-.076.013-.076.147-.552.032-1.587-.536-1.848A1.309,1.309,0,0,0,18.065,19.2Zm13.912-.939a1.09,1.09,0,0,0-.435.336,5.367,5.367,0,0,0-.6,1.627c-.167.613-.339,1.24-.476,1.863-.168.759-.29,1.51-.5,2.23-.152.511-.316,1.691.389,1.861a1.156,1.156,0,0,0,1.177-.516,5.226,5.226,0,0,0,.424-1.765c.1-.584.342-1.13.422-1.711.054-.446.109-.891.163-1.338.113-.553.531-.995.428-1.645a.953.953,0,0,0-.991-.942Zm7.573-3.724a2.638,2.638,0,0,0-.771.334,10.057,10.057,0,0,0-1.239,1.385l-.509.627a.7.7,0,0,1-.374.211.394.394,0,0,1-.1-.194,1.7,1.7,0,0,0-.151-.534c-.346-.517-1.065.027-1.259.415a10.544,10.544,0,0,0-.366,1.11l-.8,2.642q-.067.511-.135,1.02a8.992,8.992,0,0,0-.3,1.079c-.078.476-.253,1.666.168,1.993a.753.753,0,0,0,.48.142c.671.01,1.008-.529,1.194-1.069.443-1.3.821-2.622,1.383-3.862a4.44,4.44,0,0,1,.92-1.455,1.023,1.023,0,0,1,.412-.32c.282-.076.4.148.4.394a6.765,6.765,0,0,1-.169,1.07c-.085.492-.169.987-.255,1.479a5.419,5.419,0,0,0-.2,1.206.98.98,0,0,0,.205.566c.14.175.454.294.439.565-.026.445-1.606,1.314-1.986,1.457a7.811,7.811,0,0,0-1.932,1.244l-.9.633a12.685,12.685,0,0,1-1.454.861l-1,.651-.817.485-.786.542c-.245.164-.444.414-.7.556-.036.018-.281.091-.281.019h-.033a9.768,9.768,0,0,1,.113-1.038l.022-1c.025-.324.052-.646.077-.97a16.729,16.729,0,0,1,.426-2.238c.139-.623.251-1.268.393-1.877.09-.386.5-2.007-.157-2.118a1.308,1.308,0,0,0-1.159.536,6.967,6.967,0,0,0-.768,1.838,20.363,20.363,0,0,1-1.1,2.654c-.116.224-.671,1.4-.936,1.4a1.92,1.92,0,0,1,.035-1.262c.007-.031.053-.1,0-.1.14-.337.212-.808.332-1.163a9.186,9.186,0,0,1,.629-1.35,2.759,2.759,0,0,1,.455-.64l.38-.3a1.933,1.933,0,0,0,.585-1.02c.125-.563-.027-1.724-.693-1.789a1.016,1.016,0,0,0-.455.106c-.851.344-1.156,1.372-1.5,2.1A19.707,19.707,0,0,0,23.672,26.2a23.118,23.118,0,0,0-.234,2.418,3,3,0,0,0,.5,2.443c.638.6,1.837-.506,2.242-.991.085-.1.541-.8.632-.8v-.032h.032v.065a3.771,3.771,0,0,1,.033,1.2,3.684,3.684,0,0,1-.349,1.6,3.09,3.09,0,0,1-.636.622c-.45.406-.942.742-1.365,1.165a14.433,14.433,0,0,1-1.069,1.2,7.727,7.727,0,0,1-1.1.562,3.6,3.6,0,0,0-.574.493l-.383.3c-.46.389-.588,1.011-1.07,1.388l-.5.348c-.673.521-1.334,1.07-2.006,1.592-.537.415-1.069.823-1.575,1.282q-.633.538-1.264,1.074-.179.161-.361.32l-.946.87a11.379,11.379,0,0,1-1.172,1.13,4.2,4.2,0,0,0-1,.82,2.274,2.274,0,0,0-.25.392c-.151.343-.325,1.286-.043,1.6.694.768,2.519-1.453,3.024-1.883.794-.679,1.483-1.486,2.247-2.2q2.091-1.963,4.088-4.023a5.181,5.181,0,0,1,.963-.663,4.5,4.5,0,0,0,.866-.852l.372-.372,1.337-1.191c.23-.165.476-.263.7-.445.075-.1.151-.194.224-.291a2.3,2.3,0,0,1,.752-.66.318.318,0,0,1,.229.012.361.361,0,0,1,.12.276c-.023.248-.045.5-.069.744Q26,36.883,25.922,38.05c.02.753-.042,1.576-.053,2.331l0,1.133c-.011.7.022,1.465.055,2.17s.033,1.391.075,2.071q.045.6.088,1.2l-.027,1.069c0,.674.081,2.125.538,2.5a.759.759,0,0,0,.567.158,1.2,1.2,0,0,0,.563-.163c1.046-.645.4-2.765.317-3.791l-.284-2.235L27.533,41.9c-.055-.571-.056-1.164-.056-1.746a29.086,29.086,0,0,1,.32-4.467,9.318,9.318,0,0,1,.529-2.222,4.288,4.288,0,0,1,1.3-1.513l.7-.447A7.938,7.938,0,0,0,31.6,30.455a9.03,9.03,0,0,1,.714-.744,9.9,9.9,0,0,1,1.143-.685c.24-.147.431-.4.662-.562.617-.428,1.323-.753,1.972-1.119l.843-.571q2.016-1.216,4.115-2.288A20.375,20.375,0,0,1,43.928,23.2q.617-.258,1.233-.517a3.34,3.34,0,0,1,.7-.317,2.736,2.736,0,0,1,1.224.183,2.584,2.584,0,0,0,.56.024l.409-.152a1.412,1.412,0,0,0,.5-.4,2.168,2.168,0,0,0,.3-.581c.285-.74.663-1.634-.162-2.25a1.105,1.105,0,0,0-.6-.243,3.641,3.641,0,0,0-1.764.592c-.2.069-.395.138-.593.205-.261.115-.485.341-.743.468s-.56.2-.817.338l-.96.491a4.317,4.317,0,0,1-1.494.567,1.387,1.387,0,0,1-.793-.254,2.07,2.07,0,0,1-.751-1.054,5.285,5.285,0,0,1,.126-1.879l.093-1.031c.031-.4.112-.826.126-1.263a2.263,2.263,0,0,0-.163-1.165.881.881,0,0,0-.816-.422Zm-5.331-2.428c-.141.13-.3.209-.389.387a1.835,1.835,0,0,0-.1.777c-.006.14-.01.279-.017.419a.73.73,0,0,0,.958.7c.388-.073.435-.537.5-.855a2.113,2.113,0,0,0,.1-.809.749.749,0,0,0-.243-.423,1.218,1.218,0,0,0-.812-.2ZM23.428,1.557a1.522,1.522,0,0,0-.608.364,8.973,8.973,0,0,0-.973,1.6A24.745,24.745,0,0,0,20.3,6.475c-.107.238-.213.475-.321.713l-.267.691c-.146.343-.219.718-.365,1.051s-.4.58-.563.884l-.637,1.269-.365.821c-.177.333-.385.653-.542.994-.314.677-.536,1.409-.789,2.118L15.88,16.4l-.631,1.5c-.593,1.246-1.03,2.589-1.53,3.886L13.352,22.8l-.935,2.689c-.655,1.887-1.051,3.876-1.683,5.767-.146.435-.285.876-.393,1.325a2.785,2.785,0,0,1-.393,1.168c-.054.062-.161.12-.238.058a19.562,19.562,0,0,1-.266-3.073c-.145-1.785-.09-3.717-.061-5.5.023-1.5,0-3.059-.028-4.565l-.032-1.133c0-.753.024-2.895-.783-3.028-.869-.145-1.482,1.88-1.706,2.432a15.185,15.185,0,0,0-.482,1.947,12.658,12.658,0,0,1-.521,1.52C5.2,23.958,4.2,25.327,3.608,26.91a5.821,5.821,0,0,0-.32,1.037c-.078.453-.048,1.421.348,1.675a.832.832,0,0,0,.965-.1,4.65,4.65,0,0,0,.517-1.11c.136-.286.272-.57.407-.855.177-.376.417-.729.588-1.116.21-.477.283-1.026.486-1.506.088-.156.175-.312.262-.469l.369-.781c.019-.031.062-.082.109-.082v.032a2.4,2.4,0,0,1,.169.743c.052.4.106.8.127,1.231.066,1.421.095,2.874.095,4.34a29.6,29.6,0,0,0,.239,3.883L8.176,35.2c.122,1.1.122,2.227.229,3.335q.129,1.246.259,2.493c.056.5.007,1.362.3,1.715.21.254.515.228.846.228.208-.145.355-.136.528-.374a2.892,2.892,0,0,0,.254-1.6c.02-.673.038-1.375.1-2.04a29.969,29.969,0,0,1,.555-3.657c.1-.465.286-.9.394-1.367.048-.279.1-.558.144-.838a6.792,6.792,0,0,1,.049-.9,8.208,8.208,0,0,1,.565-1.56,2.459,2.459,0,0,0,.086-.574c.044-.205.089-.409.132-.615q.318-1.136.636-2.272c.011-.049.141-.388.1-.388a7.161,7.161,0,0,0,.242-.8l.582-1.946L15.638,19.4q.363-1.049.724-2.1c.608-1.356,1.31-2.7,1.907-4.069a16.469,16.469,0,0,0,.65-1.811,6.841,6.841,0,0,1,.317-1.091,6.04,6.04,0,0,1,.695-.856,11.715,11.715,0,0,0,.977-1.453c.465-.906.7-2.048,1.706-2.548a1.178,1.178,0,0,1,.332-.163c.372-.063.521.7.7.92a.679.679,0,0,0,.268.184,1.466,1.466,0,0,0,.555,0,1.071,1.071,0,0,0,.409-.458,6.161,6.161,0,0,0-.492-3.9,1.16,1.16,0,0,0-.957-.5Z" transform="translate(4.661 2.231)" fill="#fff" fill-rule="evenodd"/>
</svg>
