<svg id="Group_42922" data-name="Group 42922" xmlns="http://www.w3.org/2000/svg" width="59.912" height="200" viewBox="0 0 59.912 200">
  <path id="Path_168202" data-name="Path 168202" d="M494.388,89.5a30.154,30.154,0,0,1-2,9.582,26.814,26.814,0,0,1-5.664,8.906,25.359,25.359,0,0,1-8.371,5.712,25.884,25.884,0,0,1-10.21,2.031,24.758,24.758,0,0,1-7.012-1.017V141.79a53.821,53.821,0,0,0,7.012.466,50.993,50.993,0,0,0,20.662-4.212A53.039,53.039,0,0,0,505.6,126.528,54.215,54.215,0,0,0,516.924,109.2a55.294,55.294,0,0,0,4.119-19.7Z" transform="translate(-461.13 -89.503)" fill="#3eb6ae"/>
  <path id="Path_168202" data-name="Path 168202" d="M494.388,89.5a30.154,30.154,0,0,1-2,9.582,26.814,26.814,0,0,1-5.664,8.906,25.359,25.359,0,0,1-8.371,5.712,25.884,25.884,0,0,1-10.21,2.031,24.758,24.758,0,0,1-7.012-1.017V141.79a53.821,53.821,0,0,0,7.012.466,50.993,50.993,0,0,0,20.662-4.212A53.039,53.039,0,0,0,505.6,126.528,54.215,54.215,0,0,0,516.924,109.2a55.294,55.294,0,0,0,4.119-19.7Z" transform="translate(-461.13 -30.503)" fill="#3eb6ae"/>
  <path id="Path_168202" data-name="Path 168202" d="M494.388,89.5a30.154,30.154,0,0,1-2,9.582,26.814,26.814,0,0,1-5.664,8.906,25.359,25.359,0,0,1-8.371,5.712,25.884,25.884,0,0,1-10.21,2.031,24.758,24.758,0,0,1-7.012-1.017V141.79a53.821,53.821,0,0,0,7.012.466,50.993,50.993,0,0,0,20.662-4.212A53.039,53.039,0,0,0,505.6,126.528,54.215,54.215,0,0,0,516.924,109.2a55.294,55.294,0,0,0,4.119-19.7Z" transform="translate(-461.13 30.503)" fill="#3eb6ae"/>
</svg>
