<svg xmlns="http://www.w3.org/2000/svg" width="260.287" height="260.654" viewBox="0 0 260.287 260.654">
  <g id="Group_42920" data-name="Group 42920" transform="translate(-172.845 -523.967)">
    <path id="Path_168098" data-name="Path 168098" d="M249.282,535.229a12.312,12.312,0,0,0-.831-4.626,10.96,10.96,0,0,0-2.264-3.559,9.746,9.746,0,0,0-3.346-2.285,10.907,10.907,0,0,0-8.164,0,9.53,9.53,0,0,0-3.328,2.285,10.871,10.871,0,0,0-2.225,3.559,12.522,12.522,0,0,0-.813,4.626,11.935,11.935,0,0,0,.813,4.45,11.121,11.121,0,0,0,2.225,3.559,10.339,10.339,0,0,0,3.328,2.38,9.74,9.74,0,0,0,4.082.87,10.357,10.357,0,0,0,4.082-.813,10.117,10.117,0,0,0,3.346-2.282,10.7,10.7,0,0,0,2.264-3.561A12.343,12.343,0,0,0,249.282,535.229Z" transform="translate(88.193 0)" fill="#f0eb5b"/>
    <path id="Path_168099" data-name="Path 168099" d="M267.772,535.229a12.313,12.313,0,0,0-.834-4.626,10.959,10.959,0,0,0-2.264-3.559,9.745,9.745,0,0,0-3.346-2.285,10.908,10.908,0,0,0-8.164,0,9.529,9.529,0,0,0-3.328,2.285,10.87,10.87,0,0,0-2.225,3.559,12.574,12.574,0,0,0-.813,4.626,11.987,11.987,0,0,0,.813,4.45,11.12,11.12,0,0,0,2.225,3.559,10.338,10.338,0,0,0,3.328,2.38,9.741,9.741,0,0,0,4.082.87,10.358,10.358,0,0,0,4.082-.813,10.117,10.117,0,0,0,3.346-2.282,10.7,10.7,0,0,0,2.264-3.561A12.344,12.344,0,0,0,267.772,535.229Z" transform="translate(117.59 0)" fill="#f0eb5b"/>
    <path id="Path_168100" data-name="Path 168100" d="M286.26,535.229a12.364,12.364,0,0,0-.831-4.626,11.008,11.008,0,0,0-2.266-3.559,9.744,9.744,0,0,0-3.346-2.285,10.907,10.907,0,0,0-8.164,0,9.553,9.553,0,0,0-3.328,2.285A10.869,10.869,0,0,0,266.1,530.6a12.573,12.573,0,0,0-.813,4.626,11.985,11.985,0,0,0,.813,4.45,11.119,11.119,0,0,0,2.225,3.559,10.366,10.366,0,0,0,3.328,2.38,9.749,9.749,0,0,0,4.082.87,10.357,10.357,0,0,0,4.082-.813,10.115,10.115,0,0,0,3.346-2.282,10.749,10.749,0,0,0,2.266-3.561A12.4,12.4,0,0,0,286.26,535.229Z" transform="translate(146.987 0)" fill="#f0eb5b"/>
    <path id="Path_168101" data-name="Path 168101" d="M304.748,535.229a12.363,12.363,0,0,0-.831-4.626,11.007,11.007,0,0,0-2.266-3.559,9.744,9.744,0,0,0-3.346-2.285,10.907,10.907,0,0,0-8.164,0,9.578,9.578,0,0,0-3.328,2.285,10.913,10.913,0,0,0-2.225,3.559,12.573,12.573,0,0,0-.813,4.626,11.985,11.985,0,0,0,.813,4.45,11.165,11.165,0,0,0,2.225,3.559,10.4,10.4,0,0,0,3.328,2.38,9.749,9.749,0,0,0,4.082.87,10.357,10.357,0,0,0,4.082-.813,10.115,10.115,0,0,0,3.346-2.282,10.748,10.748,0,0,0,2.266-3.561A12.394,12.394,0,0,0,304.748,535.229Z" transform="translate(176.384 0)" fill="#f0eb5b"/>
    <path id="Path_168102" data-name="Path 168102" d="M249.282,550.418a12.313,12.313,0,0,0-.831-4.626,10.961,10.961,0,0,0-2.264-3.559,9.787,9.787,0,0,0-3.346-2.285,10.909,10.909,0,0,0-8.164,0,9.569,9.569,0,0,0-3.328,2.285,10.871,10.871,0,0,0-2.225,3.559,12.522,12.522,0,0,0-.813,4.626,11.935,11.935,0,0,0,.813,4.45,11.122,11.122,0,0,0,2.225,3.559,10.344,10.344,0,0,0,3.328,2.38,9.74,9.74,0,0,0,4.082.87,10.358,10.358,0,0,0,4.082-.813,10.117,10.117,0,0,0,3.346-2.282,10.707,10.707,0,0,0,2.264-3.561A12.343,12.343,0,0,0,249.282,550.418Z" transform="translate(88.193 24.151)" fill="#f0eb5b"/>
    <path id="Path_168103" data-name="Path 168103" d="M267.772,550.418a12.314,12.314,0,0,0-.834-4.626,10.96,10.96,0,0,0-2.264-3.559,9.786,9.786,0,0,0-3.346-2.285,10.909,10.909,0,0,0-8.164,0,9.568,9.568,0,0,0-3.328,2.285,10.87,10.87,0,0,0-2.225,3.559,12.575,12.575,0,0,0-.813,4.626,11.986,11.986,0,0,0,.813,4.45,11.121,11.121,0,0,0,2.225,3.559,10.344,10.344,0,0,0,3.328,2.38,9.741,9.741,0,0,0,4.082.87,10.358,10.358,0,0,0,4.082-.813,10.116,10.116,0,0,0,3.346-2.282,10.706,10.706,0,0,0,2.264-3.561A12.344,12.344,0,0,0,267.772,550.418Z" transform="translate(117.59 24.151)" fill="#f0eb5b"/>
    <path id="Path_168104" data-name="Path 168104" d="M286.26,550.418a12.364,12.364,0,0,0-.831-4.626,11.009,11.009,0,0,0-2.266-3.559,9.785,9.785,0,0,0-3.346-2.285,10.909,10.909,0,0,0-8.164,0,9.592,9.592,0,0,0-3.328,2.285,10.869,10.869,0,0,0-2.225,3.559,12.574,12.574,0,0,0-.813,4.626,11.985,11.985,0,0,0,.813,4.45,11.12,11.12,0,0,0,2.225,3.559,10.372,10.372,0,0,0,3.328,2.38,9.749,9.749,0,0,0,4.082.87,10.357,10.357,0,0,0,4.082-.813,10.115,10.115,0,0,0,3.346-2.282,10.752,10.752,0,0,0,2.266-3.561A12.4,12.4,0,0,0,286.26,550.418Z" transform="translate(146.987 24.151)" fill="#f0eb5b"/>
    <path id="Path_168105" data-name="Path 168105" d="M304.748,550.418a12.363,12.363,0,0,0-.831-4.626,11.008,11.008,0,0,0-2.266-3.559,9.785,9.785,0,0,0-3.346-2.285,10.909,10.909,0,0,0-8.164,0,9.617,9.617,0,0,0-3.328,2.285,10.914,10.914,0,0,0-2.225,3.559,12.574,12.574,0,0,0-.813,4.626,11.985,11.985,0,0,0,.813,4.45,11.167,11.167,0,0,0,2.225,3.559,10.4,10.4,0,0,0,3.328,2.38,9.749,9.749,0,0,0,4.082.87,10.357,10.357,0,0,0,4.082-.813,10.115,10.115,0,0,0,3.346-2.282,10.751,10.751,0,0,0,2.266-3.561A12.394,12.394,0,0,0,304.748,550.418Z" transform="translate(176.384 24.151)" fill="#f0eb5b"/>
    <path id="Path_168106" data-name="Path 168106" d="M249.282,565.607a12.288,12.288,0,0,0-.831-4.623,10.945,10.945,0,0,0-2.264-3.561,9.785,9.785,0,0,0-3.346-2.284,10.906,10.906,0,0,0-8.164,0,9.567,9.567,0,0,0-3.328,2.284,10.856,10.856,0,0,0-2.225,3.561,12.5,12.5,0,0,0-.813,4.623,11.925,11.925,0,0,0,.813,4.45,11.12,11.12,0,0,0,2.225,3.559,10.342,10.342,0,0,0,3.328,2.38,9.74,9.74,0,0,0,4.082.87,10.356,10.356,0,0,0,4.082-.811,10.159,10.159,0,0,0,3.346-2.284,10.7,10.7,0,0,0,2.264-3.561A12.341,12.341,0,0,0,249.282,565.607Z" transform="translate(88.193 48.303)" fill="#f0eb5b"/>
    <path id="Path_168107" data-name="Path 168107" d="M267.772,565.607a12.289,12.289,0,0,0-.834-4.623,10.944,10.944,0,0,0-2.264-3.561,9.784,9.784,0,0,0-3.346-2.284,10.906,10.906,0,0,0-8.164,0,9.566,9.566,0,0,0-3.328,2.284,10.855,10.855,0,0,0-2.225,3.561,12.55,12.55,0,0,0-.813,4.623,11.976,11.976,0,0,0,.813,4.45,11.119,11.119,0,0,0,2.225,3.559,10.342,10.342,0,0,0,3.328,2.38,9.741,9.741,0,0,0,4.082.87,10.356,10.356,0,0,0,4.082-.811,10.158,10.158,0,0,0,3.346-2.284,10.7,10.7,0,0,0,2.264-3.561A12.343,12.343,0,0,0,267.772,565.607Z" transform="translate(117.59 48.303)" fill="#f0eb5b"/>
    <path id="Path_168108" data-name="Path 168108" d="M286.26,565.607a12.34,12.34,0,0,0-.831-4.623,10.992,10.992,0,0,0-2.266-3.561,9.783,9.783,0,0,0-3.346-2.284,10.906,10.906,0,0,0-8.164,0,9.59,9.59,0,0,0-3.328,2.284,10.854,10.854,0,0,0-2.225,3.561,12.548,12.548,0,0,0-.813,4.623,11.975,11.975,0,0,0,.813,4.45,11.118,11.118,0,0,0,2.225,3.559,10.37,10.37,0,0,0,3.328,2.38,9.749,9.749,0,0,0,4.082.87,10.355,10.355,0,0,0,4.082-.811,10.157,10.157,0,0,0,3.346-2.284,10.749,10.749,0,0,0,2.266-3.561A12.394,12.394,0,0,0,286.26,565.607Z" transform="translate(146.987 48.303)" fill="#f0eb5b"/>
    <path id="Path_168109" data-name="Path 168109" d="M304.748,565.607a12.338,12.338,0,0,0-.831-4.623,10.991,10.991,0,0,0-2.266-3.561,9.783,9.783,0,0,0-3.346-2.284,10.906,10.906,0,0,0-8.164,0,9.615,9.615,0,0,0-3.328,2.284,10.9,10.9,0,0,0-2.225,3.561,12.548,12.548,0,0,0-.813,4.623,11.975,11.975,0,0,0,.813,4.45,11.165,11.165,0,0,0,2.225,3.559A10.4,10.4,0,0,0,290.14,576a9.749,9.749,0,0,0,4.082.87,10.356,10.356,0,0,0,4.082-.811,10.157,10.157,0,0,0,3.346-2.284,10.748,10.748,0,0,0,2.266-3.561A12.393,12.393,0,0,0,304.748,565.607Z" transform="translate(176.384 48.303)" fill="#f0eb5b"/>
    <path id="Path_168110" data-name="Path 168110" d="M249.282,579.685a12.29,12.29,0,0,0-.831-4.623,10.947,10.947,0,0,0-2.264-3.561,9.776,9.776,0,0,0-3.346-2.282,10.909,10.909,0,0,0-8.164,0,9.558,9.558,0,0,0-3.328,2.282,10.858,10.858,0,0,0-2.225,3.561,12.5,12.5,0,0,0-.813,4.623,11.925,11.925,0,0,0,.813,4.45,11.121,11.121,0,0,0,2.225,3.559,10.341,10.341,0,0,0,3.328,2.38,9.742,9.742,0,0,0,4.082.87,10.356,10.356,0,0,0,4.082-.811,10.119,10.119,0,0,0,3.346-2.285,10.692,10.692,0,0,0,2.264-3.559A12.347,12.347,0,0,0,249.282,579.685Z" transform="translate(88.193 70.693)" fill="#f0eb5b"/>
    <path id="Path_168111" data-name="Path 168111" d="M267.772,579.685a12.291,12.291,0,0,0-.834-4.623,10.946,10.946,0,0,0-2.264-3.561,9.775,9.775,0,0,0-3.346-2.282,10.909,10.909,0,0,0-8.164,0,9.558,9.558,0,0,0-3.328,2.282,10.857,10.857,0,0,0-2.225,3.561,12.552,12.552,0,0,0-.813,4.623,11.976,11.976,0,0,0,.813,4.45,11.12,11.12,0,0,0,2.225,3.559,10.341,10.341,0,0,0,3.328,2.38,9.743,9.743,0,0,0,4.082.87,10.356,10.356,0,0,0,4.082-.811,10.118,10.118,0,0,0,3.346-2.285,10.691,10.691,0,0,0,2.264-3.559A12.349,12.349,0,0,0,267.772,579.685Z" transform="translate(117.59 70.693)" fill="#f0eb5b"/>
    <path id="Path_168112" data-name="Path 168112" d="M286.26,579.685a12.342,12.342,0,0,0-.831-4.623,10.994,10.994,0,0,0-2.266-3.561,9.774,9.774,0,0,0-3.346-2.282,10.909,10.909,0,0,0-8.164,0,9.582,9.582,0,0,0-3.328,2.282,10.856,10.856,0,0,0-2.225,3.561,12.551,12.551,0,0,0-.813,4.623,11.975,11.975,0,0,0,.813,4.45,11.119,11.119,0,0,0,2.225,3.559,10.368,10.368,0,0,0,3.328,2.38,9.751,9.751,0,0,0,4.082.87,10.355,10.355,0,0,0,4.082-.811,10.117,10.117,0,0,0,3.346-2.285,10.737,10.737,0,0,0,2.266-3.559A12.4,12.4,0,0,0,286.26,579.685Z" transform="translate(146.987 70.693)" fill="#f0eb5b"/>
    <path id="Path_168113" data-name="Path 168113" d="M304.748,579.685a12.34,12.34,0,0,0-.831-4.623,10.993,10.993,0,0,0-2.266-3.561,9.774,9.774,0,0,0-3.346-2.282,10.909,10.909,0,0,0-8.164,0,9.607,9.607,0,0,0-3.328,2.282,10.9,10.9,0,0,0-2.225,3.561,12.551,12.551,0,0,0-.813,4.623,11.975,11.975,0,0,0,.813,4.45,11.165,11.165,0,0,0,2.225,3.559,10.4,10.4,0,0,0,3.328,2.38,9.751,9.751,0,0,0,4.082.87,10.356,10.356,0,0,0,4.082-.811,10.117,10.117,0,0,0,3.346-2.285,10.736,10.736,0,0,0,2.266-3.559A12.4,12.4,0,0,0,304.748,579.685Z" transform="translate(176.384 70.693)" fill="#f0eb5b"/>
    <path id="Path_168114" data-name="Path 168114" d="M249.282,595.482a12.309,12.309,0,0,0-.831-4.623,11,11,0,0,0-2.264-3.561,9.776,9.776,0,0,0-3.346-2.282,10.909,10.909,0,0,0-8.164,0,9.558,9.558,0,0,0-3.328,2.282,10.912,10.912,0,0,0-2.225,3.561,12.519,12.519,0,0,0-.813,4.623,11.938,11.938,0,0,0,.813,4.452,11.122,11.122,0,0,0,2.225,3.559,10.344,10.344,0,0,0,3.328,2.38,9.738,9.738,0,0,0,4.082.87,10.358,10.358,0,0,0,4.082-.813,10.117,10.117,0,0,0,3.346-2.282,10.706,10.706,0,0,0,2.264-3.561A12.346,12.346,0,0,0,249.282,595.482Z" transform="translate(88.193 95.811)" fill="#f0eb5b"/>
    <path id="Path_168115" data-name="Path 168115" d="M267.772,595.482a12.311,12.311,0,0,0-.834-4.623,11,11,0,0,0-2.264-3.561,9.775,9.775,0,0,0-3.346-2.282,10.909,10.909,0,0,0-8.164,0,9.558,9.558,0,0,0-3.328,2.282,10.911,10.911,0,0,0-2.225,3.561,12.572,12.572,0,0,0-.813,4.623,11.99,11.99,0,0,0,.813,4.452,11.121,11.121,0,0,0,2.225,3.559,10.344,10.344,0,0,0,3.328,2.38,9.739,9.739,0,0,0,4.082.87,10.358,10.358,0,0,0,4.082-.813,10.116,10.116,0,0,0,3.346-2.282,10.7,10.7,0,0,0,2.264-3.561A12.348,12.348,0,0,0,267.772,595.482Z" transform="translate(117.59 95.811)" fill="#f0eb5b"/>
    <path id="Path_168116" data-name="Path 168116" d="M286.26,595.482a12.361,12.361,0,0,0-.831-4.623,11.051,11.051,0,0,0-2.266-3.561,9.774,9.774,0,0,0-3.346-2.282,10.909,10.909,0,0,0-8.164,0,9.582,9.582,0,0,0-3.328,2.282,10.91,10.91,0,0,0-2.225,3.561,12.57,12.57,0,0,0-.813,4.623,11.988,11.988,0,0,0,.813,4.452,11.12,11.12,0,0,0,2.225,3.559,10.371,10.371,0,0,0,3.328,2.38,9.747,9.747,0,0,0,4.082.87,10.357,10.357,0,0,0,4.082-.813,10.115,10.115,0,0,0,3.346-2.282,10.751,10.751,0,0,0,2.266-3.561A12.4,12.4,0,0,0,286.26,595.482Z" transform="translate(146.987 95.811)" fill="#f0eb5b"/>
    <path id="Path_168117" data-name="Path 168117" d="M304.748,595.482a12.36,12.36,0,0,0-.831-4.623,11.05,11.05,0,0,0-2.266-3.561,9.774,9.774,0,0,0-3.346-2.282,10.909,10.909,0,0,0-8.164,0,9.607,9.607,0,0,0-3.328,2.282,10.955,10.955,0,0,0-2.225,3.561,12.57,12.57,0,0,0-.813,4.623,11.989,11.989,0,0,0,.813,4.452,11.167,11.167,0,0,0,2.225,3.559,10.4,10.4,0,0,0,3.328,2.38,9.747,9.747,0,0,0,4.082.87,10.357,10.357,0,0,0,4.082-.813,10.115,10.115,0,0,0,3.346-2.282,10.75,10.75,0,0,0,2.266-3.561A12.4,12.4,0,0,0,304.748,595.482Z" transform="translate(176.384 95.811)" fill="#f0eb5b"/>
    <path id="Path_168118" data-name="Path 168118" d="M193.819,535.229a12.312,12.312,0,0,0-.831-4.626,11.009,11.009,0,0,0-2.266-3.559,9.745,9.745,0,0,0-3.346-2.285,10.907,10.907,0,0,0-8.164,0,9.577,9.577,0,0,0-3.328,2.285,10.913,10.913,0,0,0-2.225,3.559,12.574,12.574,0,0,0-.813,4.626,11.986,11.986,0,0,0,.813,4.45,11.165,11.165,0,0,0,2.225,3.559,10.4,10.4,0,0,0,3.328,2.38,9.749,9.749,0,0,0,4.082.87,10.348,10.348,0,0,0,4.082-.813,10.117,10.117,0,0,0,3.346-2.282,10.75,10.75,0,0,0,2.266-3.561A12.343,12.343,0,0,0,193.819,535.229Z" transform="translate(0 0)" fill="#f0eb5b"/>
    <path id="Path_168119" data-name="Path 168119" d="M212.306,535.229a12.313,12.313,0,0,0-.831-4.626,11,11,0,0,0-2.264-3.559,9.794,9.794,0,0,0-3.346-2.285,10.914,10.914,0,0,0-8.166,0,9.577,9.577,0,0,0-3.328,2.285,10.913,10.913,0,0,0-2.225,3.559,12.574,12.574,0,0,0-.811,4.626,11.986,11.986,0,0,0,.811,4.45,11.166,11.166,0,0,0,2.225,3.559,10.4,10.4,0,0,0,3.328,2.38,9.758,9.758,0,0,0,4.082.87,10.37,10.37,0,0,0,4.085-.813,10.169,10.169,0,0,0,3.346-2.282,10.745,10.745,0,0,0,2.264-3.561A12.344,12.344,0,0,0,212.306,535.229Z" transform="translate(29.399 0)" fill="#f0eb5b"/>
    <path id="Path_168120" data-name="Path 168120" d="M230.794,535.229a12.313,12.313,0,0,0-.831-4.626,11,11,0,0,0-2.264-3.559,9.8,9.8,0,0,0-3.346-2.285,10.914,10.914,0,0,0-8.166,0,9.544,9.544,0,0,0-3.326,2.285,10.876,10.876,0,0,0-2.227,3.559,12.574,12.574,0,0,0-.811,4.626,11.986,11.986,0,0,0,.811,4.45,11.127,11.127,0,0,0,2.227,3.559,10.357,10.357,0,0,0,3.326,2.38,9.761,9.761,0,0,0,4.085.87,10.366,10.366,0,0,0,4.082-.813,10.17,10.17,0,0,0,3.346-2.282,10.746,10.746,0,0,0,2.264-3.561A12.344,12.344,0,0,0,230.794,535.229Z" transform="translate(58.796 0)" fill="#f0eb5b"/>
    <path id="Path_168121" data-name="Path 168121" d="M249.282,535.229a12.312,12.312,0,0,0-.831-4.626,10.96,10.96,0,0,0-2.264-3.559,9.746,9.746,0,0,0-3.346-2.285,10.907,10.907,0,0,0-8.164,0,9.53,9.53,0,0,0-3.328,2.285,10.871,10.871,0,0,0-2.225,3.559,12.522,12.522,0,0,0-.813,4.626,11.935,11.935,0,0,0,.813,4.45,11.121,11.121,0,0,0,2.225,3.559,10.339,10.339,0,0,0,3.328,2.38,9.74,9.74,0,0,0,4.082.87,10.357,10.357,0,0,0,4.082-.813,10.117,10.117,0,0,0,3.346-2.282,10.7,10.7,0,0,0,2.264-3.561A12.343,12.343,0,0,0,249.282,535.229Z" transform="translate(88.193 0)" fill="#f0eb5b"/>
    <path id="Path_168122" data-name="Path 168122" d="M193.819,550.418a12.313,12.313,0,0,0-.831-4.626,11.01,11.01,0,0,0-2.266-3.559,9.786,9.786,0,0,0-3.346-2.285,10.909,10.909,0,0,0-8.164,0,9.617,9.617,0,0,0-3.328,2.285,10.913,10.913,0,0,0-2.225,3.559,12.575,12.575,0,0,0-.813,4.626,11.986,11.986,0,0,0,.813,4.45,11.166,11.166,0,0,0,2.225,3.559,10.4,10.4,0,0,0,3.328,2.38,9.749,9.749,0,0,0,4.082.87,10.348,10.348,0,0,0,4.082-.813,10.116,10.116,0,0,0,3.346-2.282,10.753,10.753,0,0,0,2.266-3.561A12.343,12.343,0,0,0,193.819,550.418Z" transform="translate(0 24.151)" fill="#f0eb5b"/>
    <path id="Path_168123" data-name="Path 168123" d="M212.306,550.418a12.314,12.314,0,0,0-.831-4.626,11,11,0,0,0-2.264-3.559,9.835,9.835,0,0,0-3.346-2.285,10.916,10.916,0,0,0-8.166,0,9.616,9.616,0,0,0-3.328,2.285,10.914,10.914,0,0,0-2.225,3.559,12.575,12.575,0,0,0-.811,4.626,11.985,11.985,0,0,0,.811,4.45,11.167,11.167,0,0,0,2.225,3.559,10.4,10.4,0,0,0,3.328,2.38,9.758,9.758,0,0,0,4.082.87,10.37,10.37,0,0,0,4.085-.813,10.168,10.168,0,0,0,3.346-2.282,10.748,10.748,0,0,0,2.264-3.561A12.344,12.344,0,0,0,212.306,550.418Z" transform="translate(29.399 24.151)" fill="#f0eb5b"/>
    <path id="Path_168124" data-name="Path 168124" d="M230.794,550.418a12.314,12.314,0,0,0-.831-4.626,11,11,0,0,0-2.264-3.559,9.836,9.836,0,0,0-3.346-2.285,10.916,10.916,0,0,0-8.166,0,9.583,9.583,0,0,0-3.326,2.285,10.877,10.877,0,0,0-2.227,3.559,12.575,12.575,0,0,0-.811,4.626,11.985,11.985,0,0,0,.811,4.45,11.128,11.128,0,0,0,2.227,3.559,10.362,10.362,0,0,0,3.326,2.38,9.761,9.761,0,0,0,4.085.87,10.367,10.367,0,0,0,4.082-.813,10.169,10.169,0,0,0,3.346-2.282,10.749,10.749,0,0,0,2.264-3.561A12.344,12.344,0,0,0,230.794,550.418Z" transform="translate(58.796 24.151)" fill="#f0eb5b"/>
    <path id="Path_168125" data-name="Path 168125" d="M249.282,550.418a12.313,12.313,0,0,0-.831-4.626,10.961,10.961,0,0,0-2.264-3.559,9.787,9.787,0,0,0-3.346-2.285,10.909,10.909,0,0,0-8.164,0,9.569,9.569,0,0,0-3.328,2.285,10.871,10.871,0,0,0-2.225,3.559,12.522,12.522,0,0,0-.813,4.626,11.935,11.935,0,0,0,.813,4.45,11.122,11.122,0,0,0,2.225,3.559,10.344,10.344,0,0,0,3.328,2.38,9.74,9.74,0,0,0,4.082.87,10.358,10.358,0,0,0,4.082-.813,10.117,10.117,0,0,0,3.346-2.282,10.707,10.707,0,0,0,2.264-3.561A12.343,12.343,0,0,0,249.282,550.418Z" transform="translate(88.193 24.151)" fill="#f0eb5b"/>
    <path id="Path_168126" data-name="Path 168126" d="M193.819,565.607a12.288,12.288,0,0,0-.831-4.623,10.993,10.993,0,0,0-2.266-3.561,9.784,9.784,0,0,0-3.346-2.284,10.906,10.906,0,0,0-8.164,0,9.615,9.615,0,0,0-3.328,2.284,10.9,10.9,0,0,0-2.225,3.561,12.55,12.55,0,0,0-.813,4.623,11.976,11.976,0,0,0,.813,4.45,11.164,11.164,0,0,0,2.225,3.559,10.4,10.4,0,0,0,3.328,2.38,9.749,9.749,0,0,0,4.082.87,10.346,10.346,0,0,0,4.082-.811,10.158,10.158,0,0,0,3.346-2.284,10.75,10.75,0,0,0,2.266-3.561A12.342,12.342,0,0,0,193.819,565.607Z" transform="translate(0 48.303)" fill="#f0eb5b"/>
    <path id="Path_168127" data-name="Path 168127" d="M212.306,565.607a12.289,12.289,0,0,0-.831-4.623,10.987,10.987,0,0,0-2.264-3.561,9.833,9.833,0,0,0-3.346-2.284,10.913,10.913,0,0,0-8.166,0,9.614,9.614,0,0,0-3.328,2.284,10.9,10.9,0,0,0-2.225,3.561,12.55,12.55,0,0,0-.811,4.623,11.975,11.975,0,0,0,.811,4.45,11.165,11.165,0,0,0,2.225,3.559A10.4,10.4,0,0,0,197.7,576a9.758,9.758,0,0,0,4.082.87,10.368,10.368,0,0,0,4.085-.811,10.211,10.211,0,0,0,3.346-2.284,10.744,10.744,0,0,0,2.264-3.561A12.342,12.342,0,0,0,212.306,565.607Z" transform="translate(29.399 48.303)" fill="#f0eb5b"/>
    <path id="Path_168128" data-name="Path 168128" d="M230.794,565.607a12.289,12.289,0,0,0-.831-4.623,10.988,10.988,0,0,0-2.264-3.561,9.834,9.834,0,0,0-3.346-2.284,10.912,10.912,0,0,0-8.166,0,9.581,9.581,0,0,0-3.326,2.284,10.861,10.861,0,0,0-2.227,3.561,12.55,12.55,0,0,0-.811,4.623,11.975,11.975,0,0,0,.811,4.45,11.126,11.126,0,0,0,2.227,3.559,10.36,10.36,0,0,0,3.326,2.38,9.761,9.761,0,0,0,4.085.87,10.365,10.365,0,0,0,4.082-.811,10.212,10.212,0,0,0,3.346-2.284,10.745,10.745,0,0,0,2.264-3.561A12.342,12.342,0,0,0,230.794,565.607Z" transform="translate(58.796 48.303)" fill="#f0eb5b"/>
    <path id="Path_168129" data-name="Path 168129" d="M249.282,565.607a12.288,12.288,0,0,0-.831-4.623,10.945,10.945,0,0,0-2.264-3.561,9.785,9.785,0,0,0-3.346-2.284,10.906,10.906,0,0,0-8.164,0,9.567,9.567,0,0,0-3.328,2.284,10.856,10.856,0,0,0-2.225,3.561,12.5,12.5,0,0,0-.813,4.623,11.925,11.925,0,0,0,.813,4.45,11.12,11.12,0,0,0,2.225,3.559,10.342,10.342,0,0,0,3.328,2.38,9.74,9.74,0,0,0,4.082.87,10.356,10.356,0,0,0,4.082-.811,10.159,10.159,0,0,0,3.346-2.284,10.7,10.7,0,0,0,2.264-3.561A12.341,12.341,0,0,0,249.282,565.607Z" transform="translate(88.193 48.303)" fill="#f0eb5b"/>
    <path id="Path_168130" data-name="Path 168130" d="M193.819,579.685a12.29,12.29,0,0,0-.831-4.623,11,11,0,0,0-2.266-3.561,9.775,9.775,0,0,0-3.346-2.282,10.909,10.909,0,0,0-8.164,0,9.606,9.606,0,0,0-3.328,2.282,10.9,10.9,0,0,0-2.225,3.561,12.552,12.552,0,0,0-.813,4.623,11.976,11.976,0,0,0,.813,4.45,11.165,11.165,0,0,0,2.225,3.559,10.4,10.4,0,0,0,3.328,2.38,9.751,9.751,0,0,0,4.082.87,10.346,10.346,0,0,0,4.082-.811,10.118,10.118,0,0,0,3.346-2.285,10.738,10.738,0,0,0,2.266-3.559A12.348,12.348,0,0,0,193.819,579.685Z" transform="translate(0 70.693)" fill="#f0eb5b"/>
    <path id="Path_168131" data-name="Path 168131" d="M212.306,579.685a12.291,12.291,0,0,0-.831-4.623,10.989,10.989,0,0,0-2.264-3.561,9.824,9.824,0,0,0-3.346-2.282,10.916,10.916,0,0,0-8.166,0,9.606,9.606,0,0,0-3.328,2.282,10.9,10.9,0,0,0-2.225,3.561,12.552,12.552,0,0,0-.811,4.623,11.975,11.975,0,0,0,.811,4.45,11.166,11.166,0,0,0,2.225,3.559,10.4,10.4,0,0,0,3.328,2.38,9.759,9.759,0,0,0,4.082.87,10.368,10.368,0,0,0,4.085-.811,10.171,10.171,0,0,0,3.346-2.285,10.732,10.732,0,0,0,2.264-3.559A12.348,12.348,0,0,0,212.306,579.685Z" transform="translate(29.399 70.693)" fill="#f0eb5b"/>
    <path id="Path_168132" data-name="Path 168132" d="M230.794,579.685a12.291,12.291,0,0,0-.831-4.623A10.99,10.99,0,0,0,227.7,571.5a9.825,9.825,0,0,0-3.346-2.282,10.916,10.916,0,0,0-8.166,0,9.573,9.573,0,0,0-3.326,2.282,10.863,10.863,0,0,0-2.227,3.561,12.552,12.552,0,0,0-.811,4.623,11.975,11.975,0,0,0,.811,4.45,11.127,11.127,0,0,0,2.227,3.559,10.359,10.359,0,0,0,3.326,2.38,9.763,9.763,0,0,0,4.085.87,10.365,10.365,0,0,0,4.082-.811,10.172,10.172,0,0,0,3.346-2.285,10.733,10.733,0,0,0,2.264-3.559A12.348,12.348,0,0,0,230.794,579.685Z" transform="translate(58.796 70.693)" fill="#f0eb5b"/>
    <path id="Path_168133" data-name="Path 168133" d="M249.282,579.685a12.29,12.29,0,0,0-.831-4.623,10.947,10.947,0,0,0-2.264-3.561,9.776,9.776,0,0,0-3.346-2.282,10.909,10.909,0,0,0-8.164,0,9.558,9.558,0,0,0-3.328,2.282,10.858,10.858,0,0,0-2.225,3.561,12.5,12.5,0,0,0-.813,4.623,11.925,11.925,0,0,0,.813,4.45,11.121,11.121,0,0,0,2.225,3.559,10.341,10.341,0,0,0,3.328,2.38,9.742,9.742,0,0,0,4.082.87,10.356,10.356,0,0,0,4.082-.811,10.119,10.119,0,0,0,3.346-2.285,10.692,10.692,0,0,0,2.264-3.559A12.347,12.347,0,0,0,249.282,579.685Z" transform="translate(88.193 70.693)" fill="#f0eb5b"/>
    <path id="Path_168134" data-name="Path 168134" d="M193.819,595.482a12.31,12.31,0,0,0-.831-4.623,11.052,11.052,0,0,0-2.266-3.561,9.775,9.775,0,0,0-3.346-2.282,10.909,10.909,0,0,0-8.164,0,9.606,9.606,0,0,0-3.328,2.282,10.955,10.955,0,0,0-2.225,3.561,12.572,12.572,0,0,0-.813,4.623,11.99,11.99,0,0,0,.813,4.452,11.166,11.166,0,0,0,2.225,3.559,10.4,10.4,0,0,0,3.328,2.38,9.747,9.747,0,0,0,4.082.87,10.348,10.348,0,0,0,4.082-.813,10.116,10.116,0,0,0,3.346-2.282,10.752,10.752,0,0,0,2.266-3.561A12.347,12.347,0,0,0,193.819,595.482Z" transform="translate(0 95.811)" fill="#f0eb5b"/>
    <path id="Path_168135" data-name="Path 168135" d="M212.306,595.482a12.311,12.311,0,0,0-.831-4.623,11.046,11.046,0,0,0-2.264-3.561,9.824,9.824,0,0,0-3.346-2.282,10.916,10.916,0,0,0-8.166,0,9.606,9.606,0,0,0-3.328,2.282,10.955,10.955,0,0,0-2.225,3.561,12.572,12.572,0,0,0-.811,4.623,11.989,11.989,0,0,0,.811,4.452,11.167,11.167,0,0,0,2.225,3.559,10.4,10.4,0,0,0,3.328,2.38,9.756,9.756,0,0,0,4.082.87,10.37,10.37,0,0,0,4.085-.813,10.168,10.168,0,0,0,3.346-2.282,10.746,10.746,0,0,0,2.264-3.561A12.348,12.348,0,0,0,212.306,595.482Z" transform="translate(29.399 95.811)" fill="#f0eb5b"/>
    <path id="Path_168136" data-name="Path 168136" d="M230.794,595.482a12.311,12.311,0,0,0-.831-4.623A11.047,11.047,0,0,0,227.7,587.3a9.825,9.825,0,0,0-3.346-2.282,10.916,10.916,0,0,0-8.166,0,9.573,9.573,0,0,0-3.326,2.282,10.918,10.918,0,0,0-2.227,3.561,12.572,12.572,0,0,0-.811,4.623,11.989,11.989,0,0,0,.811,4.452,11.128,11.128,0,0,0,2.227,3.559,10.362,10.362,0,0,0,3.326,2.38,9.759,9.759,0,0,0,4.085.87,10.367,10.367,0,0,0,4.082-.813,10.169,10.169,0,0,0,3.346-2.282,10.747,10.747,0,0,0,2.264-3.561A12.348,12.348,0,0,0,230.794,595.482Z" transform="translate(58.796 95.811)" fill="#f0eb5b"/>
    <path id="Path_168137" data-name="Path 168137" d="M249.282,595.482a12.309,12.309,0,0,0-.831-4.623,11,11,0,0,0-2.264-3.561,9.776,9.776,0,0,0-3.346-2.282,10.909,10.909,0,0,0-8.164,0,9.558,9.558,0,0,0-3.328,2.282,10.912,10.912,0,0,0-2.225,3.561,12.519,12.519,0,0,0-.813,4.623,11.938,11.938,0,0,0,.813,4.452,11.122,11.122,0,0,0,2.225,3.559,10.344,10.344,0,0,0,3.328,2.38,9.738,9.738,0,0,0,4.082.87,10.358,10.358,0,0,0,4.082-.813,10.117,10.117,0,0,0,3.346-2.282,10.706,10.706,0,0,0,2.264-3.561A12.346,12.346,0,0,0,249.282,595.482Z" transform="translate(88.193 95.811)" fill="#f0eb5b"/>
    <path id="Path_168138" data-name="Path 168138" d="M249.282,595.482a12.309,12.309,0,0,0-.831-4.623,11,11,0,0,0-2.264-3.561,9.776,9.776,0,0,0-3.346-2.282,10.909,10.909,0,0,0-8.164,0,9.558,9.558,0,0,0-3.328,2.282,10.912,10.912,0,0,0-2.225,3.561,12.519,12.519,0,0,0-.813,4.623,11.938,11.938,0,0,0,.813,4.452,11.122,11.122,0,0,0,2.225,3.559,10.344,10.344,0,0,0,3.328,2.38,9.738,9.738,0,0,0,4.082.87,10.358,10.358,0,0,0,4.082-.813,10.117,10.117,0,0,0,3.346-2.282,10.706,10.706,0,0,0,2.264-3.561A12.346,12.346,0,0,0,249.282,595.482Z" transform="translate(88.193 95.811)" fill="#f0eb5b"/>
    <path id="Path_168139" data-name="Path 168139" d="M267.772,595.482a12.311,12.311,0,0,0-.834-4.623,11,11,0,0,0-2.264-3.561,9.775,9.775,0,0,0-3.346-2.282,10.909,10.909,0,0,0-8.164,0,9.558,9.558,0,0,0-3.328,2.282,10.911,10.911,0,0,0-2.225,3.561,12.572,12.572,0,0,0-.813,4.623,11.99,11.99,0,0,0,.813,4.452,11.121,11.121,0,0,0,2.225,3.559,10.344,10.344,0,0,0,3.328,2.38,9.739,9.739,0,0,0,4.082.87,10.358,10.358,0,0,0,4.082-.813,10.116,10.116,0,0,0,3.346-2.282,10.7,10.7,0,0,0,2.264-3.561A12.348,12.348,0,0,0,267.772,595.482Z" transform="translate(117.59 95.811)" fill="#f0eb5b"/>
    <path id="Path_168140" data-name="Path 168140" d="M286.26,595.482a12.361,12.361,0,0,0-.831-4.623,11.051,11.051,0,0,0-2.266-3.561,9.774,9.774,0,0,0-3.346-2.282,10.909,10.909,0,0,0-8.164,0,9.582,9.582,0,0,0-3.328,2.282,10.91,10.91,0,0,0-2.225,3.561,12.57,12.57,0,0,0-.813,4.623,11.988,11.988,0,0,0,.813,4.452,11.12,11.12,0,0,0,2.225,3.559,10.371,10.371,0,0,0,3.328,2.38,9.747,9.747,0,0,0,4.082.87,10.357,10.357,0,0,0,4.082-.813,10.115,10.115,0,0,0,3.346-2.282,10.751,10.751,0,0,0,2.266-3.561A12.4,12.4,0,0,0,286.26,595.482Z" transform="translate(146.987 95.811)" fill="#f0eb5b"/>
    <path id="Path_168141" data-name="Path 168141" d="M304.748,595.482a12.36,12.36,0,0,0-.831-4.623,11.05,11.05,0,0,0-2.266-3.561,9.774,9.774,0,0,0-3.346-2.282,10.909,10.909,0,0,0-8.164,0,9.607,9.607,0,0,0-3.328,2.282,10.955,10.955,0,0,0-2.225,3.561,12.57,12.57,0,0,0-.813,4.623,11.989,11.989,0,0,0,.813,4.452,11.167,11.167,0,0,0,2.225,3.559,10.4,10.4,0,0,0,3.328,2.38,9.747,9.747,0,0,0,4.082.87,10.357,10.357,0,0,0,4.082-.813,10.115,10.115,0,0,0,3.346-2.282,10.75,10.75,0,0,0,2.266-3.561A12.4,12.4,0,0,0,304.748,595.482Z" transform="translate(176.384 95.811)" fill="#f0eb5b"/>
    <path id="Path_168142" data-name="Path 168142" d="M249.282,610.674a12.312,12.312,0,0,0-.831-4.626,10.961,10.961,0,0,0-2.264-3.559,9.749,9.749,0,0,0-3.346-2.284,10.906,10.906,0,0,0-8.164,0,9.532,9.532,0,0,0-3.328,2.284,10.872,10.872,0,0,0-2.225,3.559,12.522,12.522,0,0,0-.813,4.626,11.934,11.934,0,0,0,.813,4.45,11.123,11.123,0,0,0,2.225,3.559,10.342,10.342,0,0,0,3.328,2.38,9.74,9.74,0,0,0,4.082.87,10.357,10.357,0,0,0,4.082-.813,10.117,10.117,0,0,0,3.346-2.282,10.7,10.7,0,0,0,2.264-3.561A12.342,12.342,0,0,0,249.282,610.674Z" transform="translate(88.193 119.962)" fill="#f0eb5b"/>
    <path id="Path_168143" data-name="Path 168143" d="M267.772,610.674a12.313,12.313,0,0,0-.834-4.626,10.96,10.96,0,0,0-2.264-3.559,9.748,9.748,0,0,0-3.346-2.284,10.906,10.906,0,0,0-8.164,0,9.532,9.532,0,0,0-3.328,2.284,10.871,10.871,0,0,0-2.225,3.559,12.574,12.574,0,0,0-.813,4.626,11.986,11.986,0,0,0,.813,4.45,11.122,11.122,0,0,0,2.225,3.559,10.342,10.342,0,0,0,3.328,2.38,9.741,9.741,0,0,0,4.082.87,10.358,10.358,0,0,0,4.082-.813,10.117,10.117,0,0,0,3.346-2.282,10.7,10.7,0,0,0,2.264-3.561A12.343,12.343,0,0,0,267.772,610.674Z" transform="translate(117.59 119.962)" fill="#f0eb5b"/>
    <path id="Path_168144" data-name="Path 168144" d="M286.26,610.674a12.364,12.364,0,0,0-.831-4.626,11.009,11.009,0,0,0-2.266-3.559,9.747,9.747,0,0,0-3.346-2.284,10.906,10.906,0,0,0-8.164,0,9.555,9.555,0,0,0-3.328,2.284,10.87,10.87,0,0,0-2.225,3.559,12.573,12.573,0,0,0-.813,4.626,11.985,11.985,0,0,0,.813,4.45,11.121,11.121,0,0,0,2.225,3.559,10.37,10.37,0,0,0,3.328,2.38,9.749,9.749,0,0,0,4.082.87,10.357,10.357,0,0,0,4.082-.813,10.115,10.115,0,0,0,3.346-2.282,10.749,10.749,0,0,0,2.266-3.561A12.394,12.394,0,0,0,286.26,610.674Z" transform="translate(146.987 119.962)" fill="#f0eb5b"/>
    <path id="Path_168145" data-name="Path 168145" d="M304.748,610.674a12.363,12.363,0,0,0-.831-4.626,11.008,11.008,0,0,0-2.266-3.559A9.747,9.747,0,0,0,298.3,600.2a10.906,10.906,0,0,0-8.164,0,9.58,9.58,0,0,0-3.328,2.284,10.914,10.914,0,0,0-2.225,3.559,12.573,12.573,0,0,0-.813,4.626,11.985,11.985,0,0,0,.813,4.45,11.167,11.167,0,0,0,2.225,3.559,10.4,10.4,0,0,0,3.328,2.38,9.749,9.749,0,0,0,4.082.87,10.357,10.357,0,0,0,4.082-.813,10.115,10.115,0,0,0,3.346-2.282,10.748,10.748,0,0,0,2.266-3.561A12.393,12.393,0,0,0,304.748,610.674Z" transform="translate(176.384 119.962)" fill="#f0eb5b"/>
    <path id="Path_168146" data-name="Path 168146" d="M249.282,625.863a12.312,12.312,0,0,0-.831-4.626,10.961,10.961,0,0,0-2.264-3.559,9.786,9.786,0,0,0-3.346-2.284,10.909,10.909,0,0,0-8.164,0,9.568,9.568,0,0,0-3.328,2.284,10.872,10.872,0,0,0-2.225,3.559,12.522,12.522,0,0,0-.813,4.626,11.934,11.934,0,0,0,.813,4.45,11.119,11.119,0,0,0,2.225,3.559,10.342,10.342,0,0,0,3.328,2.38,9.74,9.74,0,0,0,4.082.87,10.358,10.358,0,0,0,4.082-.813,10.117,10.117,0,0,0,3.346-2.282,10.706,10.706,0,0,0,2.264-3.561A12.343,12.343,0,0,0,249.282,625.863Z" transform="translate(88.193 144.114)" fill="#f0eb5b"/>
    <path id="Path_168147" data-name="Path 168147" d="M267.772,625.863a12.313,12.313,0,0,0-.834-4.626,10.96,10.96,0,0,0-2.264-3.559,9.786,9.786,0,0,0-3.346-2.284,10.909,10.909,0,0,0-8.164,0,9.568,9.568,0,0,0-3.328,2.284,10.871,10.871,0,0,0-2.225,3.559,12.574,12.574,0,0,0-.813,4.626,11.986,11.986,0,0,0,.813,4.45,11.118,11.118,0,0,0,2.225,3.559,10.342,10.342,0,0,0,3.328,2.38,9.741,9.741,0,0,0,4.082.87,10.358,10.358,0,0,0,4.082-.813,10.116,10.116,0,0,0,3.346-2.282,10.705,10.705,0,0,0,2.264-3.561A12.345,12.345,0,0,0,267.772,625.863Z" transform="translate(117.59 144.114)" fill="#f0eb5b"/>
    <path id="Path_168148" data-name="Path 168148" d="M286.26,625.863a12.364,12.364,0,0,0-.831-4.626,11.009,11.009,0,0,0-2.266-3.559,9.784,9.784,0,0,0-3.346-2.284,10.909,10.909,0,0,0-8.164,0,9.592,9.592,0,0,0-3.328,2.284,10.87,10.87,0,0,0-2.225,3.559,12.573,12.573,0,0,0-.813,4.626,11.985,11.985,0,0,0,.813,4.45,11.117,11.117,0,0,0,2.225,3.559,10.37,10.37,0,0,0,3.328,2.38,9.749,9.749,0,0,0,4.082.87,10.357,10.357,0,0,0,4.082-.813,10.115,10.115,0,0,0,3.346-2.282,10.752,10.752,0,0,0,2.266-3.561A12.4,12.4,0,0,0,286.26,625.863Z" transform="translate(146.987 144.114)" fill="#f0eb5b"/>
    <path id="Path_168149" data-name="Path 168149" d="M304.748,625.863a12.362,12.362,0,0,0-.831-4.626,11.008,11.008,0,0,0-2.266-3.559,9.784,9.784,0,0,0-3.346-2.284,10.909,10.909,0,0,0-8.164,0,9.617,9.617,0,0,0-3.328,2.284,10.914,10.914,0,0,0-2.225,3.559,12.573,12.573,0,0,0-.813,4.626,11.985,11.985,0,0,0,.813,4.45,11.164,11.164,0,0,0,2.225,3.559,10.4,10.4,0,0,0,3.328,2.38,9.749,9.749,0,0,0,4.082.87,10.357,10.357,0,0,0,4.082-.813,10.115,10.115,0,0,0,3.346-2.282,10.751,10.751,0,0,0,2.266-3.561A12.4,12.4,0,0,0,304.748,625.863Z" transform="translate(176.384 144.114)" fill="#f0eb5b"/>
    <path id="Path_168150" data-name="Path 168150" d="M249.282,639.943a12.288,12.288,0,0,0-.831-4.623,10.945,10.945,0,0,0-2.264-3.561,9.785,9.785,0,0,0-3.346-2.284,10.909,10.909,0,0,0-8.164,0,9.567,9.567,0,0,0-3.328,2.284,10.856,10.856,0,0,0-2.225,3.561,12.5,12.5,0,0,0-.813,4.623,11.925,11.925,0,0,0,.813,4.45,11.12,11.12,0,0,0,2.225,3.559,10.342,10.342,0,0,0,3.328,2.38,9.74,9.74,0,0,0,4.082.87,10.356,10.356,0,0,0,4.082-.811,10.122,10.122,0,0,0,3.346-2.284,10.706,10.706,0,0,0,2.264-3.561A12.323,12.323,0,0,0,249.282,639.943Z" transform="translate(88.193 166.502)" fill="#f0eb5b"/>
    <path id="Path_168151" data-name="Path 168151" d="M267.772,639.943a12.289,12.289,0,0,0-.834-4.623,10.944,10.944,0,0,0-2.264-3.561,9.784,9.784,0,0,0-3.346-2.284,10.909,10.909,0,0,0-8.164,0,9.566,9.566,0,0,0-3.328,2.284,10.855,10.855,0,0,0-2.225,3.561,12.55,12.55,0,0,0-.813,4.623,11.976,11.976,0,0,0,.813,4.45,11.119,11.119,0,0,0,2.225,3.559,10.342,10.342,0,0,0,3.328,2.38,9.741,9.741,0,0,0,4.082.87,10.356,10.356,0,0,0,4.082-.811,10.121,10.121,0,0,0,3.346-2.284,10.7,10.7,0,0,0,2.264-3.561A12.325,12.325,0,0,0,267.772,639.943Z" transform="translate(117.59 166.502)" fill="#f0eb5b"/>
    <path id="Path_168152" data-name="Path 168152" d="M286.26,639.943a12.34,12.34,0,0,0-.831-4.623,10.992,10.992,0,0,0-2.266-3.561,9.783,9.783,0,0,0-3.346-2.284,10.909,10.909,0,0,0-8.164,0,9.59,9.59,0,0,0-3.328,2.284,10.854,10.854,0,0,0-2.225,3.561,12.548,12.548,0,0,0-.813,4.623,11.975,11.975,0,0,0,.813,4.45,11.118,11.118,0,0,0,2.225,3.559,10.37,10.37,0,0,0,3.328,2.38,9.749,9.749,0,0,0,4.082.87,10.355,10.355,0,0,0,4.082-.811,10.12,10.12,0,0,0,3.346-2.284,10.751,10.751,0,0,0,2.266-3.561A12.376,12.376,0,0,0,286.26,639.943Z" transform="translate(146.987 166.502)" fill="#f0eb5b"/>
    <path id="Path_168153" data-name="Path 168153" d="M304.748,639.943a12.338,12.338,0,0,0-.831-4.623,10.991,10.991,0,0,0-2.266-3.561,9.783,9.783,0,0,0-3.346-2.284,10.909,10.909,0,0,0-8.164,0,9.615,9.615,0,0,0-3.328,2.284,10.9,10.9,0,0,0-2.225,3.561,12.548,12.548,0,0,0-.813,4.623,11.975,11.975,0,0,0,.813,4.45,11.165,11.165,0,0,0,2.225,3.559,10.4,10.4,0,0,0,3.328,2.38,9.749,9.749,0,0,0,4.082.87,10.356,10.356,0,0,0,4.082-.811,10.12,10.12,0,0,0,3.346-2.284,10.75,10.75,0,0,0,2.266-3.561A12.375,12.375,0,0,0,304.748,639.943Z" transform="translate(176.384 166.502)" fill="#f0eb5b"/>
    <path id="Path_168154" data-name="Path 168154" d="M249.282,655.738a12.307,12.307,0,0,0-.831-4.623,10.972,10.972,0,0,0-2.264-3.561,9.78,9.78,0,0,0-3.346-2.282,10.909,10.909,0,0,0-8.164,0,9.562,9.562,0,0,0-3.328,2.282,10.882,10.882,0,0,0-2.225,3.561,12.517,12.517,0,0,0-.813,4.623,11.938,11.938,0,0,0,.813,4.452,11.122,11.122,0,0,0,2.225,3.559,10.385,10.385,0,0,0,3.328,2.38,9.74,9.74,0,0,0,4.082.87,10.355,10.355,0,0,0,4.082-.813,10.153,10.153,0,0,0,3.346-2.282,10.7,10.7,0,0,0,2.264-3.561A12.346,12.346,0,0,0,249.282,655.738Z" transform="translate(88.193 191.621)" fill="#f0eb5b"/>
    <path id="Path_168155" data-name="Path 168155" d="M267.772,655.738a12.308,12.308,0,0,0-.834-4.623,10.971,10.971,0,0,0-2.264-3.561,9.779,9.779,0,0,0-3.346-2.282,10.909,10.909,0,0,0-8.164,0,9.561,9.561,0,0,0-3.328,2.282,10.881,10.881,0,0,0-2.225,3.561,12.57,12.57,0,0,0-.813,4.623,11.989,11.989,0,0,0,.813,4.452,11.121,11.121,0,0,0,2.225,3.559,10.385,10.385,0,0,0,3.328,2.38,9.741,9.741,0,0,0,4.082.87,10.356,10.356,0,0,0,4.082-.813,10.153,10.153,0,0,0,3.346-2.282,10.7,10.7,0,0,0,2.264-3.561A12.348,12.348,0,0,0,267.772,655.738Z" transform="translate(117.59 191.621)" fill="#f0eb5b"/>
    <path id="Path_168156" data-name="Path 168156" d="M286.26,655.738a12.359,12.359,0,0,0-.831-4.623,11.02,11.02,0,0,0-2.266-3.561,9.778,9.778,0,0,0-3.346-2.282,10.909,10.909,0,0,0-8.164,0,9.585,9.585,0,0,0-3.328,2.282,10.88,10.88,0,0,0-2.225,3.561,12.568,12.568,0,0,0-.813,4.623,11.988,11.988,0,0,0,.813,4.452,11.12,11.12,0,0,0,2.225,3.559,10.413,10.413,0,0,0,3.328,2.38,9.749,9.749,0,0,0,4.082.87,10.355,10.355,0,0,0,4.082-.813,10.151,10.151,0,0,0,3.346-2.282,10.75,10.75,0,0,0,2.266-3.561A12.4,12.4,0,0,0,286.26,655.738Z" transform="translate(146.987 191.621)" fill="#f0eb5b"/>
    <path id="Path_168157" data-name="Path 168157" d="M304.748,655.738a12.358,12.358,0,0,0-.831-4.623,11.019,11.019,0,0,0-2.266-3.561,9.778,9.778,0,0,0-3.346-2.282,10.909,10.909,0,0,0-8.164,0,9.61,9.61,0,0,0-3.328,2.282,10.925,10.925,0,0,0-2.225,3.561,12.568,12.568,0,0,0-.813,4.623,11.988,11.988,0,0,0,.813,4.452,11.167,11.167,0,0,0,2.225,3.559,10.443,10.443,0,0,0,3.328,2.38,9.749,9.749,0,0,0,4.082.87,10.355,10.355,0,0,0,4.082-.813,10.151,10.151,0,0,0,3.346-2.282,10.749,10.749,0,0,0,2.266-3.561A12.4,12.4,0,0,0,304.748,655.738Z" transform="translate(176.384 191.621)" fill="#f0eb5b"/>
    <path id="Path_168158" data-name="Path 168158" d="M193.819,595.482a12.31,12.31,0,0,0-.831-4.623,11.052,11.052,0,0,0-2.266-3.561,9.775,9.775,0,0,0-3.346-2.282,10.909,10.909,0,0,0-8.164,0,9.606,9.606,0,0,0-3.328,2.282,10.955,10.955,0,0,0-2.225,3.561,12.572,12.572,0,0,0-.813,4.623,11.99,11.99,0,0,0,.813,4.452,11.166,11.166,0,0,0,2.225,3.559,10.4,10.4,0,0,0,3.328,2.38,9.747,9.747,0,0,0,4.082.87,10.348,10.348,0,0,0,4.082-.813,10.116,10.116,0,0,0,3.346-2.282,10.752,10.752,0,0,0,2.266-3.561A12.347,12.347,0,0,0,193.819,595.482Z" transform="translate(0 95.811)" fill="#f0eb5b"/>
    <path id="Path_168159" data-name="Path 168159" d="M212.306,595.482a12.311,12.311,0,0,0-.831-4.623,11.046,11.046,0,0,0-2.264-3.561,9.824,9.824,0,0,0-3.346-2.282,10.916,10.916,0,0,0-8.166,0,9.606,9.606,0,0,0-3.328,2.282,10.955,10.955,0,0,0-2.225,3.561,12.572,12.572,0,0,0-.811,4.623,11.989,11.989,0,0,0,.811,4.452,11.167,11.167,0,0,0,2.225,3.559,10.4,10.4,0,0,0,3.328,2.38,9.756,9.756,0,0,0,4.082.87,10.37,10.37,0,0,0,4.085-.813,10.168,10.168,0,0,0,3.346-2.282,10.746,10.746,0,0,0,2.264-3.561A12.348,12.348,0,0,0,212.306,595.482Z" transform="translate(29.399 95.811)" fill="#f0eb5b"/>
    <path id="Path_168160" data-name="Path 168160" d="M230.794,595.482a12.311,12.311,0,0,0-.831-4.623A11.047,11.047,0,0,0,227.7,587.3a9.825,9.825,0,0,0-3.346-2.282,10.916,10.916,0,0,0-8.166,0,9.573,9.573,0,0,0-3.326,2.282,10.918,10.918,0,0,0-2.227,3.561,12.572,12.572,0,0,0-.811,4.623,11.989,11.989,0,0,0,.811,4.452,11.128,11.128,0,0,0,2.227,3.559,10.362,10.362,0,0,0,3.326,2.38,9.759,9.759,0,0,0,4.085.87,10.367,10.367,0,0,0,4.082-.813,10.169,10.169,0,0,0,3.346-2.282,10.747,10.747,0,0,0,2.264-3.561A12.348,12.348,0,0,0,230.794,595.482Z" transform="translate(58.796 95.811)" fill="#f0eb5b"/>
    <path id="Path_168161" data-name="Path 168161" d="M249.282,595.482a12.309,12.309,0,0,0-.831-4.623,11,11,0,0,0-2.264-3.561,9.776,9.776,0,0,0-3.346-2.282,10.909,10.909,0,0,0-8.164,0,9.558,9.558,0,0,0-3.328,2.282,10.912,10.912,0,0,0-2.225,3.561,12.519,12.519,0,0,0-.813,4.623,11.938,11.938,0,0,0,.813,4.452,11.122,11.122,0,0,0,2.225,3.559,10.344,10.344,0,0,0,3.328,2.38,9.738,9.738,0,0,0,4.082.87,10.358,10.358,0,0,0,4.082-.813,10.117,10.117,0,0,0,3.346-2.282,10.706,10.706,0,0,0,2.264-3.561A12.346,12.346,0,0,0,249.282,595.482Z" transform="translate(88.193 95.811)" fill="#f0eb5b"/>
    <path id="Path_168162" data-name="Path 168162" d="M193.819,610.674a12.312,12.312,0,0,0-.831-4.626,11.01,11.01,0,0,0-2.266-3.559,9.748,9.748,0,0,0-3.346-2.284,10.906,10.906,0,0,0-8.164,0,9.58,9.58,0,0,0-3.328,2.284,10.914,10.914,0,0,0-2.225,3.559,12.574,12.574,0,0,0-.813,4.626,11.986,11.986,0,0,0,.813,4.45,11.167,11.167,0,0,0,2.225,3.559,10.4,10.4,0,0,0,3.328,2.38,9.749,9.749,0,0,0,4.082.87,10.348,10.348,0,0,0,4.082-.813,10.117,10.117,0,0,0,3.346-2.282,10.75,10.75,0,0,0,2.266-3.561A12.342,12.342,0,0,0,193.819,610.674Z" transform="translate(0 119.962)" fill="#f0eb5b"/>
    <path id="Path_168163" data-name="Path 168163" d="M212.306,610.674a12.313,12.313,0,0,0-.831-4.626,11,11,0,0,0-2.264-3.559,9.8,9.8,0,0,0-3.346-2.284,10.913,10.913,0,0,0-8.166,0,9.579,9.579,0,0,0-3.328,2.284,10.914,10.914,0,0,0-2.225,3.559,12.574,12.574,0,0,0-.811,4.626,11.985,11.985,0,0,0,.811,4.45,11.168,11.168,0,0,0,2.225,3.559,10.4,10.4,0,0,0,3.328,2.38,9.758,9.758,0,0,0,4.082.87,10.37,10.37,0,0,0,4.085-.813,10.169,10.169,0,0,0,3.346-2.282,10.744,10.744,0,0,0,2.264-3.561A12.343,12.343,0,0,0,212.306,610.674Z" transform="translate(29.399 119.962)" fill="#f0eb5b"/>
    <path id="Path_168164" data-name="Path 168164" d="M230.794,610.674a12.313,12.313,0,0,0-.831-4.626,11.005,11.005,0,0,0-2.264-3.559,9.8,9.8,0,0,0-3.346-2.284,10.912,10.912,0,0,0-8.166,0,9.546,9.546,0,0,0-3.326,2.284,10.878,10.878,0,0,0-2.227,3.559,12.574,12.574,0,0,0-.811,4.626,11.985,11.985,0,0,0,.811,4.45,11.129,11.129,0,0,0,2.227,3.559,10.36,10.36,0,0,0,3.326,2.38,9.761,9.761,0,0,0,4.085.87,10.366,10.366,0,0,0,4.082-.813,10.17,10.17,0,0,0,3.346-2.282,10.745,10.745,0,0,0,2.264-3.561A12.343,12.343,0,0,0,230.794,610.674Z" transform="translate(58.796 119.962)" fill="#f0eb5b"/>
    <path id="Path_168165" data-name="Path 168165" d="M249.282,610.674a12.312,12.312,0,0,0-.831-4.626,10.961,10.961,0,0,0-2.264-3.559,9.749,9.749,0,0,0-3.346-2.284,10.906,10.906,0,0,0-8.164,0,9.532,9.532,0,0,0-3.328,2.284,10.872,10.872,0,0,0-2.225,3.559,12.522,12.522,0,0,0-.813,4.626,11.934,11.934,0,0,0,.813,4.45,11.123,11.123,0,0,0,2.225,3.559,10.342,10.342,0,0,0,3.328,2.38,9.74,9.74,0,0,0,4.082.87,10.357,10.357,0,0,0,4.082-.813,10.117,10.117,0,0,0,3.346-2.282,10.7,10.7,0,0,0,2.264-3.561A12.342,12.342,0,0,0,249.282,610.674Z" transform="translate(88.193 119.962)" fill="#f0eb5b"/>
    <path id="Path_168166" data-name="Path 168166" d="M193.819,625.863a12.312,12.312,0,0,0-.831-4.626,11.01,11.01,0,0,0-2.266-3.559,9.786,9.786,0,0,0-3.346-2.284,10.909,10.909,0,0,0-8.164,0,9.616,9.616,0,0,0-3.328,2.284,10.914,10.914,0,0,0-2.225,3.559,12.574,12.574,0,0,0-.813,4.626,11.986,11.986,0,0,0,.813,4.45,11.164,11.164,0,0,0,2.225,3.559,10.4,10.4,0,0,0,3.328,2.38,9.749,9.749,0,0,0,4.082.87,10.348,10.348,0,0,0,4.082-.813,10.116,10.116,0,0,0,3.346-2.282,10.753,10.753,0,0,0,2.266-3.561A12.344,12.344,0,0,0,193.819,625.863Z" transform="translate(0 144.114)" fill="#f0eb5b"/>
    <path id="Path_168167" data-name="Path 168167" d="M212.306,625.863a12.313,12.313,0,0,0-.831-4.626,11,11,0,0,0-2.264-3.559,9.835,9.835,0,0,0-3.346-2.284,10.916,10.916,0,0,0-8.166,0,9.616,9.616,0,0,0-3.328,2.284,10.914,10.914,0,0,0-2.225,3.559,12.574,12.574,0,0,0-.811,4.626,11.985,11.985,0,0,0,.811,4.45,11.164,11.164,0,0,0,2.225,3.559,10.4,10.4,0,0,0,3.328,2.38,9.758,9.758,0,0,0,4.082.87,10.37,10.37,0,0,0,4.085-.813,10.169,10.169,0,0,0,3.346-2.282,10.747,10.747,0,0,0,2.264-3.561A12.344,12.344,0,0,0,212.306,625.863Z" transform="translate(29.399 144.114)" fill="#f0eb5b"/>
    <path id="Path_168168" data-name="Path 168168" d="M230.794,625.863a12.313,12.313,0,0,0-.831-4.626,11.005,11.005,0,0,0-2.264-3.559,9.836,9.836,0,0,0-3.346-2.284,10.916,10.916,0,0,0-8.166,0,9.583,9.583,0,0,0-3.326,2.284,10.878,10.878,0,0,0-2.227,3.559,12.574,12.574,0,0,0-.811,4.626,11.985,11.985,0,0,0,.811,4.45,11.126,11.126,0,0,0,2.227,3.559,10.36,10.36,0,0,0,3.326,2.38,9.761,9.761,0,0,0,4.085.87,10.367,10.367,0,0,0,4.082-.813,10.17,10.17,0,0,0,3.346-2.282,10.748,10.748,0,0,0,2.264-3.561A12.344,12.344,0,0,0,230.794,625.863Z" transform="translate(58.796 144.114)" fill="#f0eb5b"/>
    <path id="Path_168169" data-name="Path 168169" d="M249.282,625.863a12.312,12.312,0,0,0-.831-4.626,10.961,10.961,0,0,0-2.264-3.559,9.786,9.786,0,0,0-3.346-2.284,10.909,10.909,0,0,0-8.164,0,9.568,9.568,0,0,0-3.328,2.284,10.872,10.872,0,0,0-2.225,3.559,12.522,12.522,0,0,0-.813,4.626,11.934,11.934,0,0,0,.813,4.45,11.119,11.119,0,0,0,2.225,3.559,10.342,10.342,0,0,0,3.328,2.38,9.74,9.74,0,0,0,4.082.87,10.358,10.358,0,0,0,4.082-.813,10.117,10.117,0,0,0,3.346-2.282,10.706,10.706,0,0,0,2.264-3.561A12.343,12.343,0,0,0,249.282,625.863Z" transform="translate(88.193 144.114)" fill="#f0eb5b"/>
    <path id="Path_168170" data-name="Path 168170" d="M193.819,639.943a12.288,12.288,0,0,0-.831-4.623,10.993,10.993,0,0,0-2.266-3.561,9.784,9.784,0,0,0-3.346-2.284,10.909,10.909,0,0,0-8.164,0,9.615,9.615,0,0,0-3.328,2.284,10.9,10.9,0,0,0-2.225,3.561,12.55,12.55,0,0,0-.813,4.623,11.976,11.976,0,0,0,.813,4.45,11.164,11.164,0,0,0,2.225,3.559,10.4,10.4,0,0,0,3.328,2.38,9.749,9.749,0,0,0,4.082.87,10.346,10.346,0,0,0,4.082-.811,10.121,10.121,0,0,0,3.346-2.284,10.752,10.752,0,0,0,2.266-3.561A12.324,12.324,0,0,0,193.819,639.943Z" transform="translate(0 166.502)" fill="#f0eb5b"/>
    <path id="Path_168171" data-name="Path 168171" d="M212.306,639.943a12.289,12.289,0,0,0-.831-4.623,10.987,10.987,0,0,0-2.264-3.561,9.833,9.833,0,0,0-3.346-2.284,10.916,10.916,0,0,0-8.166,0,9.614,9.614,0,0,0-3.328,2.284,10.9,10.9,0,0,0-2.225,3.561,12.55,12.55,0,0,0-.811,4.623,11.975,11.975,0,0,0,.811,4.45,11.165,11.165,0,0,0,2.225,3.559,10.4,10.4,0,0,0,3.328,2.38,9.758,9.758,0,0,0,4.082.87,10.368,10.368,0,0,0,4.085-.811,10.174,10.174,0,0,0,3.346-2.284,10.746,10.746,0,0,0,2.264-3.561A12.324,12.324,0,0,0,212.306,639.943Z" transform="translate(29.399 166.502)" fill="#f0eb5b"/>
    <path id="Path_168172" data-name="Path 168172" d="M230.794,639.943a12.289,12.289,0,0,0-.831-4.623,10.988,10.988,0,0,0-2.264-3.561,9.834,9.834,0,0,0-3.346-2.284,10.916,10.916,0,0,0-8.166,0,9.581,9.581,0,0,0-3.326,2.284,10.861,10.861,0,0,0-2.227,3.561,12.55,12.55,0,0,0-.811,4.623,11.975,11.975,0,0,0,.811,4.45,11.126,11.126,0,0,0,2.227,3.559,10.36,10.36,0,0,0,3.326,2.38,9.761,9.761,0,0,0,4.085.87,10.365,10.365,0,0,0,4.082-.811,10.175,10.175,0,0,0,3.346-2.284,10.747,10.747,0,0,0,2.264-3.561A12.324,12.324,0,0,0,230.794,639.943Z" transform="translate(58.796 166.502)" fill="#f0eb5b"/>
    <path id="Path_168173" data-name="Path 168173" d="M249.282,639.943a12.288,12.288,0,0,0-.831-4.623,10.945,10.945,0,0,0-2.264-3.561,9.785,9.785,0,0,0-3.346-2.284,10.909,10.909,0,0,0-8.164,0,9.567,9.567,0,0,0-3.328,2.284,10.856,10.856,0,0,0-2.225,3.561,12.5,12.5,0,0,0-.813,4.623,11.925,11.925,0,0,0,.813,4.45,11.12,11.12,0,0,0,2.225,3.559,10.342,10.342,0,0,0,3.328,2.38,9.74,9.74,0,0,0,4.082.87,10.356,10.356,0,0,0,4.082-.811,10.122,10.122,0,0,0,3.346-2.284,10.706,10.706,0,0,0,2.264-3.561A12.323,12.323,0,0,0,249.282,639.943Z" transform="translate(88.193 166.502)" fill="#f0eb5b"/>
    <path id="Path_168174" data-name="Path 168174" d="M193.819,655.738a12.308,12.308,0,0,0-.831-4.623,11.021,11.021,0,0,0-2.266-3.561,9.779,9.779,0,0,0-3.346-2.282,10.909,10.909,0,0,0-8.164,0,9.61,9.61,0,0,0-3.328,2.282,10.925,10.925,0,0,0-2.225,3.561,12.57,12.57,0,0,0-.813,4.623,11.989,11.989,0,0,0,.813,4.452,11.166,11.166,0,0,0,2.225,3.559,10.442,10.442,0,0,0,3.328,2.38,9.749,9.749,0,0,0,4.082.87,10.346,10.346,0,0,0,4.082-.813,10.153,10.153,0,0,0,3.346-2.282,10.751,10.751,0,0,0,2.266-3.561A12.347,12.347,0,0,0,193.819,655.738Z" transform="translate(0 191.621)" fill="#f0eb5b"/>
    <path id="Path_168175" data-name="Path 168175" d="M212.306,655.738a12.308,12.308,0,0,0-.831-4.623,11.015,11.015,0,0,0-2.264-3.561,9.828,9.828,0,0,0-3.346-2.282,10.916,10.916,0,0,0-8.166,0,9.609,9.609,0,0,0-3.328,2.282,10.925,10.925,0,0,0-2.225,3.561,12.57,12.57,0,0,0-.811,4.623,11.988,11.988,0,0,0,.811,4.452,11.167,11.167,0,0,0,2.225,3.559,10.442,10.442,0,0,0,3.328,2.38,9.758,9.758,0,0,0,4.082.87,10.368,10.368,0,0,0,4.085-.813,10.206,10.206,0,0,0,3.346-2.282,10.745,10.745,0,0,0,2.264-3.561A12.348,12.348,0,0,0,212.306,655.738Z" transform="translate(29.399 191.621)" fill="#f0eb5b"/>
    <path id="Path_168176" data-name="Path 168176" d="M230.794,655.738a12.308,12.308,0,0,0-.831-4.623,11.016,11.016,0,0,0-2.264-3.561,9.829,9.829,0,0,0-3.346-2.282,10.916,10.916,0,0,0-8.166,0,9.576,9.576,0,0,0-3.326,2.282,10.888,10.888,0,0,0-2.227,3.561,12.57,12.57,0,0,0-.811,4.623,11.988,11.988,0,0,0,.811,4.452,11.128,11.128,0,0,0,2.227,3.559,10.4,10.4,0,0,0,3.326,2.38,9.761,9.761,0,0,0,4.085.87,10.364,10.364,0,0,0,4.082-.813A10.207,10.207,0,0,0,227.7,663.9a10.746,10.746,0,0,0,2.264-3.561A12.348,12.348,0,0,0,230.794,655.738Z" transform="translate(58.796 191.621)" fill="#f0eb5b"/>
    <path id="Path_168177" data-name="Path 168177" d="M249.282,655.738a12.307,12.307,0,0,0-.831-4.623,10.972,10.972,0,0,0-2.264-3.561,9.78,9.78,0,0,0-3.346-2.282,10.909,10.909,0,0,0-8.164,0,9.562,9.562,0,0,0-3.328,2.282,10.882,10.882,0,0,0-2.225,3.561,12.517,12.517,0,0,0-.813,4.623,11.938,11.938,0,0,0,.813,4.452,11.122,11.122,0,0,0,2.225,3.559,10.385,10.385,0,0,0,3.328,2.38,9.74,9.74,0,0,0,4.082.87,10.355,10.355,0,0,0,4.082-.813,10.153,10.153,0,0,0,3.346-2.282,10.7,10.7,0,0,0,2.264-3.561A12.346,12.346,0,0,0,249.282,655.738Z" transform="translate(88.193 191.621)" fill="#f0eb5b"/>
  </g>
</svg> 
