<svg xmlns="http://www.w3.org/2000/svg" width="293.403" height="45.774" viewBox="0 0 293.403 45.774">
  <g id="Group_43554" data-name="Group 43554" transform="matrix(0.017, -1, 1, 0.017, -449.613, 343.35)">
    <path id="Path_168248" data-name="Path 168248" d="M188.746,292.338,209.081,320.3l20.336-27.964A34.577,34.577,0,0,0,188.746,292.338Z" transform="translate(121.74 223.076)" fill="#3eb6ae"/>
    <path id="Path_168249" data-name="Path 168249" d="M188.746,259.584l20.335,27.966,20.336-27.966A34.583,34.583,0,0,0,188.746,259.584Z" transform="translate(121.74 191.289)" fill="#3eb6ae"/>
    <path id="Path_168250" data-name="Path 168250" d="M188.746,325.089l20.335,27.966,20.336-27.966A34.583,34.583,0,0,0,188.746,325.089Z" transform="translate(121.74 254.864)" fill="#3eb6ae"/>
    <path id="Path_168251" data-name="Path 168251" d="M188.746,357.842l20.335,27.966,20.336-27.966A34.583,34.583,0,0,0,188.746,357.842Z" transform="translate(121.74 286.651)" fill="#3eb6ae"/>
    <path id="Path_168252" data-name="Path 168252" d="M188.746,390.6l20.335,27.966L229.417,390.6A34.577,34.577,0,0,0,188.746,390.6Z" transform="translate(121.74 318.439)" fill="#3eb6ae"/>
  </g>
</svg>
