<svg xmlns="http://www.w3.org/2000/svg" width="196.82" height="331.76" viewBox="0 0 196.82 331.76">
  <g id="Group_42929" data-name="Group 42929" transform="translate(-334.533 -522.518)">
    <g id="Group_42928" data-name="Group 42928" transform="translate(334.533 522.518)">
      <path id="Path_168224" data-name="Path 168224" d="M406.462,664.439V659.85H425.67v-7.716h4.606v20H425.67v-7.7Z" transform="translate(-233.456 -340.378)" fill="#845ecc"/>
      <path id="Path_168225" data-name="Path 168225" d="M381.008,664.439V659.85h19.208v-7.716h4.606v20h-4.606v-7.7Z" transform="translate(-269.225 -340.378)" fill="#845ecc"/>
      <path id="Path_168226" data-name="Path 168226" d="M355.554,664.439V659.85h19.208v-7.716h4.606v20h-4.606v-7.7Z" transform="translate(-304.994 -340.378)" fill="#845ecc"/>
      <path id="Path_168227" data-name="Path 168227" d="M379.368,633.91V638.5H360.163v7.716h-4.608v-20h4.608v7.7Z" transform="translate(-304.994 -376.806)" fill="#845ecc"/>
      <path id="Path_168228" data-name="Path 168228" d="M404.822,633.91V638.5H385.616v7.716h-4.608v-20h4.608v7.7Z" transform="translate(-269.225 -376.806)" fill="#845ecc"/>
      <path id="Path_168229" data-name="Path 168229" d="M430.276,633.91V638.5H411.07v7.716h-4.608v-20h4.608v7.7Z" transform="translate(-233.456 -376.806)" fill="#845ecc"/>
      <path id="Path_168230" data-name="Path 168230" d="M406.462,560.746v-4.592H425.67v-7.714h4.606v20H425.67v-7.7Z" transform="translate(-233.456 -486.09)" fill="#845ecc"/>
      <path id="Path_168231" data-name="Path 168231" d="M381.008,560.746v-4.592h19.208v-7.714h4.606v20h-4.606v-7.7Z" transform="translate(-269.225 -486.09)" fill="#845ecc"/>
      <path id="Path_168232" data-name="Path 168232" d="M355.554,560.746v-4.592h19.208v-7.714h4.606v20h-4.606v-7.7Z" transform="translate(-304.994 -486.09)" fill="#845ecc"/>
      <path id="Path_168233" data-name="Path 168233" d="M379.368,530.215v4.592H360.163v7.714h-4.608v-20h4.608v7.7Z" transform="translate(-304.994 -522.518)" fill="#845ecc"/>
      <path id="Path_168234" data-name="Path 168234" d="M404.822,530.215v4.592H385.616v7.714h-4.608v-20h4.608v7.7Z" transform="translate(-269.225 -522.518)" fill="#845ecc"/>
      <path id="Path_168235" data-name="Path 168235" d="M430.276,530.215v4.592H411.07v7.714h-4.608v-20h4.608v7.7Z" transform="translate(-233.456 -522.518)" fill="#845ecc"/>
      <path id="Path_168236" data-name="Path 168236" d="M406.462,612.593V608H425.67v-7.713h4.606v20H425.67v-7.7Z" transform="translate(-233.456 -413.233)" fill="#845ecc"/>
      <path id="Path_168237" data-name="Path 168237" d="M381.008,612.593V608h19.208v-7.713h4.606v20h-4.606v-7.7Z" transform="translate(-269.225 -413.233)" fill="#845ecc"/>
      <path id="Path_168238" data-name="Path 168238" d="M355.554,612.593V608h19.208v-7.713h4.606v20h-4.606v-7.7Z" transform="translate(-304.994 -413.233)" fill="#845ecc"/>
      <path id="Path_168239" data-name="Path 168239" d="M379.368,582.063v4.592H360.163v7.714h-4.608v-20h4.608v7.7Z" transform="translate(-304.994 -449.663)" fill="#845ecc"/>
      <path id="Path_168240" data-name="Path 168240" d="M334.533,664.439V659.85h19.206v-7.716h4.608v20h-4.608v-7.7Z" transform="translate(-334.533 -340.378)" fill="#845ecc"/>
      <path id="Path_168241" data-name="Path 168241" d="M358.347,633.91V638.5H339.139v7.716h-4.606v-20h4.606v7.7Z" transform="translate(-334.533 -376.806)" fill="#845ecc"/>
      <path id="Path_168242" data-name="Path 168242" d="M334.533,560.746v-4.592h19.206v-7.714h4.608v20h-4.608v-7.7Z" transform="translate(-334.533 -486.09)" fill="#845ecc"/>
      <path id="Path_168243" data-name="Path 168243" d="M358.347,530.215v4.592H339.139v7.714h-4.606v-20h4.606v7.7Z" transform="translate(-334.533 -522.518)" fill="#845ecc"/>
      <path id="Path_168244" data-name="Path 168244" d="M334.533,612.593V608h19.206v-7.713h4.608v20h-4.608v-7.7Z" transform="translate(-334.533 -413.233)" fill="#845ecc"/>
      <path id="Path_168245" data-name="Path 168245" d="M358.347,582.063v4.592H339.139v7.714h-4.606v-20h4.606v7.7Z" transform="translate(-334.533 -449.663)" fill="#845ecc"/>
      <path id="Path_168246" data-name="Path 168246" d="M404.822,582.063v4.592H385.616v7.714h-4.608v-20h4.608v7.7Z" transform="translate(-269.225 -449.663)" fill="#845ecc"/>
      <path id="Path_168247" data-name="Path 168247" d="M430.276,582.063v4.592H411.07v7.714h-4.608v-20h4.608v7.7Z" transform="translate(-233.456 -449.663)" fill="#845ecc"/>
    </g>
  </g>
</svg>
