<svg xmlns="http://www.w3.org/2000/svg" width="29.997" height="36.858" viewBox="0 0 29.997 36.858"><path id="Path_669" data-name="Path 669" d="M76.249,44.476a8.375,8.375,0,0,1,3.99-7.027A8.581,8.581,0,0,0,73.482,33.8c-2.843-.3-5.6,1.7-7.048,1.7-1.477,0-3.707-1.672-6.11-1.622a9,9,0,0,0-7.573,4.617c-3.275,5.668-.832,14,2.305,18.578,1.569,2.245,3.4,4.749,5.8,4.661,2.348-.1,3.226-1.5,6.06-1.5,2.808,0,3.632,1.5,6.08,1.439,2.52-.039,4.107-2.254,5.622-4.518a18.518,18.518,0,0,0,2.571-5.234A8.1,8.1,0,0,1,76.249,44.476ZM71.625,30.783a8.242,8.242,0,0,0,1.887-5.908,8.4,8.4,0,0,0-5.431,2.809,7.844,7.844,0,0,0-1.937,5.69A6.939,6.939,0,0,0,71.625,30.783Z" transform="translate(-51.195 -24.875)" fill="#6a7081"/></svg>
