<svg xmlns="http://www.w3.org/2000/svg" width="38.181" height="274.818" viewBox="0 0 38.181 274.818">
  <g id="Group_43320" data-name="Group 43320" transform="translate(-162.746 -2671.603)">
    <path id="Path_168248" data-name="Path 168248" d="M188.746,291.933l19.091,26.252,19.091-26.252A32.46,32.46,0,0,0,188.746,291.933Z" transform="translate(-26 2446.467)" fill="#3eb6ae"/>
    <path id="Path_168249" data-name="Path 168249" d="M188.746,259.179l19.091,26.254,19.091-26.254A32.466,32.466,0,0,0,188.746,259.179Z" transform="translate(-26 2418.63)" fill="#3eb6ae"/>
    <path id="Path_168250" data-name="Path 168250" d="M188.746,324.684l19.091,26.254,19.091-26.254A32.466,32.466,0,0,0,188.746,324.684Z" transform="translate(-26 2474.303)" fill="#3eb6ae"/>
    <path id="Path_168251" data-name="Path 168251" d="M188.746,357.437l19.091,26.254,19.091-26.254A32.466,32.466,0,0,0,188.746,357.437Z" transform="translate(-26 2502.141)" fill="#3eb6ae"/>
    <path id="Path_168252" data-name="Path 168252" d="M188.746,391.834l19.091,33.206,19.091-33.206C215.571,381.366,200.1,381.366,188.746,391.834Z" transform="translate(-26 2521.381)" fill="#3eb6ae"/>
  </g>
</svg>
