<svg xmlns="http://www.w3.org/2000/svg" width="10.214" height="9.003" viewBox="0 0 260.214 79.003">
    <g id="Group_43594" data-name="Group 43594" transform="translate(-1604.615 -974.221)">
        <g id="Group_42925" data-name="Group 42925" transform="translate(1604.615 974.221)">
            <path id="Path_168205" data-name="Path 168205" d="M91.976,482.107a39.763,39.763,0,0,1,12.633,2.635,35.359,35.359,0,0,1,11.744,7.469,33.439,33.439,0,0,1,7.532,11.038,34.143,34.143,0,0,1,2.678,13.466,32.631,32.631,0,0,1-1.341,9.245h35.7a70.94,70.94,0,0,0,.615-9.245,67.251,67.251,0,0,0-5.554-27.249A69.9,69.9,0,0,0,140.8,467.324a71.472,71.472,0,0,0-22.847-14.936,72.987,72.987,0,0,0-25.975-5.431Z" transform="translate(-91.976 -446.957)" fill="#3eb6ae"/>
        </g>
        <g id="Group_42926" data-name="Group 42926" transform="translate(1699.94 974.221)">
            <path id="Path_168206" data-name="Path 168206" d="M134.767,482.107a39.764,39.764,0,0,1,12.635,2.635,35.358,35.358,0,0,1,11.744,7.469,33.439,33.439,0,0,1,7.532,11.038,34.182,34.182,0,0,1,2.678,13.466,32.63,32.63,0,0,1-1.341,9.245h35.7a70.942,70.942,0,0,0,.615-9.245,67.252,67.252,0,0,0-5.554-27.249,69.875,69.875,0,0,0-15.188-22.143,71.423,71.423,0,0,0-22.847-14.936,72.967,72.967,0,0,0-25.975-5.431Z" transform="translate(-134.767 -446.957)" fill="#3eb6ae"/>
        </g>
        <g id="Group_42927" data-name="Group 42927" transform="translate(1795.266 974.221)">
            <path id="Path_168207" data-name="Path 168207" d="M177.559,482.107a39.764,39.764,0,0,1,12.635,2.635,35.358,35.358,0,0,1,11.744,7.469,33.439,33.439,0,0,1,7.532,11.038,34.182,34.182,0,0,1,2.678,13.466,32.63,32.63,0,0,1-1.341,9.245h35.7a71.324,71.324,0,0,0,.615-9.245,67.252,67.252,0,0,0-5.554-27.249,69.911,69.911,0,0,0-15.188-22.143,71.447,71.447,0,0,0-22.847-14.936,72.966,72.966,0,0,0-25.975-5.431Z" transform="translate(-177.559 -446.957)" fill="#3eb6ae"/>
        </g>
    </g>
</svg>
