<svg xmlns="http://www.w3.org/2000/svg" width="126.767" height="126.767" viewBox="0 0 126.767 126.767">
  <g id="virgin-logo-vector" style="isolation: isolate">
    <path id="Path_168033" data-name="Path 168033" d="M63.383,0A63.383,63.383,0,1,1,0,63.383,63.506,63.506,0,0,1,63.383,0Z" fill="#cc2229" fill-rule="evenodd"/>
    <path id="Path_168034" data-name="Path 168034" d="M35.133,52.18C32.1,53.59,31.7,58.812,30.949,61.8l-.656,2.515a13.707,13.707,0,0,0-.653,2.345c-.271,1.828-.229,5.341,2.1,5.341l.636-.07c.679-.534,1.028-.589,1.372-1.492a10.121,10.121,0,0,0,.332-2.8q.15-1.192.3-2.386c.24-1.587.545-3.152.83-4.715.229-1.279.688-2.5.9-3.8.212-1.311,1-4.25-.977-4.567Zm9.458-7.031a4.151,4.151,0,0,0-1.273.487,4.844,4.844,0,0,0-1.1,1.453c-.454.727-.9,1.459-1.307,2.2a2.015,2.015,0,0,1-.52.66c-.388.268-.878.389-1.145.835a7.84,7.84,0,0,0-.823,2.725,45.186,45.186,0,0,0-.668,4.717c-.1,1.208-.2,4.975.4,5.787a1.633,1.633,0,0,0,1.352.47,3.207,3.207,0,0,1,.987-.07,2.872,2.872,0,0,0,1.151-.943,5.421,5.421,0,0,0,.568-1.39,44.121,44.121,0,0,0,.724-4.843q.122-1.156.243-2.315c.06-.279.18-.765.465-.9.384-.18.994.123,1.436.123.182-.081.366-.162.547-.247a2.225,2.225,0,0,0,.757-.762c.163-.387.329-.771.492-1.157a5.935,5.935,0,0,0-.675-5.631c-.606-.837-.375-1-1.614-1.2Zm-9.175-5.273a2.049,2.049,0,0,0-.86.668,3.546,3.546,0,0,0-.419,1.579c-.113,1.417.09,2.788,1.517,3.3.9.325,1.643-.611,1.992-1.237.031-.06.15-.165.029-.165.32-1.2.07-3.447-1.164-4.012A2.842,2.842,0,0,0,35.416,39.876Zm30.208-2.039a2.366,2.366,0,0,0-.944.729,11.655,11.655,0,0,0-1.3,3.534c-.363,1.331-.737,2.693-1.033,4.045-.364,1.648-.629,3.278-1.089,4.843-.329,1.11-.686,3.671.844,4.04a2.511,2.511,0,0,0,2.555-1.12,11.347,11.347,0,0,0,.921-3.832c.219-1.267.743-2.454.915-3.715.118-.969.237-1.935.353-2.9.246-1.2,1.154-2.16.93-3.573a2.07,2.07,0,0,0-2.152-2.045Zm16.444-8.085a5.729,5.729,0,0,0-1.673.725A21.837,21.837,0,0,0,77.7,33.484q-.553.682-1.106,1.362a1.516,1.516,0,0,1-.811.459.855.855,0,0,1-.211-.422,3.693,3.693,0,0,0-.328-1.16c-.752-1.123-2.313.058-2.735.9a22.893,22.893,0,0,0-.8,2.41L69.97,42.771q-.145,1.109-.293,2.215a19.526,19.526,0,0,0-.661,2.342c-.169,1.035-.55,3.619.366,4.328a1.636,1.636,0,0,0,1.042.308c1.457.022,2.19-1.149,2.592-2.322.962-2.83,1.782-5.693,3-8.387a9.64,9.64,0,0,1,2-3.159,2.221,2.221,0,0,1,.9-.694c.613-.165.871.321.864.855a14.691,14.691,0,0,1-.367,2.324c-.184,1.069-.367,2.143-.553,3.212a11.768,11.768,0,0,0-.438,2.619,2.128,2.128,0,0,0,.445,1.229c.3.38.986.639.953,1.228-.057.967-3.487,2.854-4.311,3.163a16.962,16.962,0,0,0-4.2,2.7q-.974.689-1.944,1.376a27.545,27.545,0,0,1-3.156,1.87c-.724.47-1.447.943-2.17,1.413q-.888.527-1.774,1.052l-1.706,1.176c-.532.356-.963.9-1.522,1.207-.077.039-.61.2-.61.042h-.071a21.21,21.21,0,0,1,.244-2.254l.047-2.176c.054-.7.112-1.4.168-2.107a36.327,36.327,0,0,1,.924-4.86c.3-1.353.545-2.753.854-4.076.195-.837,1.09-4.357-.341-4.6a2.839,2.839,0,0,0-2.516,1.164,15.128,15.128,0,0,0-1.669,3.991,44.217,44.217,0,0,1-2.385,5.763c-.252.487-1.457,3.036-2.033,3.036a4.169,4.169,0,0,1,.076-2.741c.016-.067.116-.211,0-.211.3-.731.461-1.754.721-2.525a19.946,19.946,0,0,1,1.365-2.931,5.991,5.991,0,0,1,.989-1.389c.274-.22.551-.439.826-.66a4.2,4.2,0,0,0,1.27-2.214c.271-1.222-.059-3.744-1.505-3.885a2.205,2.205,0,0,0-.987.231c-1.847.747-2.51,2.98-3.265,4.566a42.793,42.793,0,0,0-3.543,10.08,50.2,50.2,0,0,0-.507,5.252c-.167,1.82-.231,4.081,1.079,5.3,1.386,1.294,3.99-1.1,4.867-2.151.186-.224,1.174-1.736,1.372-1.736v-.07h.07v.141a8.19,8.19,0,0,1,.071,2.6,8,8,0,0,1-.758,3.474A6.71,6.71,0,0,1,52.4,69.239c-.977.881-2.046,1.612-2.964,2.529a31.341,31.341,0,0,1-2.322,2.606,16.777,16.777,0,0,1-2.381,1.219,7.823,7.823,0,0,0-1.246,1.071c-.278.219-.553.438-.831.659-1,.844-1.277,2.2-2.324,3.015l-1.086.755c-1.462,1.132-2.9,2.323-4.355,3.457-1.167.9-2.32,1.788-3.421,2.784Q30.1,88.5,28.728,89.665q-.39.349-.783.7-1.029.945-2.055,1.89A24.711,24.711,0,0,1,23.345,94.7a9.13,9.13,0,0,0-2.163,1.781,4.937,4.937,0,0,0-.543.852c-.329.745-.706,2.793-.093,3.472,1.507,1.667,5.47-3.155,6.567-4.089,1.724-1.474,3.22-3.226,4.879-4.775q4.541-4.263,8.878-8.736a11.251,11.251,0,0,1,2.092-1.439,9.779,9.779,0,0,0,1.88-1.851c.27-.271.538-.537.808-.809q1.451-1.291,2.9-2.586c.5-.358,1.034-.571,1.515-.967.163-.21.327-.421.487-.632a5,5,0,0,1,1.632-1.434.691.691,0,0,1,.5.026.785.785,0,0,1,.261.6c-.049.538-.1,1.077-.149,1.615q-.159,2.531-.32,5.064c.043,1.635-.092,3.421-.116,5.061l.006,2.461c-.024,1.52.047,3.181.119,4.711.071,1.506.071,3.021.163,4.5q.1,1.3.192,2.6l-.059,2.32c0,1.464.176,4.614,1.169,5.429a1.648,1.648,0,0,0,1.231.343,2.6,2.6,0,0,0,1.222-.354c2.272-1.4.865-6,.689-8.232l-.616-4.853-.5-5.622c-.119-1.239-.121-2.527-.121-3.792a63.159,63.159,0,0,1,.694-9.7A20.232,20.232,0,0,1,57.7,70.844,9.31,9.31,0,0,1,60.51,67.56q.754-.485,1.51-.971a17.236,17.236,0,0,0,2.785-2.282,19.608,19.608,0,0,1,1.551-1.615A21.5,21.5,0,0,1,68.838,61.2c.521-.319.936-.876,1.437-1.221,1.339-.929,2.872-1.635,4.281-2.43l1.83-1.239q4.379-2.641,8.936-4.968a44.243,44.243,0,0,1,6.252-2.794q1.341-.56,2.678-1.123a7.253,7.253,0,0,1,1.522-.688,5.94,5.94,0,0,1,2.658.4,5.611,5.611,0,0,0,1.215.053l.889-.329A3.066,3.066,0,0,0,101.621,46a4.707,4.707,0,0,0,.66-1.261c.618-1.607,1.439-3.548-.352-4.886a2.4,2.4,0,0,0-1.3-.527A7.907,7.907,0,0,0,96.8,40.609c-.431.149-.857.3-1.288.445-.568.251-1.054.741-1.614,1.015-.577.277-1.215.424-1.775.734q-1.041.534-2.084,1.065A9.374,9.374,0,0,1,86.8,45.1a3.011,3.011,0,0,1-1.722-.551,4.5,4.5,0,0,1-1.631-2.289,11.476,11.476,0,0,1,.274-4.08l.2-2.239c.068-.872.243-1.795.274-2.742a4.915,4.915,0,0,0-.355-2.531,1.914,1.914,0,0,0-1.771-.915ZM70.492,24.478c-.305.283-.653.455-.844.841a3.986,3.986,0,0,0-.217,1.688c-.012.3-.022.606-.036.909a1.585,1.585,0,0,0,2.081,1.515c.843-.158.944-1.167,1.089-1.856a4.589,4.589,0,0,0,.219-1.756,1.627,1.627,0,0,0-.527-.919,2.644,2.644,0,0,0-1.763-.424ZM47.06,1.557a3.306,3.306,0,0,0-1.321.791A19.484,19.484,0,0,0,43.627,5.82a53.732,53.732,0,0,0-3.361,6.415c-.232.516-.463,1.032-.7,1.549l-.58,1.5c-.318.745-.476,1.56-.792,2.283-.309.7-.871,1.259-1.222,1.92l-1.383,2.755c-.265.6-.527,1.19-.792,1.784-.384.723-.836,1.418-1.178,2.158-.681,1.47-1.163,3.06-1.713,4.6l-1.238,3L29.3,37.04c-1.288,2.7-2.237,5.622-3.322,8.437l-.8,2.2-2.031,5.838c-1.423,4.1-2.282,8.417-3.655,12.523-.318.945-.619,1.9-.854,2.876a6.048,6.048,0,0,1-.854,2.535c-.117.135-.349.261-.516.125-.373-.306-.5-5.686-.578-6.673-.315-3.876-.2-8.071-.132-11.952.05-3.263-.011-6.642-.062-9.913l-.07-2.461c0-1.635.053-6.286-1.7-6.576-1.887-.314-3.217,4.082-3.705,5.282A32.973,32.973,0,0,0,9.977,43.51a27.487,27.487,0,0,1-1.131,3.3C7.482,50.2,5.3,53.173,4.024,56.609a12.64,12.64,0,0,0-.7,2.252c-.169.984-.1,3.087.755,3.636a1.806,1.806,0,0,0,2.1-.21A10.1,10.1,0,0,0,7.3,59.878c.3-.62.591-1.237.885-1.856.384-.817.906-1.584,1.277-2.423.456-1.036.615-2.228,1.056-3.271.19-.339.38-.677.569-1.018q.4-.845.8-1.7c.04-.068.135-.178.236-.178v.07a5.221,5.221,0,0,1,.366,1.614c.113.868.231,1.74.275,2.672.144,3.087.206,6.24.206,9.423a64.279,64.279,0,0,0,.52,8.433l.451,2.957c.264,2.38.264,4.836.5,7.242q.281,2.706.563,5.414c.121,1.1.015,2.958.65,3.724.456.552,1.118.495,1.837.495.452-.314.772-.295,1.147-.811.664-.919.512-2.221.551-3.478.044-1.461.084-2.985.223-4.43a65.075,65.075,0,0,1,1.2-7.942c.223-1.011.622-1.964.855-2.968.1-.606.21-1.212.313-1.819a14.748,14.748,0,0,1,.106-1.962,17.823,17.823,0,0,1,1.226-3.388,5.341,5.341,0,0,0,.187-1.246c.1-.446.193-.889.287-1.336q.691-2.466,1.381-4.933c.024-.107.306-.844.212-.844a15.548,15.548,0,0,0,.525-1.744l1.263-4.225L30.146,40.3q.788-2.277,1.573-4.555c1.32-2.944,2.845-5.872,4.142-8.835a35.762,35.762,0,0,0,1.412-3.933,14.854,14.854,0,0,1,.688-2.37,13.115,13.115,0,0,1,1.509-1.859A25.437,25.437,0,0,0,41.591,15.6c1.011-1.966,1.522-4.447,3.705-5.532a2.558,2.558,0,0,1,.721-.354c.807-.137,1.131,1.518,1.513,2a1.475,1.475,0,0,0,.582.4,3.183,3.183,0,0,0,1.206-.007,2.327,2.327,0,0,0,.889-1c.75-1.925,0-6.99-1.069-8.468A2.519,2.519,0,0,0,47.06,1.557Z" transform="translate(13.933 6.669)" fill="#fff" fill-rule="evenodd"/>
  </g>
</svg>
