<svg xmlns="http://www.w3.org/2000/svg" width="276.525" height="61.992" viewBox="0 0 276.525 61.992">
  <g id="Group_42919" data-name="Group 42919" transform="translate(-508.654 -346.012)">
    <path id="Path_168086" data-name="Path 168086" d="M643.727,365.861H639.9V349.853H633.47v-3.841h16.674v3.841h-6.416Z" transform="translate(135.035 0)" fill="#f0eb5b"/>
    <path id="Path_168087" data-name="Path 168087" d="M614.923,346.012h3.827v16.01h6.431v3.839H608.507v-3.839h6.416Z" transform="translate(108.028 0)" fill="#f0eb5b"/>
    <path id="Path_168088" data-name="Path 168088" d="M543.874,365.861h-3.826V349.853h-6.431v-3.841h16.674v3.841h-6.416Z" transform="translate(27.007 0)" fill="#f0eb5b"/>
    <path id="Path_168089" data-name="Path 168089" d="M515.07,346.012H518.9v16.01h6.431v3.839H508.654v-3.839h6.416Z" transform="translate(0 0)" fill="#f0eb5b"/>
    <path id="Path_168090" data-name="Path 168090" d="M593.8,365.861h-3.826V349.853h-6.429v-3.841h16.672v3.841H593.8Z" transform="translate(81.022 0)" fill="#f0eb5b"/>
    <path id="Path_168091" data-name="Path 168091" d="M565,346.012h3.826v16.01h6.429v3.839H558.581v-3.839H565Z" transform="translate(54.015 0)" fill="#f0eb5b"/>
    <path id="Path_168092" data-name="Path 168092" d="M643.727,386.1H639.9v-16.01H633.47v-3.839h16.674v3.839h-6.416Z" transform="translate(135.035 21.9)" fill="#f0eb5b"/>
    <path id="Path_168093" data-name="Path 168093" d="M614.923,366.255h3.827v16.01h6.431V386.1H608.507v-3.839h6.416Z" transform="translate(108.028 21.9)" fill="#f0eb5b"/>
    <path id="Path_168094" data-name="Path 168094" d="M543.874,386.1h-3.826v-16.01h-6.431v-3.839h16.674v3.839h-6.416Z" transform="translate(27.007 21.9)" fill="#f0eb5b"/>
    <path id="Path_168095" data-name="Path 168095" d="M515.07,366.255H518.9v16.01h6.431V386.1H508.654v-3.839h6.416Z" transform="translate(0 21.9)" fill="#f0eb5b"/>
    <path id="Path_168096" data-name="Path 168096" d="M593.8,386.1h-3.826v-16.01h-6.429v-3.839h16.672v3.839H593.8Z" transform="translate(81.022 21.9)" fill="#f0eb5b"/>
    <path id="Path_168097" data-name="Path 168097" d="M565,366.255h3.826v16.01h6.429V386.1H558.581v-3.839H565Z" transform="translate(54.015 21.9)" fill="#f0eb5b"/>
  </g>
</svg>
