<svg xmlns="http://www.w3.org/2000/svg" width="116.744" height="334.654" viewBox="0 0 116.744 334.654">
  <g id="Group_42920" data-name="Group 42920" transform="translate(-172.845 -523.967)">
    <path id="Path_168118" data-name="Path 168118" d="M193.819,535.229a12.312,12.312,0,0,0-.831-4.626,11.009,11.009,0,0,0-2.266-3.559,9.745,9.745,0,0,0-3.346-2.285,10.907,10.907,0,0,0-8.164,0,9.577,9.577,0,0,0-3.328,2.285,10.913,10.913,0,0,0-2.225,3.559,12.574,12.574,0,0,0-.813,4.626,11.986,11.986,0,0,0,.813,4.45,11.165,11.165,0,0,0,2.225,3.559,10.4,10.4,0,0,0,3.328,2.38,9.749,9.749,0,0,0,4.082.87,10.348,10.348,0,0,0,4.082-.813,10.117,10.117,0,0,0,3.346-2.282,10.75,10.75,0,0,0,2.266-3.561A12.343,12.343,0,0,0,193.819,535.229Z" transform="translate(0 0)" fill="#f0eb5b"/>
    <path id="Path_168119" data-name="Path 168119" d="M212.306,535.229a12.313,12.313,0,0,0-.831-4.626,11,11,0,0,0-2.264-3.559,9.794,9.794,0,0,0-3.346-2.285,10.914,10.914,0,0,0-8.166,0,9.577,9.577,0,0,0-3.328,2.285,10.913,10.913,0,0,0-2.225,3.559,12.574,12.574,0,0,0-.811,4.626,11.986,11.986,0,0,0,.811,4.45,11.166,11.166,0,0,0,2.225,3.559,10.4,10.4,0,0,0,3.328,2.38,9.758,9.758,0,0,0,4.082.87,10.37,10.37,0,0,0,4.085-.813,10.169,10.169,0,0,0,3.346-2.282,10.745,10.745,0,0,0,2.264-3.561A12.344,12.344,0,0,0,212.306,535.229Z" transform="translate(29.399 0)" fill="#f0eb5b"/>
    <path id="Path_168120" data-name="Path 168120" d="M230.794,535.229a12.313,12.313,0,0,0-.831-4.626,11,11,0,0,0-2.264-3.559,9.8,9.8,0,0,0-3.346-2.285,10.914,10.914,0,0,0-8.166,0,9.544,9.544,0,0,0-3.326,2.285,10.876,10.876,0,0,0-2.227,3.559,12.574,12.574,0,0,0-.811,4.626,11.986,11.986,0,0,0,.811,4.45,11.127,11.127,0,0,0,2.227,3.559,10.357,10.357,0,0,0,3.326,2.38,9.761,9.761,0,0,0,4.085.87,10.366,10.366,0,0,0,4.082-.813,10.17,10.17,0,0,0,3.346-2.282,10.746,10.746,0,0,0,2.264-3.561A12.344,12.344,0,0,0,230.794,535.229Z" transform="translate(58.796 0)" fill="#f0eb5b"/>
    <path id="Path_168122" data-name="Path 168122" d="M193.819,550.418a12.313,12.313,0,0,0-.831-4.626,11.01,11.01,0,0,0-2.266-3.559,9.786,9.786,0,0,0-3.346-2.285,10.909,10.909,0,0,0-8.164,0,9.617,9.617,0,0,0-3.328,2.285,10.913,10.913,0,0,0-2.225,3.559,12.575,12.575,0,0,0-.813,4.626,11.986,11.986,0,0,0,.813,4.45,11.166,11.166,0,0,0,2.225,3.559,10.4,10.4,0,0,0,3.328,2.38,9.749,9.749,0,0,0,4.082.87,10.348,10.348,0,0,0,4.082-.813,10.116,10.116,0,0,0,3.346-2.282,10.753,10.753,0,0,0,2.266-3.561A12.343,12.343,0,0,0,193.819,550.418Z" transform="translate(0 24.151)" fill="#f0eb5b"/>
    <path id="Path_168123" data-name="Path 168123" d="M212.306,550.418a12.314,12.314,0,0,0-.831-4.626,11,11,0,0,0-2.264-3.559,9.835,9.835,0,0,0-3.346-2.285,10.916,10.916,0,0,0-8.166,0,9.616,9.616,0,0,0-3.328,2.285,10.914,10.914,0,0,0-2.225,3.559,12.575,12.575,0,0,0-.811,4.626,11.985,11.985,0,0,0,.811,4.45,11.167,11.167,0,0,0,2.225,3.559,10.4,10.4,0,0,0,3.328,2.38,9.758,9.758,0,0,0,4.082.87,10.37,10.37,0,0,0,4.085-.813,10.168,10.168,0,0,0,3.346-2.282,10.748,10.748,0,0,0,2.264-3.561A12.344,12.344,0,0,0,212.306,550.418Z" transform="translate(29.399 24.151)" fill="#f0eb5b"/>
    <path id="Path_168124" data-name="Path 168124" d="M230.794,550.418a12.314,12.314,0,0,0-.831-4.626,11,11,0,0,0-2.264-3.559,9.836,9.836,0,0,0-3.346-2.285,10.916,10.916,0,0,0-8.166,0,9.583,9.583,0,0,0-3.326,2.285,10.877,10.877,0,0,0-2.227,3.559,12.575,12.575,0,0,0-.811,4.626,11.985,11.985,0,0,0,.811,4.45,11.128,11.128,0,0,0,2.227,3.559,10.362,10.362,0,0,0,3.326,2.38,9.761,9.761,0,0,0,4.085.87,10.367,10.367,0,0,0,4.082-.813,10.169,10.169,0,0,0,3.346-2.282,10.749,10.749,0,0,0,2.264-3.561A12.344,12.344,0,0,0,230.794,550.418Z" transform="translate(58.796 24.151)" fill="#f0eb5b"/>
    <path id="Path_168126" data-name="Path 168126" d="M193.819,565.607a12.288,12.288,0,0,0-.831-4.623,10.993,10.993,0,0,0-2.266-3.561,9.784,9.784,0,0,0-3.346-2.284,10.906,10.906,0,0,0-8.164,0,9.615,9.615,0,0,0-3.328,2.284,10.9,10.9,0,0,0-2.225,3.561,12.55,12.55,0,0,0-.813,4.623,11.976,11.976,0,0,0,.813,4.45,11.164,11.164,0,0,0,2.225,3.559,10.4,10.4,0,0,0,3.328,2.38,9.749,9.749,0,0,0,4.082.87,10.346,10.346,0,0,0,4.082-.811,10.158,10.158,0,0,0,3.346-2.284,10.75,10.75,0,0,0,2.266-3.561A12.342,12.342,0,0,0,193.819,565.607Z" transform="translate(0 48.303)" fill="#f0eb5b"/>
    <path id="Path_168127" data-name="Path 168127" d="M212.306,565.607a12.289,12.289,0,0,0-.831-4.623,10.987,10.987,0,0,0-2.264-3.561,9.833,9.833,0,0,0-3.346-2.284,10.913,10.913,0,0,0-8.166,0,9.614,9.614,0,0,0-3.328,2.284,10.9,10.9,0,0,0-2.225,3.561,12.55,12.55,0,0,0-.811,4.623,11.975,11.975,0,0,0,.811,4.45,11.165,11.165,0,0,0,2.225,3.559A10.4,10.4,0,0,0,197.7,576a9.758,9.758,0,0,0,4.082.87,10.368,10.368,0,0,0,4.085-.811,10.211,10.211,0,0,0,3.346-2.284,10.744,10.744,0,0,0,2.264-3.561A12.342,12.342,0,0,0,212.306,565.607Z" transform="translate(29.399 48.303)" fill="#f0eb5b"/>
    <path id="Path_168128" data-name="Path 168128" d="M230.794,565.607a12.289,12.289,0,0,0-.831-4.623,10.988,10.988,0,0,0-2.264-3.561,9.834,9.834,0,0,0-3.346-2.284,10.912,10.912,0,0,0-8.166,0,9.581,9.581,0,0,0-3.326,2.284,10.861,10.861,0,0,0-2.227,3.561,12.55,12.55,0,0,0-.811,4.623,11.975,11.975,0,0,0,.811,4.45,11.126,11.126,0,0,0,2.227,3.559,10.36,10.36,0,0,0,3.326,2.38,9.761,9.761,0,0,0,4.085.87,10.365,10.365,0,0,0,4.082-.811,10.212,10.212,0,0,0,3.346-2.284,10.745,10.745,0,0,0,2.264-3.561A12.342,12.342,0,0,0,230.794,565.607Z" transform="translate(58.796 48.303)" fill="#f0eb5b"/>
    <path id="Path_168130" data-name="Path 168130" d="M193.819,579.685a12.29,12.29,0,0,0-.831-4.623,11,11,0,0,0-2.266-3.561,9.775,9.775,0,0,0-3.346-2.282,10.909,10.909,0,0,0-8.164,0,9.606,9.606,0,0,0-3.328,2.282,10.9,10.9,0,0,0-2.225,3.561,12.552,12.552,0,0,0-.813,4.623,11.976,11.976,0,0,0,.813,4.45,11.165,11.165,0,0,0,2.225,3.559,10.4,10.4,0,0,0,3.328,2.38,9.751,9.751,0,0,0,4.082.87,10.346,10.346,0,0,0,4.082-.811,10.118,10.118,0,0,0,3.346-2.285,10.738,10.738,0,0,0,2.266-3.559A12.348,12.348,0,0,0,193.819,579.685Z" transform="translate(0 70.693)" fill="#f0eb5b"/>
    <path id="Path_168131" data-name="Path 168131" d="M212.306,579.685a12.291,12.291,0,0,0-.831-4.623,10.989,10.989,0,0,0-2.264-3.561,9.824,9.824,0,0,0-3.346-2.282,10.916,10.916,0,0,0-8.166,0,9.606,9.606,0,0,0-3.328,2.282,10.9,10.9,0,0,0-2.225,3.561,12.552,12.552,0,0,0-.811,4.623,11.975,11.975,0,0,0,.811,4.45,11.166,11.166,0,0,0,2.225,3.559,10.4,10.4,0,0,0,3.328,2.38,9.759,9.759,0,0,0,4.082.87,10.368,10.368,0,0,0,4.085-.811,10.171,10.171,0,0,0,3.346-2.285,10.732,10.732,0,0,0,2.264-3.559A12.348,12.348,0,0,0,212.306,579.685Z" transform="translate(29.399 70.693)" fill="#f0eb5b"/>
    <path id="Path_168132" data-name="Path 168132" d="M230.794,579.685a12.291,12.291,0,0,0-.831-4.623A10.99,10.99,0,0,0,227.7,571.5a9.825,9.825,0,0,0-3.346-2.282,10.916,10.916,0,0,0-8.166,0,9.573,9.573,0,0,0-3.326,2.282,10.863,10.863,0,0,0-2.227,3.561,12.552,12.552,0,0,0-.811,4.623,11.975,11.975,0,0,0,.811,4.45,11.127,11.127,0,0,0,2.227,3.559,10.359,10.359,0,0,0,3.326,2.38,9.763,9.763,0,0,0,4.085.87,10.365,10.365,0,0,0,4.082-.811,10.172,10.172,0,0,0,3.346-2.285,10.733,10.733,0,0,0,2.264-3.559A12.348,12.348,0,0,0,230.794,579.685Z" transform="translate(58.796 70.693)" fill="#f0eb5b"/>
    <path id="Path_168134" data-name="Path 168134" d="M193.819,595.482a12.31,12.31,0,0,0-.831-4.623,11.052,11.052,0,0,0-2.266-3.561,9.775,9.775,0,0,0-3.346-2.282,10.909,10.909,0,0,0-8.164,0,9.606,9.606,0,0,0-3.328,2.282,10.955,10.955,0,0,0-2.225,3.561,12.572,12.572,0,0,0-.813,4.623,11.99,11.99,0,0,0,.813,4.452,11.166,11.166,0,0,0,2.225,3.559,10.4,10.4,0,0,0,3.328,2.38,9.747,9.747,0,0,0,4.082.87,10.348,10.348,0,0,0,4.082-.813,10.116,10.116,0,0,0,3.346-2.282,10.752,10.752,0,0,0,2.266-3.561A12.347,12.347,0,0,0,193.819,595.482Z" transform="translate(0 95.811)" fill="#f0eb5b"/>
    <path id="Path_168135" data-name="Path 168135" d="M212.306,595.482a12.311,12.311,0,0,0-.831-4.623,11.046,11.046,0,0,0-2.264-3.561,9.824,9.824,0,0,0-3.346-2.282,10.916,10.916,0,0,0-8.166,0,9.606,9.606,0,0,0-3.328,2.282,10.955,10.955,0,0,0-2.225,3.561,12.572,12.572,0,0,0-.811,4.623,11.989,11.989,0,0,0,.811,4.452,11.167,11.167,0,0,0,2.225,3.559,10.4,10.4,0,0,0,3.328,2.38,9.756,9.756,0,0,0,4.082.87,10.37,10.37,0,0,0,4.085-.813,10.168,10.168,0,0,0,3.346-2.282,10.746,10.746,0,0,0,2.264-3.561A12.348,12.348,0,0,0,212.306,595.482Z" transform="translate(29.399 95.811)" fill="#f0eb5b"/>
    <path id="Path_168136" data-name="Path 168136" d="M230.794,595.482a12.311,12.311,0,0,0-.831-4.623A11.047,11.047,0,0,0,227.7,587.3a9.825,9.825,0,0,0-3.346-2.282,10.916,10.916,0,0,0-8.166,0,9.573,9.573,0,0,0-3.326,2.282,10.918,10.918,0,0,0-2.227,3.561,12.572,12.572,0,0,0-.811,4.623,11.989,11.989,0,0,0,.811,4.452,11.128,11.128,0,0,0,2.227,3.559,10.362,10.362,0,0,0,3.326,2.38,9.759,9.759,0,0,0,4.085.87,10.367,10.367,0,0,0,4.082-.813,10.169,10.169,0,0,0,3.346-2.282,10.747,10.747,0,0,0,2.264-3.561A12.348,12.348,0,0,0,230.794,595.482Z" transform="translate(58.796 95.811)" fill="#f0eb5b"/>
    <path id="Path_168158" data-name="Path 168158" d="M193.819,595.482a12.31,12.31,0,0,0-.831-4.623,11.052,11.052,0,0,0-2.266-3.561,9.775,9.775,0,0,0-3.346-2.282,10.909,10.909,0,0,0-8.164,0,9.606,9.606,0,0,0-3.328,2.282,10.955,10.955,0,0,0-2.225,3.561,12.572,12.572,0,0,0-.813,4.623,11.99,11.99,0,0,0,.813,4.452,11.166,11.166,0,0,0,2.225,3.559,10.4,10.4,0,0,0,3.328,2.38,9.747,9.747,0,0,0,4.082.87,10.348,10.348,0,0,0,4.082-.813,10.116,10.116,0,0,0,3.346-2.282,10.752,10.752,0,0,0,2.266-3.561A12.347,12.347,0,0,0,193.819,595.482Z" transform="translate(0 95.811)" fill="#f0eb5b"/>
    <path id="Path_168159" data-name="Path 168159" d="M212.306,595.482a12.311,12.311,0,0,0-.831-4.623,11.046,11.046,0,0,0-2.264-3.561,9.824,9.824,0,0,0-3.346-2.282,10.916,10.916,0,0,0-8.166,0,9.606,9.606,0,0,0-3.328,2.282,10.955,10.955,0,0,0-2.225,3.561,12.572,12.572,0,0,0-.811,4.623,11.989,11.989,0,0,0,.811,4.452,11.167,11.167,0,0,0,2.225,3.559,10.4,10.4,0,0,0,3.328,2.38,9.756,9.756,0,0,0,4.082.87,10.37,10.37,0,0,0,4.085-.813,10.168,10.168,0,0,0,3.346-2.282,10.746,10.746,0,0,0,2.264-3.561A12.348,12.348,0,0,0,212.306,595.482Z" transform="translate(29.399 95.811)" fill="#f0eb5b"/>
    <path id="Path_168160" data-name="Path 168160" d="M230.794,595.482a12.311,12.311,0,0,0-.831-4.623A11.047,11.047,0,0,0,227.7,587.3a9.825,9.825,0,0,0-3.346-2.282,10.916,10.916,0,0,0-8.166,0,9.573,9.573,0,0,0-3.326,2.282,10.918,10.918,0,0,0-2.227,3.561,12.572,12.572,0,0,0-.811,4.623,11.989,11.989,0,0,0,.811,4.452,11.128,11.128,0,0,0,2.227,3.559,10.362,10.362,0,0,0,3.326,2.38,9.759,9.759,0,0,0,4.085.87,10.367,10.367,0,0,0,4.082-.813,10.169,10.169,0,0,0,3.346-2.282,10.747,10.747,0,0,0,2.264-3.561A12.348,12.348,0,0,0,230.794,595.482Z" transform="translate(58.796 95.811)" fill="#f0eb5b"/>
    <path id="Path_168162" data-name="Path 168162" d="M193.819,610.674a12.312,12.312,0,0,0-.831-4.626,11.01,11.01,0,0,0-2.266-3.559,9.748,9.748,0,0,0-3.346-2.284,10.906,10.906,0,0,0-8.164,0,9.58,9.58,0,0,0-3.328,2.284,10.914,10.914,0,0,0-2.225,3.559,12.574,12.574,0,0,0-.813,4.626,11.986,11.986,0,0,0,.813,4.45,11.167,11.167,0,0,0,2.225,3.559,10.4,10.4,0,0,0,3.328,2.38,9.749,9.749,0,0,0,4.082.87,10.348,10.348,0,0,0,4.082-.813,10.117,10.117,0,0,0,3.346-2.282,10.75,10.75,0,0,0,2.266-3.561A12.342,12.342,0,0,0,193.819,610.674Z" transform="translate(0 119.962)" fill="#f0eb5b"/>
    <path id="Path_168163" data-name="Path 168163" d="M212.306,610.674a12.313,12.313,0,0,0-.831-4.626,11,11,0,0,0-2.264-3.559,9.8,9.8,0,0,0-3.346-2.284,10.913,10.913,0,0,0-8.166,0,9.579,9.579,0,0,0-3.328,2.284,10.914,10.914,0,0,0-2.225,3.559,12.574,12.574,0,0,0-.811,4.626,11.985,11.985,0,0,0,.811,4.45,11.168,11.168,0,0,0,2.225,3.559,10.4,10.4,0,0,0,3.328,2.38,9.758,9.758,0,0,0,4.082.87,10.37,10.37,0,0,0,4.085-.813,10.169,10.169,0,0,0,3.346-2.282,10.744,10.744,0,0,0,2.264-3.561A12.343,12.343,0,0,0,212.306,610.674Z" transform="translate(29.399 119.962)" fill="#f0eb5b"/>
    <path id="Path_168164" data-name="Path 168164" d="M230.794,610.674a12.313,12.313,0,0,0-.831-4.626,11.005,11.005,0,0,0-2.264-3.559,9.8,9.8,0,0,0-3.346-2.284,10.912,10.912,0,0,0-8.166,0,9.546,9.546,0,0,0-3.326,2.284,10.878,10.878,0,0,0-2.227,3.559,12.574,12.574,0,0,0-.811,4.626,11.985,11.985,0,0,0,.811,4.45,11.129,11.129,0,0,0,2.227,3.559,10.36,10.36,0,0,0,3.326,2.38,9.761,9.761,0,0,0,4.085.87,10.366,10.366,0,0,0,4.082-.813,10.17,10.17,0,0,0,3.346-2.282,10.745,10.745,0,0,0,2.264-3.561A12.343,12.343,0,0,0,230.794,610.674Z" transform="translate(58.796 119.962)" fill="#f0eb5b"/>
    <path id="Path_168166" data-name="Path 168166" d="M193.819,625.863a12.312,12.312,0,0,0-.831-4.626,11.01,11.01,0,0,0-2.266-3.559,9.786,9.786,0,0,0-3.346-2.284,10.909,10.909,0,0,0-8.164,0,9.616,9.616,0,0,0-3.328,2.284,10.914,10.914,0,0,0-2.225,3.559,12.574,12.574,0,0,0-.813,4.626,11.986,11.986,0,0,0,.813,4.45,11.164,11.164,0,0,0,2.225,3.559,10.4,10.4,0,0,0,3.328,2.38,9.749,9.749,0,0,0,4.082.87,10.348,10.348,0,0,0,4.082-.813,10.116,10.116,0,0,0,3.346-2.282,10.753,10.753,0,0,0,2.266-3.561A12.344,12.344,0,0,0,193.819,625.863Z" transform="translate(0 144.114)" fill="#f0eb5b"/>
    <path id="Path_168167" data-name="Path 168167" d="M212.306,625.863a12.313,12.313,0,0,0-.831-4.626,11,11,0,0,0-2.264-3.559,9.835,9.835,0,0,0-3.346-2.284,10.916,10.916,0,0,0-8.166,0,9.616,9.616,0,0,0-3.328,2.284,10.914,10.914,0,0,0-2.225,3.559,12.574,12.574,0,0,0-.811,4.626,11.985,11.985,0,0,0,.811,4.45,11.164,11.164,0,0,0,2.225,3.559,10.4,10.4,0,0,0,3.328,2.38,9.758,9.758,0,0,0,4.082.87,10.37,10.37,0,0,0,4.085-.813,10.169,10.169,0,0,0,3.346-2.282,10.747,10.747,0,0,0,2.264-3.561A12.344,12.344,0,0,0,212.306,625.863Z" transform="translate(29.399 144.114)" fill="#f0eb5b"/>
    <path id="Path_168168" data-name="Path 168168" d="M230.794,625.863a12.313,12.313,0,0,0-.831-4.626,11.005,11.005,0,0,0-2.264-3.559,9.836,9.836,0,0,0-3.346-2.284,10.916,10.916,0,0,0-8.166,0,9.583,9.583,0,0,0-3.326,2.284,10.878,10.878,0,0,0-2.227,3.559,12.574,12.574,0,0,0-.811,4.626,11.985,11.985,0,0,0,.811,4.45,11.126,11.126,0,0,0,2.227,3.559,10.36,10.36,0,0,0,3.326,2.38,9.761,9.761,0,0,0,4.085.87,10.367,10.367,0,0,0,4.082-.813,10.17,10.17,0,0,0,3.346-2.282,10.748,10.748,0,0,0,2.264-3.561A12.344,12.344,0,0,0,230.794,625.863Z" transform="translate(58.796 144.114)" fill="#f0eb5b"/>
    <path id="Path_168170" data-name="Path 168170" d="M193.819,639.943a12.288,12.288,0,0,0-.831-4.623,10.993,10.993,0,0,0-2.266-3.561,9.784,9.784,0,0,0-3.346-2.284,10.909,10.909,0,0,0-8.164,0,9.615,9.615,0,0,0-3.328,2.284,10.9,10.9,0,0,0-2.225,3.561,12.55,12.55,0,0,0-.813,4.623,11.976,11.976,0,0,0,.813,4.45,11.164,11.164,0,0,0,2.225,3.559,10.4,10.4,0,0,0,3.328,2.38,9.749,9.749,0,0,0,4.082.87,10.346,10.346,0,0,0,4.082-.811,10.121,10.121,0,0,0,3.346-2.284,10.752,10.752,0,0,0,2.266-3.561A12.324,12.324,0,0,0,193.819,639.943Z" transform="translate(0 166.502)" fill="#f0eb5b"/>
    <path id="Path_168171" data-name="Path 168171" d="M212.306,639.943a12.289,12.289,0,0,0-.831-4.623,10.987,10.987,0,0,0-2.264-3.561,9.833,9.833,0,0,0-3.346-2.284,10.916,10.916,0,0,0-8.166,0,9.614,9.614,0,0,0-3.328,2.284,10.9,10.9,0,0,0-2.225,3.561,12.55,12.55,0,0,0-.811,4.623,11.975,11.975,0,0,0,.811,4.45,11.165,11.165,0,0,0,2.225,3.559,10.4,10.4,0,0,0,3.328,2.38,9.758,9.758,0,0,0,4.082.87,10.368,10.368,0,0,0,4.085-.811,10.174,10.174,0,0,0,3.346-2.284,10.746,10.746,0,0,0,2.264-3.561A12.324,12.324,0,0,0,212.306,639.943Z" transform="translate(29.399 166.502)" fill="#f0eb5b"/>
    <path id="Path_168172" data-name="Path 168172" d="M230.794,639.943a12.289,12.289,0,0,0-.831-4.623,10.988,10.988,0,0,0-2.264-3.561,9.834,9.834,0,0,0-3.346-2.284,10.916,10.916,0,0,0-8.166,0,9.581,9.581,0,0,0-3.326,2.284,10.861,10.861,0,0,0-2.227,3.561,12.55,12.55,0,0,0-.811,4.623,11.975,11.975,0,0,0,.811,4.45,11.126,11.126,0,0,0,2.227,3.559,10.36,10.36,0,0,0,3.326,2.38,9.761,9.761,0,0,0,4.085.87,10.365,10.365,0,0,0,4.082-.811,10.175,10.175,0,0,0,3.346-2.284,10.747,10.747,0,0,0,2.264-3.561A12.324,12.324,0,0,0,230.794,639.943Z" transform="translate(58.796 166.502)" fill="#f0eb5b"/>
    <path id="Path_168174" data-name="Path 168174" d="M193.819,655.738a12.308,12.308,0,0,0-.831-4.623,11.021,11.021,0,0,0-2.266-3.561,9.779,9.779,0,0,0-3.346-2.282,10.909,10.909,0,0,0-8.164,0,9.61,9.61,0,0,0-3.328,2.282,10.925,10.925,0,0,0-2.225,3.561,12.57,12.57,0,0,0-.813,4.623,11.989,11.989,0,0,0,.813,4.452,11.166,11.166,0,0,0,2.225,3.559,10.442,10.442,0,0,0,3.328,2.38,9.749,9.749,0,0,0,4.082.87,10.346,10.346,0,0,0,4.082-.813,10.153,10.153,0,0,0,3.346-2.282,10.751,10.751,0,0,0,2.266-3.561A12.347,12.347,0,0,0,193.819,655.738Z" transform="translate(0 191.621)" fill="#f0eb5b"/>
    <path id="Path_168175" data-name="Path 168175" d="M212.306,655.738a12.308,12.308,0,0,0-.831-4.623,11.015,11.015,0,0,0-2.264-3.561,9.828,9.828,0,0,0-3.346-2.282,10.916,10.916,0,0,0-8.166,0,9.609,9.609,0,0,0-3.328,2.282,10.925,10.925,0,0,0-2.225,3.561,12.57,12.57,0,0,0-.811,4.623,11.988,11.988,0,0,0,.811,4.452,11.167,11.167,0,0,0,2.225,3.559,10.442,10.442,0,0,0,3.328,2.38,9.758,9.758,0,0,0,4.082.87,10.368,10.368,0,0,0,4.085-.813,10.206,10.206,0,0,0,3.346-2.282,10.745,10.745,0,0,0,2.264-3.561A12.348,12.348,0,0,0,212.306,655.738Z" transform="translate(29.399 191.621)" fill="#f0eb5b"/>
    <path id="Path_168176" data-name="Path 168176" d="M230.794,655.738a12.308,12.308,0,0,0-.831-4.623,11.016,11.016,0,0,0-2.264-3.561,9.829,9.829,0,0,0-3.346-2.282,10.916,10.916,0,0,0-8.166,0,9.576,9.576,0,0,0-3.326,2.282,10.888,10.888,0,0,0-2.227,3.561,12.57,12.57,0,0,0-.811,4.623,11.988,11.988,0,0,0,.811,4.452,11.128,11.128,0,0,0,2.227,3.559,10.4,10.4,0,0,0,3.326,2.38,9.761,9.761,0,0,0,4.085.87,10.364,10.364,0,0,0,4.082-.813A10.207,10.207,0,0,0,227.7,663.9a10.746,10.746,0,0,0,2.264-3.561A12.348,12.348,0,0,0,230.794,655.738Z" transform="translate(58.796 191.621)" fill="#f0eb5b"/>
  </g>
</svg>
