<svg id="Group_42925" data-name="Group 42925" xmlns="http://www.w3.org/2000/svg" width="39.073" height="44.377" viewBox="0 0 39.073 44.377">
  <path id="Path_168205" data-name="Path 168205" d="M91.976,466.7a22.336,22.336,0,0,1,7.1,1.48,19.861,19.861,0,0,1,6.6,4.2,18.783,18.783,0,0,1,4.231,6.2,19.179,19.179,0,0,1,1.5,7.564,18.329,18.329,0,0,1-.753,5.193H130.7a39.849,39.849,0,0,0,.345-5.193,37.776,37.776,0,0,0-3.119-15.306A39.266,39.266,0,0,0,119.4,458.4a40.148,40.148,0,0,0-12.833-8.39,41,41,0,0,0-14.59-3.051Z" transform="translate(-91.976 -446.957)" fill="#f0eb5b"/>
</svg>
